<?xml version="1.0" encoding="utf-8" standalone="no"?>
<!DOCTYPE svg PUBLIC "-//W3C//DTD SVG 1.1//EN"
  "http://www.w3.org/Graphics/SVG/1.1/DTD/svg11.dtd">
<svg xmlns:xlink="http://www.w3.org/1999/xlink" width="720pt" height="432pt" viewBox="0 0 720 432" xmlns="http://www.w3.org/2000/svg" version="1.1">
 <metadata>
  <rdf:RDF xmlns:dc="http://purl.org/dc/elements/1.1/" xmlns:cc="http://creativecommons.org/ns#" xmlns:rdf="http://www.w3.org/1999/02/22-rdf-syntax-ns#">
   <cc:Work>
    <dc:type rdf:resource="http://purl.org/dc/dcmitype/StillImage"/>
    <dc:date>2024-12-19T12:39:03.784908</dc:date>
    <dc:format>image/svg+xml</dc:format>
    <dc:creator>
     <cc:Agent>
      <dc:title>Matplotlib v3.9.2, https://matplotlib.org/</dc:title>
     </cc:Agent>
    </dc:creator>
   </cc:Work>
  </rdf:RDF>
 </metadata>
 <defs>
  <style type="text/css">*{stroke-linejoin: round; stroke-linecap: butt}</style>
 </defs>
 <g id="figure_1">
  <g id="patch_1">
   <path d="M 0 432 
L 720 432 
L 720 0 
L 0 0 
z
" style="fill: #ffffff"/>
  </g>
  <g id="axes_1">
   <g id="patch_2">
    <path d="M 90 384.48 
L 648 384.48 
L 648 51.84 
L 90 51.84 
z
" style="fill: #ffffff"/>
   </g>
   <g id="matplotlib.axis_1">
    <g id="xtick_1">
     <g id="line2d_1">
      <path d="M 115.363636 384.48 
L 115.363636 51.84 
" clip-path="url(#pa988832252)" style="fill: none; stroke: #b0b0b0; stroke-width: 0.8; stroke-linecap: square"/>
     </g>
     <g id="line2d_2">
      <defs>
       <path id="mc359bd2b24" d="M 0 0 
L 0 3.5 
" style="stroke: #000000; stroke-width: 0.8"/>
      </defs>
      <g>
       <use xlink:href="#mc359bd2b24" x="115.363636" y="384.48" style="stroke: #000000; stroke-width: 0.8"/>
      </g>
     </g>
     <g id="text_1">
      <!-- −1.00 -->
      <g transform="translate(100.04098 399.078438) scale(0.1 -0.1)">
       <defs>
        <path id="DejaVuSans-2212" d="M 678 2272 
L 4684 2272 
L 4684 1741 
L 678 1741 
L 678 2272 
z
" transform="scale(0.015625)"/>
        <path id="DejaVuSans-31" d="M 794 531 
L 1825 531 
L 1825 4091 
L 703 3866 
L 703 4441 
L 1819 4666 
L 2450 4666 
L 2450 531 
L 3481 531 
L 3481 0 
L 794 0 
L 794 531 
z
" transform="scale(0.015625)"/>
        <path id="DejaVuSans-2e" d="M 684 794 
L 1344 794 
L 1344 0 
L 684 0 
L 684 794 
z
" transform="scale(0.015625)"/>
        <path id="DejaVuSans-30" d="M 2034 4250 
Q 1547 4250 1301 3770 
Q 1056 3291 1056 2328 
Q 1056 1369 1301 889 
Q 1547 409 2034 409 
Q 2525 409 2770 889 
Q 3016 1369 3016 2328 
Q 3016 3291 2770 3770 
Q 2525 4250 2034 4250 
z
M 2034 4750 
Q 2819 4750 3233 4129 
Q 3647 3509 3647 2328 
Q 3647 1150 3233 529 
Q 2819 -91 2034 -91 
Q 1250 -91 836 529 
Q 422 1150 422 2328 
Q 422 3509 836 4129 
Q 1250 4750 2034 4750 
z
" transform="scale(0.015625)"/>
       </defs>
       <use xlink:href="#DejaVuSans-2212"/>
       <use xlink:href="#DejaVuSans-31" x="83.789062"/>
       <use xlink:href="#DejaVuSans-2e" x="147.412109"/>
       <use xlink:href="#DejaVuSans-30" x="179.199219"/>
       <use xlink:href="#DejaVuSans-30" x="242.822266"/>
      </g>
     </g>
    </g>
    <g id="xtick_2">
     <g id="line2d_3">
      <path d="M 178.772727 384.48 
L 178.772727 51.84 
" clip-path="url(#pa988832252)" style="fill: none; stroke: #b0b0b0; stroke-width: 0.8; stroke-linecap: square"/>
     </g>
     <g id="line2d_4">
      <g>
       <use xlink:href="#mc359bd2b24" x="178.772727" y="384.48" style="stroke: #000000; stroke-width: 0.8"/>
      </g>
     </g>
     <g id="text_2">
      <!-- −0.75 -->
      <g transform="translate(163.450071 399.078438) scale(0.1 -0.1)">
       <defs>
        <path id="DejaVuSans-37" d="M 525 4666 
L 3525 4666 
L 3525 4397 
L 1831 0 
L 1172 0 
L 2766 4134 
L 525 4134 
L 525 4666 
z
" transform="scale(0.015625)"/>
        <path id="DejaVuSans-35" d="M 691 4666 
L 3169 4666 
L 3169 4134 
L 1269 4134 
L 1269 2991 
Q 1406 3038 1543 3061 
Q 1681 3084 1819 3084 
Q 2600 3084 3056 2656 
Q 3513 2228 3513 1497 
Q 3513 744 3044 326 
Q 2575 -91 1722 -91 
Q 1428 -91 1123 -41 
Q 819 9 494 109 
L 494 744 
Q 775 591 1075 516 
Q 1375 441 1709 441 
Q 2250 441 2565 725 
Q 2881 1009 2881 1497 
Q 2881 1984 2565 2268 
Q 2250 2553 1709 2553 
Q 1456 2553 1204 2497 
Q 953 2441 691 2322 
L 691 4666 
z
" transform="scale(0.015625)"/>
       </defs>
       <use xlink:href="#DejaVuSans-2212"/>
       <use xlink:href="#DejaVuSans-30" x="83.789062"/>
       <use xlink:href="#DejaVuSans-2e" x="147.412109"/>
       <use xlink:href="#DejaVuSans-37" x="179.199219"/>
       <use xlink:href="#DejaVuSans-35" x="242.822266"/>
      </g>
     </g>
    </g>
    <g id="xtick_3">
     <g id="line2d_5">
      <path d="M 242.181818 384.48 
L 242.181818 51.84 
" clip-path="url(#pa988832252)" style="fill: none; stroke: #b0b0b0; stroke-width: 0.8; stroke-linecap: square"/>
     </g>
     <g id="line2d_6">
      <g>
       <use xlink:href="#mc359bd2b24" x="242.181818" y="384.48" style="stroke: #000000; stroke-width: 0.8"/>
      </g>
     </g>
     <g id="text_3">
      <!-- −0.50 -->
      <g transform="translate(226.859162 399.078438) scale(0.1 -0.1)">
       <use xlink:href="#DejaVuSans-2212"/>
       <use xlink:href="#DejaVuSans-30" x="83.789062"/>
       <use xlink:href="#DejaVuSans-2e" x="147.412109"/>
       <use xlink:href="#DejaVuSans-35" x="179.199219"/>
       <use xlink:href="#DejaVuSans-30" x="242.822266"/>
      </g>
     </g>
    </g>
    <g id="xtick_4">
     <g id="line2d_7">
      <path d="M 305.590909 384.48 
L 305.590909 51.84 
" clip-path="url(#pa988832252)" style="fill: none; stroke: #b0b0b0; stroke-width: 0.8; stroke-linecap: square"/>
     </g>
     <g id="line2d_8">
      <g>
       <use xlink:href="#mc359bd2b24" x="305.590909" y="384.48" style="stroke: #000000; stroke-width: 0.8"/>
      </g>
     </g>
     <g id="text_4">
      <!-- −0.25 -->
      <g transform="translate(290.268253 399.078438) scale(0.1 -0.1)">
       <defs>
        <path id="DejaVuSans-32" d="M 1228 531 
L 3431 531 
L 3431 0 
L 469 0 
L 469 531 
Q 828 903 1448 1529 
Q 2069 2156 2228 2338 
Q 2531 2678 2651 2914 
Q 2772 3150 2772 3378 
Q 2772 3750 2511 3984 
Q 2250 4219 1831 4219 
Q 1534 4219 1204 4116 
Q 875 4013 500 3803 
L 500 4441 
Q 881 4594 1212 4672 
Q 1544 4750 1819 4750 
Q 2544 4750 2975 4387 
Q 3406 4025 3406 3419 
Q 3406 3131 3298 2873 
Q 3191 2616 2906 2266 
Q 2828 2175 2409 1742 
Q 1991 1309 1228 531 
z
" transform="scale(0.015625)"/>
       </defs>
       <use xlink:href="#DejaVuSans-2212"/>
       <use xlink:href="#DejaVuSans-30" x="83.789062"/>
       <use xlink:href="#DejaVuSans-2e" x="147.412109"/>
       <use xlink:href="#DejaVuSans-32" x="179.199219"/>
       <use xlink:href="#DejaVuSans-35" x="242.822266"/>
      </g>
     </g>
    </g>
    <g id="xtick_5">
     <g id="line2d_9">
      <path d="M 369 384.48 
L 369 51.84 
" clip-path="url(#pa988832252)" style="fill: none; stroke: #b0b0b0; stroke-width: 0.8; stroke-linecap: square"/>
     </g>
     <g id="line2d_10">
      <g>
       <use xlink:href="#mc359bd2b24" x="369" y="384.48" style="stroke: #000000; stroke-width: 0.8"/>
      </g>
     </g>
     <g id="text_5">
      <!-- 0.00 -->
      <g transform="translate(357.867188 399.078438) scale(0.1 -0.1)">
       <use xlink:href="#DejaVuSans-30"/>
       <use xlink:href="#DejaVuSans-2e" x="63.623047"/>
       <use xlink:href="#DejaVuSans-30" x="95.410156"/>
       <use xlink:href="#DejaVuSans-30" x="159.033203"/>
      </g>
     </g>
    </g>
    <g id="xtick_6">
     <g id="line2d_11">
      <path d="M 432.409091 384.48 
L 432.409091 51.84 
" clip-path="url(#pa988832252)" style="fill: none; stroke: #b0b0b0; stroke-width: 0.8; stroke-linecap: square"/>
     </g>
     <g id="line2d_12">
      <g>
       <use xlink:href="#mc359bd2b24" x="432.409091" y="384.48" style="stroke: #000000; stroke-width: 0.8"/>
      </g>
     </g>
     <g id="text_6">
      <!-- 0.25 -->
      <g transform="translate(421.276278 399.078438) scale(0.1 -0.1)">
       <use xlink:href="#DejaVuSans-30"/>
       <use xlink:href="#DejaVuSans-2e" x="63.623047"/>
       <use xlink:href="#DejaVuSans-32" x="95.410156"/>
       <use xlink:href="#DejaVuSans-35" x="159.033203"/>
      </g>
     </g>
    </g>
    <g id="xtick_7">
     <g id="line2d_13">
      <path d="M 495.818182 384.48 
L 495.818182 51.84 
" clip-path="url(#pa988832252)" style="fill: none; stroke: #b0b0b0; stroke-width: 0.8; stroke-linecap: square"/>
     </g>
     <g id="line2d_14">
      <g>
       <use xlink:href="#mc359bd2b24" x="495.818182" y="384.48" style="stroke: #000000; stroke-width: 0.8"/>
      </g>
     </g>
     <g id="text_7">
      <!-- 0.50 -->
      <g transform="translate(484.685369 399.078438) scale(0.1 -0.1)">
       <use xlink:href="#DejaVuSans-30"/>
       <use xlink:href="#DejaVuSans-2e" x="63.623047"/>
       <use xlink:href="#DejaVuSans-35" x="95.410156"/>
       <use xlink:href="#DejaVuSans-30" x="159.033203"/>
      </g>
     </g>
    </g>
    <g id="xtick_8">
     <g id="line2d_15">
      <path d="M 559.227273 384.48 
L 559.227273 51.84 
" clip-path="url(#pa988832252)" style="fill: none; stroke: #b0b0b0; stroke-width: 0.8; stroke-linecap: square"/>
     </g>
     <g id="line2d_16">
      <g>
       <use xlink:href="#mc359bd2b24" x="559.227273" y="384.48" style="stroke: #000000; stroke-width: 0.8"/>
      </g>
     </g>
     <g id="text_8">
      <!-- 0.75 -->
      <g transform="translate(548.09446 399.078438) scale(0.1 -0.1)">
       <use xlink:href="#DejaVuSans-30"/>
       <use xlink:href="#DejaVuSans-2e" x="63.623047"/>
       <use xlink:href="#DejaVuSans-37" x="95.410156"/>
       <use xlink:href="#DejaVuSans-35" x="159.033203"/>
      </g>
     </g>
    </g>
    <g id="xtick_9">
     <g id="line2d_17">
      <path d="M 622.636364 384.48 
L 622.636364 51.84 
" clip-path="url(#pa988832252)" style="fill: none; stroke: #b0b0b0; stroke-width: 0.8; stroke-linecap: square"/>
     </g>
     <g id="line2d_18">
      <g>
       <use xlink:href="#mc359bd2b24" x="622.636364" y="384.48" style="stroke: #000000; stroke-width: 0.8"/>
      </g>
     </g>
     <g id="text_9">
      <!-- 1.00 -->
      <g transform="translate(611.503551 399.078438) scale(0.1 -0.1)">
       <use xlink:href="#DejaVuSans-31"/>
       <use xlink:href="#DejaVuSans-2e" x="63.623047"/>
       <use xlink:href="#DejaVuSans-30" x="95.410156"/>
       <use xlink:href="#DejaVuSans-30" x="159.033203"/>
      </g>
     </g>
    </g>
   </g>
   <g id="matplotlib.axis_2">
    <g id="ytick_1">
     <g id="line2d_19">
      <path d="M 90 358.506799 
L 648 358.506799 
" clip-path="url(#pa988832252)" style="fill: none; stroke: #b0b0b0; stroke-width: 0.8; stroke-linecap: square"/>
     </g>
     <g id="line2d_20">
      <defs>
       <path id="m461e4acaaa" d="M 0 0 
L -3.5 0 
" style="stroke: #000000; stroke-width: 0.8"/>
      </defs>
      <g>
       <use xlink:href="#m461e4acaaa" x="90" y="358.506799" style="stroke: #000000; stroke-width: 0.8"/>
      </g>
     </g>
     <g id="text_10">
      <!-- −0.10 -->
      <g transform="translate(52.354687 362.306018) scale(0.1 -0.1)">
       <use xlink:href="#DejaVuSans-2212"/>
       <use xlink:href="#DejaVuSans-30" x="83.789062"/>
       <use xlink:href="#DejaVuSans-2e" x="147.412109"/>
       <use xlink:href="#DejaVuSans-31" x="179.199219"/>
       <use xlink:href="#DejaVuSans-30" x="242.822266"/>
      </g>
     </g>
    </g>
    <g id="ytick_2">
     <g id="line2d_21">
      <path d="M 90 310.435371 
L 648 310.435371 
" clip-path="url(#pa988832252)" style="fill: none; stroke: #b0b0b0; stroke-width: 0.8; stroke-linecap: square"/>
     </g>
     <g id="line2d_22">
      <g>
       <use xlink:href="#m461e4acaaa" x="90" y="310.435371" style="stroke: #000000; stroke-width: 0.8"/>
      </g>
     </g>
     <g id="text_11">
      <!-- −0.05 -->
      <g transform="translate(52.354687 314.23459) scale(0.1 -0.1)">
       <use xlink:href="#DejaVuSans-2212"/>
       <use xlink:href="#DejaVuSans-30" x="83.789062"/>
       <use xlink:href="#DejaVuSans-2e" x="147.412109"/>
       <use xlink:href="#DejaVuSans-30" x="179.199219"/>
       <use xlink:href="#DejaVuSans-35" x="242.822266"/>
      </g>
     </g>
    </g>
    <g id="ytick_3">
     <g id="line2d_23">
      <path d="M 90 262.363943 
L 648 262.363943 
" clip-path="url(#pa988832252)" style="fill: none; stroke: #b0b0b0; stroke-width: 0.8; stroke-linecap: square"/>
     </g>
     <g id="line2d_24">
      <g>
       <use xlink:href="#m461e4acaaa" x="90" y="262.363943" style="stroke: #000000; stroke-width: 0.8"/>
      </g>
     </g>
     <g id="text_12">
      <!-- 0.00 -->
      <g transform="translate(60.734375 266.163162) scale(0.1 -0.1)">
       <use xlink:href="#DejaVuSans-30"/>
       <use xlink:href="#DejaVuSans-2e" x="63.623047"/>
       <use xlink:href="#DejaVuSans-30" x="95.410156"/>
       <use xlink:href="#DejaVuSans-30" x="159.033203"/>
      </g>
     </g>
    </g>
    <g id="ytick_4">
     <g id="line2d_25">
      <path d="M 90 214.292515 
L 648 214.292515 
" clip-path="url(#pa988832252)" style="fill: none; stroke: #b0b0b0; stroke-width: 0.8; stroke-linecap: square"/>
     </g>
     <g id="line2d_26">
      <g>
       <use xlink:href="#m461e4acaaa" x="90" y="214.292515" style="stroke: #000000; stroke-width: 0.8"/>
      </g>
     </g>
     <g id="text_13">
      <!-- 0.05 -->
      <g transform="translate(60.734375 218.091734) scale(0.1 -0.1)">
       <use xlink:href="#DejaVuSans-30"/>
       <use xlink:href="#DejaVuSans-2e" x="63.623047"/>
       <use xlink:href="#DejaVuSans-30" x="95.410156"/>
       <use xlink:href="#DejaVuSans-35" x="159.033203"/>
      </g>
     </g>
    </g>
    <g id="ytick_5">
     <g id="line2d_27">
      <path d="M 90 166.221087 
L 648 166.221087 
" clip-path="url(#pa988832252)" style="fill: none; stroke: #b0b0b0; stroke-width: 0.8; stroke-linecap: square"/>
     </g>
     <g id="line2d_28">
      <g>
       <use xlink:href="#m461e4acaaa" x="90" y="166.221087" style="stroke: #000000; stroke-width: 0.8"/>
      </g>
     </g>
     <g id="text_14">
      <!-- 0.10 -->
      <g transform="translate(60.734375 170.020306) scale(0.1 -0.1)">
       <use xlink:href="#DejaVuSans-30"/>
       <use xlink:href="#DejaVuSans-2e" x="63.623047"/>
       <use xlink:href="#DejaVuSans-31" x="95.410156"/>
       <use xlink:href="#DejaVuSans-30" x="159.033203"/>
      </g>
     </g>
    </g>
    <g id="ytick_6">
     <g id="line2d_29">
      <path d="M 90 118.149659 
L 648 118.149659 
" clip-path="url(#pa988832252)" style="fill: none; stroke: #b0b0b0; stroke-width: 0.8; stroke-linecap: square"/>
     </g>
     <g id="line2d_30">
      <g>
       <use xlink:href="#m461e4acaaa" x="90" y="118.149659" style="stroke: #000000; stroke-width: 0.8"/>
      </g>
     </g>
     <g id="text_15">
      <!-- 0.15 -->
      <g transform="translate(60.734375 121.948878) scale(0.1 -0.1)">
       <use xlink:href="#DejaVuSans-30"/>
       <use xlink:href="#DejaVuSans-2e" x="63.623047"/>
       <use xlink:href="#DejaVuSans-31" x="95.410156"/>
       <use xlink:href="#DejaVuSans-35" x="159.033203"/>
      </g>
     </g>
    </g>
    <g id="ytick_7">
     <g id="line2d_31">
      <path d="M 90 70.078231 
L 648 70.078231 
" clip-path="url(#pa988832252)" style="fill: none; stroke: #b0b0b0; stroke-width: 0.8; stroke-linecap: square"/>
     </g>
     <g id="line2d_32">
      <g>
       <use xlink:href="#m461e4acaaa" x="90" y="70.078231" style="stroke: #000000; stroke-width: 0.8"/>
      </g>
     </g>
     <g id="text_16">
      <!-- 0.20 -->
      <g transform="translate(60.734375 73.87745) scale(0.1 -0.1)">
       <use xlink:href="#DejaVuSans-30"/>
       <use xlink:href="#DejaVuSans-2e" x="63.623047"/>
       <use xlink:href="#DejaVuSans-32" x="95.410156"/>
       <use xlink:href="#DejaVuSans-30" x="159.033203"/>
      </g>
     </g>
    </g>
   </g>
   <g id="line2d_33">
    <path d="M 115.363636 262.363943 
L 122.479687 257.968582 
L 138.744944 247.817409 
L 144.844416 244.356288 
L 149.927309 241.760186 
L 153.993624 239.922654 
L 158.059938 238.336047 
L 162.126253 237.034774 
L 165.175988 236.266298 
L 168.225724 235.691056 
L 171.27546 235.322577 
L 174.325196 235.174068 
L 177.374932 235.258398 
L 180.424668 235.588074 
L 183.474403 236.175228 
L 186.524139 237.031588 
L 189.573875 238.168459 
L 192.623611 239.596699 
L 195.673347 241.326697 
L 198.723083 243.368343 
L 201.772818 245.731009 
L 204.822554 248.423517 
L 207.87229 251.454116 
L 210.922026 254.830454 
L 213.971762 258.559553 
L 217.021498 262.647779 
L 220.071233 267.089066 
L 224.137548 273.480206 
L 228.203862 280.29029 
L 234.303334 291.004992 
L 245.485699 310.831102 
L 249.552013 317.646425 
L 253.618328 324.027984 
L 256.668063 328.443213 
L 259.717799 332.47284 
L 262.767535 336.055825 
L 264.800692 338.166241 
L 266.83385 340.033074 
L 268.867007 341.638457 
L 270.900164 342.964678 
L 272.933321 343.994242 
L 274.966478 344.709926 
L 276.999636 345.094849 
L 279.032793 345.132547 
L 281.06595 344.80706 
L 283.099107 344.103023 
L 285.132265 343.005773 
L 287.165422 341.501459 
L 289.198579 339.577173 
L 291.231736 337.22108 
L 293.264893 334.42257 
L 295.298051 331.172412 
L 297.331208 327.46293 
L 299.364365 323.288181 
L 301.397522 318.644146 
L 303.43068 313.528929 
L 305.463837 307.942966 
L 307.496994 301.889237 
L 310.54673 291.944943 
L 313.596466 280.99391 
L 316.646201 269.084867 
L 319.695937 256.285217 
L 323.762252 238.020185 
L 327.828566 218.708995 
L 344.093824 140.139082 
L 347.14356 127.003272 
L 350.193296 114.962663 
L 352.226453 107.660014 
L 354.25961 101.013575 
L 356.292767 95.084232 
L 358.325925 89.927488 
L 360.359082 85.592529 
L 362.392239 82.121363 
L 363.408818 80.720678 
L 364.425396 79.548062 
L 365.441975 78.606433 
L 366.458553 77.89814 
L 367.475132 77.424956 
L 368.491711 77.188066 
L 369.508289 77.188066 
L 370.524868 77.424956 
L 371.541447 77.89814 
L 372.558025 78.606433 
L 373.574604 79.548062 
L 374.591182 80.720678 
L 375.607761 82.121363 
L 376.62434 83.746648 
L 378.657497 87.654483 
L 380.690654 92.406053 
L 382.723811 97.95566 
L 384.756968 104.250848 
L 386.790126 111.233301 
L 388.823283 118.839811 
L 391.873019 131.272071 
L 394.922755 144.719156 
L 398.989069 163.803741 
L 406.105119 198.766201 
L 412.204591 228.470921 
L 416.270905 247.306909 
L 419.320641 260.645475 
L 422.370377 273.157258 
L 425.420113 284.753464 
L 428.469849 295.373481 
L 431.519585 304.974281 
L 433.552742 310.794667 
L 435.585899 316.145465 
L 437.619056 321.024995 
L 439.652214 325.434013 
L 441.685371 329.375501 
L 443.718528 332.854465 
L 445.751685 335.877738 
L 447.784842 338.453796 
L 449.818 340.592579 
L 451.851157 342.305329 
L 453.884314 343.604436 
L 455.917471 344.503294 
L 457.950629 345.016177 
L 459.983786 345.158112 
L 462.016943 344.944773 
L 464.0501 344.392383 
L 466.083257 343.517626 
L 468.116415 342.337562 
L 470.149572 340.869558 
L 472.182729 339.131225 
L 474.215886 337.140359 
L 476.249044 334.91489 
L 479.298779 331.176243 
L 482.348515 327.011303 
L 485.398251 322.481086 
L 489.464565 315.977683 
L 494.547459 307.30523 
L 502.680087 292.822402 
L 509.796138 280.29029 
L 513.862452 273.480206 
L 517.928767 267.089066 
L 520.978502 262.647779 
L 524.028238 258.559553 
L 527.077974 254.830454 
L 530.12771 251.454116 
L 533.177446 248.423517 
L 536.227182 245.731009 
L 539.276917 243.368343 
L 542.326653 241.326697 
L 545.376389 239.596699 
L 548.426125 238.168459 
L 551.475861 237.031588 
L 554.525597 236.175228 
L 557.575332 235.588074 
L 560.625068 235.258398 
L 563.674804 235.174068 
L 566.72454 235.322577 
L 569.774276 235.691056 
L 572.824012 236.266298 
L 575.873747 237.034774 
L 579.940062 238.336047 
L 584.006376 239.922654 
L 588.072691 241.760186 
L 592.139005 243.813454 
L 597.221898 246.628652 
L 603.32137 250.276822 
L 613.487156 256.682025 
L 622.636364 262.363943 
L 622.636364 262.363943 
" clip-path="url(#pa988832252)" style="fill: none; stroke: #800080; stroke-width: 1.5; stroke-linecap: square"/>
   </g>
   <g id="line2d_34">
    <path d="M 115.363636 262.363943 
L 118.413372 244.977192 
L 121.463108 229.237072 
L 124.512844 215.085324 
L 126.546001 206.504733 
L 128.579158 198.587459 
L 130.612316 191.316642 
L 132.645473 184.675524 
L 134.67863 178.647453 
L 136.711787 173.215876 
L 138.744944 168.364344 
L 140.778102 164.076504 
L 142.811259 160.336103 
L 144.844416 157.126984 
L 146.877573 154.433085 
L 148.910731 152.238439 
L 150.943888 150.527168 
L 152.977045 149.283487 
L 155.010202 148.491698 
L 157.043359 148.136192 
L 159.076517 148.201442 
L 161.109674 148.672007 
L 163.142831 149.532524 
L 165.175988 150.767712 
L 167.209146 152.362365 
L 169.242303 154.301352 
L 171.27546 156.569615 
L 173.308617 159.152165 
L 175.341774 162.03408 
L 177.374932 165.200505 
L 180.424668 170.451252 
L 183.474403 176.259192 
L 186.524139 182.574923 
L 189.573875 189.349299 
L 193.640189 199.010747 
L 197.706504 209.285272 
L 202.789397 222.815712 
L 208.888869 239.765645 
L 230.237019 299.841896 
L 235.319913 313.085245 
L 239.386227 323.065251 
L 243.452541 332.374794 
L 246.502277 338.848013 
L 249.552013 344.831313 
L 252.601749 350.276492 
L 255.651485 355.135559 
L 257.684642 358.025764 
L 259.717799 360.620277 
L 261.750956 362.905211 
L 263.784114 364.866834 
L 265.817271 366.4916 
L 267.850428 367.766186 
L 269.883585 368.67754 
L 271.916743 369.21293 
L 273.9499 369.36 
L 275.983057 369.106836 
L 278.016214 368.442038 
L 280.049371 367.354798 
L 282.082529 365.83499 
L 284.115686 363.873274 
L 286.148843 361.461195 
L 288.182 358.591312 
L 290.215158 355.257324 
L 292.248315 351.454211 
L 294.281472 347.17839 
L 296.314629 342.427878 
L 298.347786 337.202468 
L 300.380944 331.503914 
L 302.414101 325.33613 
L 305.463837 315.219065 
L 308.513573 304.093199 
L 311.563308 292.005423 
L 314.613044 279.018884 
L 317.66278 265.214505 
L 321.729095 245.712273 
L 326.811988 219.996234 
L 341.044088 146.545381 
L 345.110403 127.318643 
L 348.160138 114.049101 
L 351.209874 102.028263 
L 353.243032 94.819609 
L 355.276189 88.328157 
L 357.309346 82.611249 
L 359.342503 77.720499 
L 361.37566 73.7009 
L 362.392239 72.029829 
L 363.408818 70.590008 
L 364.425396 69.384857 
L 365.441975 68.41725 
L 366.458553 67.689503 
L 367.475132 67.203363 
L 368.491711 66.96 
L 369.508289 66.96 
L 370.524868 67.203363 
L 371.541447 67.689503 
L 372.558025 68.41725 
L 373.574604 69.384857 
L 374.591182 70.590008 
L 375.607761 72.029829 
L 376.62434 73.7009 
L 378.657497 77.720499 
L 380.690654 82.611249 
L 382.723811 88.328157 
L 384.756968 94.819609 
L 386.790126 102.028263 
L 388.823283 109.89202 
L 391.873019 122.771123 
L 394.922755 136.742501 
L 398.989069 156.656136 
L 404.071962 182.822937 
L 414.237748 235.572566 
L 418.304063 255.605813 
L 422.370377 274.503761 
L 425.420113 287.772823 
L 428.469849 300.16805 
L 431.519585 311.620534 
L 434.56932 322.078138 
L 437.619056 331.503914 
L 439.652214 337.202468 
L 441.685371 342.427878 
L 443.718528 347.17839 
L 445.751685 351.454211 
L 447.784842 355.257324 
L 449.818 358.591312 
L 451.851157 361.461195 
L 453.884314 363.873274 
L 455.917471 365.83499 
L 457.950629 367.354798 
L 459.983786 368.442038 
L 462.016943 369.106836 
L 464.0501 369.36 
L 466.083257 369.21293 
L 468.116415 368.67754 
L 470.149572 367.766186 
L 472.182729 366.4916 
L 474.215886 364.866834 
L 476.249044 362.905211 
L 478.282201 360.620277 
L 480.315358 358.025764 
L 482.348515 355.135559 
L 484.381672 351.963666 
L 487.431408 346.708539 
L 490.481144 340.899265 
L 493.53088 334.583989 
L 496.580616 327.810994 
L 500.64693 318.151893 
L 504.713245 307.879623 
L 509.796138 294.351384 
L 515.895609 277.403027 
L 537.24376 217.324417 
L 542.326653 204.078562 
L 546.392968 194.096192 
L 550.459282 184.784507 
L 553.509018 178.310446 
L 556.558754 172.327767 
L 559.60849 166.885783 
L 562.658226 162.03408 
L 564.691383 159.152165 
L 566.72454 156.569615 
L 568.757697 154.301352 
L 570.790854 152.362365 
L 572.824012 150.767712 
L 574.857169 149.532524 
L 576.890326 148.672007 
L 578.923483 148.201442 
L 580.956641 148.136192 
L 582.989798 148.491698 
L 585.022955 149.283487 
L 587.056112 150.527168 
L 589.089269 152.238439 
L 591.122427 154.433085 
L 593.155584 157.126984 
L 595.188741 160.336103 
L 597.221898 164.076504 
L 599.255056 168.364344 
L 601.288213 173.215876 
L 603.32137 178.647453 
L 605.354527 184.675524 
L 607.387684 191.316642 
L 609.420842 198.587459 
L 611.453999 206.504733 
L 613.487156 215.085324 
L 615.520313 224.346198 
L 618.570049 239.550415 
L 621.619785 256.381782 
L 622.636364 262.363943 
L 622.636364 262.363943 
" clip-path="url(#pa988832252)" style="fill: none; stroke: #ffa500; stroke-width: 1.5; stroke-linecap: square"/>
   </g>
   <g id="patch_3">
    <path d="M 90 384.48 
L 90 51.84 
" style="fill: none; stroke: #000000; stroke-width: 0.8; stroke-linejoin: miter; stroke-linecap: square"/>
   </g>
   <g id="patch_4">
    <path d="M 648 384.48 
L 648 51.84 
" style="fill: none; stroke: #000000; stroke-width: 0.8; stroke-linejoin: miter; stroke-linecap: square"/>
   </g>
   <g id="patch_5">
    <path d="M 90 384.48 
L 648 384.48 
" style="fill: none; stroke: #000000; stroke-width: 0.8; stroke-linejoin: miter; stroke-linecap: square"/>
   </g>
   <g id="patch_6">
    <path d="M 90 51.84 
L 648 51.84 
" style="fill: none; stroke: #000000; stroke-width: 0.8; stroke-linejoin: miter; stroke-linecap: square"/>
   </g>
   <g id="text_17">
    <!-- Roznice interpolacji dla n=5 -->
    <g transform="translate(284.862188 45.84) scale(0.12 -0.12)">
     <defs>
      <path id="DejaVuSans-52" d="M 2841 2188 
Q 3044 2119 3236 1894 
Q 3428 1669 3622 1275 
L 4263 0 
L 3584 0 
L 2988 1197 
Q 2756 1666 2539 1819 
Q 2322 1972 1947 1972 
L 1259 1972 
L 1259 0 
L 628 0 
L 628 4666 
L 2053 4666 
Q 2853 4666 3247 4331 
Q 3641 3997 3641 3322 
Q 3641 2881 3436 2590 
Q 3231 2300 2841 2188 
z
M 1259 4147 
L 1259 2491 
L 2053 2491 
Q 2509 2491 2742 2702 
Q 2975 2913 2975 3322 
Q 2975 3731 2742 3939 
Q 2509 4147 2053 4147 
L 1259 4147 
z
" transform="scale(0.015625)"/>
      <path id="DejaVuSans-6f" d="M 1959 3097 
Q 1497 3097 1228 2736 
Q 959 2375 959 1747 
Q 959 1119 1226 758 
Q 1494 397 1959 397 
Q 2419 397 2687 759 
Q 2956 1122 2956 1747 
Q 2956 2369 2687 2733 
Q 2419 3097 1959 3097 
z
M 1959 3584 
Q 2709 3584 3137 3096 
Q 3566 2609 3566 1747 
Q 3566 888 3137 398 
Q 2709 -91 1959 -91 
Q 1206 -91 779 398 
Q 353 888 353 1747 
Q 353 2609 779 3096 
Q 1206 3584 1959 3584 
z
" transform="scale(0.015625)"/>
      <path id="DejaVuSans-7a" d="M 353 3500 
L 3084 3500 
L 3084 2975 
L 922 459 
L 3084 459 
L 3084 0 
L 275 0 
L 275 525 
L 2438 3041 
L 353 3041 
L 353 3500 
z
" transform="scale(0.015625)"/>
      <path id="DejaVuSans-6e" d="M 3513 2113 
L 3513 0 
L 2938 0 
L 2938 2094 
Q 2938 2591 2744 2837 
Q 2550 3084 2163 3084 
Q 1697 3084 1428 2787 
Q 1159 2491 1159 1978 
L 1159 0 
L 581 0 
L 581 3500 
L 1159 3500 
L 1159 2956 
Q 1366 3272 1645 3428 
Q 1925 3584 2291 3584 
Q 2894 3584 3203 3211 
Q 3513 2838 3513 2113 
z
" transform="scale(0.015625)"/>
      <path id="DejaVuSans-69" d="M 603 3500 
L 1178 3500 
L 1178 0 
L 603 0 
L 603 3500 
z
M 603 4863 
L 1178 4863 
L 1178 4134 
L 603 4134 
L 603 4863 
z
" transform="scale(0.015625)"/>
      <path id="DejaVuSans-63" d="M 3122 3366 
L 3122 2828 
Q 2878 2963 2633 3030 
Q 2388 3097 2138 3097 
Q 1578 3097 1268 2742 
Q 959 2388 959 1747 
Q 959 1106 1268 751 
Q 1578 397 2138 397 
Q 2388 397 2633 464 
Q 2878 531 3122 666 
L 3122 134 
Q 2881 22 2623 -34 
Q 2366 -91 2075 -91 
Q 1284 -91 818 406 
Q 353 903 353 1747 
Q 353 2603 823 3093 
Q 1294 3584 2113 3584 
Q 2378 3584 2631 3529 
Q 2884 3475 3122 3366 
z
" transform="scale(0.015625)"/>
      <path id="DejaVuSans-65" d="M 3597 1894 
L 3597 1613 
L 953 1613 
Q 991 1019 1311 708 
Q 1631 397 2203 397 
Q 2534 397 2845 478 
Q 3156 559 3463 722 
L 3463 178 
Q 3153 47 2828 -22 
Q 2503 -91 2169 -91 
Q 1331 -91 842 396 
Q 353 884 353 1716 
Q 353 2575 817 3079 
Q 1281 3584 2069 3584 
Q 2775 3584 3186 3129 
Q 3597 2675 3597 1894 
z
M 3022 2063 
Q 3016 2534 2758 2815 
Q 2500 3097 2075 3097 
Q 1594 3097 1305 2825 
Q 1016 2553 972 2059 
L 3022 2063 
z
" transform="scale(0.015625)"/>
      <path id="DejaVuSans-20" transform="scale(0.015625)"/>
      <path id="DejaVuSans-74" d="M 1172 4494 
L 1172 3500 
L 2356 3500 
L 2356 3053 
L 1172 3053 
L 1172 1153 
Q 1172 725 1289 603 
Q 1406 481 1766 481 
L 2356 481 
L 2356 0 
L 1766 0 
Q 1100 0 847 248 
Q 594 497 594 1153 
L 594 3053 
L 172 3053 
L 172 3500 
L 594 3500 
L 594 4494 
L 1172 4494 
z
" transform="scale(0.015625)"/>
      <path id="DejaVuSans-72" d="M 2631 2963 
Q 2534 3019 2420 3045 
Q 2306 3072 2169 3072 
Q 1681 3072 1420 2755 
Q 1159 2438 1159 1844 
L 1159 0 
L 581 0 
L 581 3500 
L 1159 3500 
L 1159 2956 
Q 1341 3275 1631 3429 
Q 1922 3584 2338 3584 
Q 2397 3584 2469 3576 
Q 2541 3569 2628 3553 
L 2631 2963 
z
" transform="scale(0.015625)"/>
      <path id="DejaVuSans-70" d="M 1159 525 
L 1159 -1331 
L 581 -1331 
L 581 3500 
L 1159 3500 
L 1159 2969 
Q 1341 3281 1617 3432 
Q 1894 3584 2278 3584 
Q 2916 3584 3314 3078 
Q 3713 2572 3713 1747 
Q 3713 922 3314 415 
Q 2916 -91 2278 -91 
Q 1894 -91 1617 61 
Q 1341 213 1159 525 
z
M 3116 1747 
Q 3116 2381 2855 2742 
Q 2594 3103 2138 3103 
Q 1681 3103 1420 2742 
Q 1159 2381 1159 1747 
Q 1159 1113 1420 752 
Q 1681 391 2138 391 
Q 2594 391 2855 752 
Q 3116 1113 3116 1747 
z
" transform="scale(0.015625)"/>
      <path id="DejaVuSans-6c" d="M 603 4863 
L 1178 4863 
L 1178 0 
L 603 0 
L 603 4863 
z
" transform="scale(0.015625)"/>
      <path id="DejaVuSans-61" d="M 2194 1759 
Q 1497 1759 1228 1600 
Q 959 1441 959 1056 
Q 959 750 1161 570 
Q 1363 391 1709 391 
Q 2188 391 2477 730 
Q 2766 1069 2766 1631 
L 2766 1759 
L 2194 1759 
z
M 3341 1997 
L 3341 0 
L 2766 0 
L 2766 531 
Q 2569 213 2275 61 
Q 1981 -91 1556 -91 
Q 1019 -91 701 211 
Q 384 513 384 1019 
Q 384 1609 779 1909 
Q 1175 2209 1959 2209 
L 2766 2209 
L 2766 2266 
Q 2766 2663 2505 2880 
Q 2244 3097 1772 3097 
Q 1472 3097 1187 3025 
Q 903 2953 641 2809 
L 641 3341 
Q 956 3463 1253 3523 
Q 1550 3584 1831 3584 
Q 2591 3584 2966 3190 
Q 3341 2797 3341 1997 
z
" transform="scale(0.015625)"/>
      <path id="DejaVuSans-6a" d="M 603 3500 
L 1178 3500 
L 1178 -63 
Q 1178 -731 923 -1031 
Q 669 -1331 103 -1331 
L -116 -1331 
L -116 -844 
L 38 -844 
Q 366 -844 484 -692 
Q 603 -541 603 -63 
L 603 3500 
z
M 603 4863 
L 1178 4863 
L 1178 4134 
L 603 4134 
L 603 4863 
z
" transform="scale(0.015625)"/>
      <path id="DejaVuSans-64" d="M 2906 2969 
L 2906 4863 
L 3481 4863 
L 3481 0 
L 2906 0 
L 2906 525 
Q 2725 213 2448 61 
Q 2172 -91 1784 -91 
Q 1150 -91 751 415 
Q 353 922 353 1747 
Q 353 2572 751 3078 
Q 1150 3584 1784 3584 
Q 2172 3584 2448 3432 
Q 2725 3281 2906 2969 
z
M 947 1747 
Q 947 1113 1208 752 
Q 1469 391 1925 391 
Q 2381 391 2643 752 
Q 2906 1113 2906 1747 
Q 2906 2381 2643 2742 
Q 2381 3103 1925 3103 
Q 1469 3103 1208 2742 
Q 947 2381 947 1747 
z
" transform="scale(0.015625)"/>
      <path id="DejaVuSans-3d" d="M 678 2906 
L 4684 2906 
L 4684 2381 
L 678 2381 
L 678 2906 
z
M 678 1631 
L 4684 1631 
L 4684 1100 
L 678 1100 
L 678 1631 
z
" transform="scale(0.015625)"/>
     </defs>
     <use xlink:href="#DejaVuSans-52"/>
     <use xlink:href="#DejaVuSans-6f" x="64.982422"/>
     <use xlink:href="#DejaVuSans-7a" x="126.164062"/>
     <use xlink:href="#DejaVuSans-6e" x="178.654297"/>
     <use xlink:href="#DejaVuSans-69" x="242.033203"/>
     <use xlink:href="#DejaVuSans-63" x="269.816406"/>
     <use xlink:href="#DejaVuSans-65" x="324.796875"/>
     <use xlink:href="#DejaVuSans-20" x="386.320312"/>
     <use xlink:href="#DejaVuSans-69" x="418.107422"/>
     <use xlink:href="#DejaVuSans-6e" x="445.890625"/>
     <use xlink:href="#DejaVuSans-74" x="509.269531"/>
     <use xlink:href="#DejaVuSans-65" x="548.478516"/>
     <use xlink:href="#DejaVuSans-72" x="610.001953"/>
     <use xlink:href="#DejaVuSans-70" x="651.115234"/>
     <use xlink:href="#DejaVuSans-6f" x="714.591797"/>
     <use xlink:href="#DejaVuSans-6c" x="775.773438"/>
     <use xlink:href="#DejaVuSans-61" x="803.556641"/>
     <use xlink:href="#DejaVuSans-63" x="864.835938"/>
     <use xlink:href="#DejaVuSans-6a" x="919.816406"/>
     <use xlink:href="#DejaVuSans-69" x="947.599609"/>
     <use xlink:href="#DejaVuSans-20" x="975.382812"/>
     <use xlink:href="#DejaVuSans-64" x="1007.169922"/>
     <use xlink:href="#DejaVuSans-6c" x="1070.646484"/>
     <use xlink:href="#DejaVuSans-61" x="1098.429688"/>
     <use xlink:href="#DejaVuSans-20" x="1159.708984"/>
     <use xlink:href="#DejaVuSans-6e" x="1191.496094"/>
     <use xlink:href="#DejaVuSans-3d" x="1254.875"/>
     <use xlink:href="#DejaVuSans-35" x="1338.664062"/>
    </g>
   </g>
   <g id="legend_1">
    <g id="patch_7">
     <path d="M 548.7 89.24 
L 641 89.24 
Q 643 89.24 643 87.24 
L 643 58.84 
Q 643 56.84 641 56.84 
L 548.7 56.84 
Q 546.7 56.84 546.7 58.84 
L 546.7 87.24 
Q 546.7 89.24 548.7 89.24 
z
" style="fill: #ffffff; opacity: 0.8; stroke: #cccccc; stroke-linejoin: miter"/>
    </g>
    <g id="line2d_35">
     <path d="M 550.7 64.94 
L 560.7 64.94 
L 570.7 64.94 
" style="fill: none; stroke: #800080; stroke-width: 1.5; stroke-linecap: square"/>
    </g>
    <g id="text_18">
     <!-- $y(x) - s(x)$ -->
     <g transform="translate(578.7 68.44) scale(0.1 -0.1)">
      <defs>
       <path id="DejaVuSans-Oblique-79" d="M 1588 -325 
Q 1188 -997 936 -1164 
Q 684 -1331 294 -1331 
L -159 -1331 
L -63 -850 
L 269 -850 
Q 509 -850 678 -719 
Q 847 -588 1056 -206 
L 1234 128 
L 459 3500 
L 1069 3500 
L 1650 819 
L 3256 3500 
L 3859 3500 
L 1588 -325 
z
" transform="scale(0.015625)"/>
       <path id="DejaVuSans-28" d="M 1984 4856 
Q 1566 4138 1362 3434 
Q 1159 2731 1159 2009 
Q 1159 1288 1364 580 
Q 1569 -128 1984 -844 
L 1484 -844 
Q 1016 -109 783 600 
Q 550 1309 550 2009 
Q 550 2706 781 3412 
Q 1013 4119 1484 4856 
L 1984 4856 
z
" transform="scale(0.015625)"/>
       <path id="DejaVuSans-Oblique-78" d="M 3841 3500 
L 2234 1784 
L 3219 0 
L 2559 0 
L 1819 1388 
L 531 0 
L -166 0 
L 1556 1844 
L 641 3500 
L 1300 3500 
L 1972 2234 
L 3144 3500 
L 3841 3500 
z
" transform="scale(0.015625)"/>
       <path id="DejaVuSans-29" d="M 513 4856 
L 1013 4856 
Q 1481 4119 1714 3412 
Q 1947 2706 1947 2009 
Q 1947 1309 1714 600 
Q 1481 -109 1013 -844 
L 513 -844 
Q 928 -128 1133 580 
Q 1338 1288 1338 2009 
Q 1338 2731 1133 3434 
Q 928 4138 513 4856 
z
" transform="scale(0.015625)"/>
       <path id="DejaVuSans-Oblique-73" d="M 3200 3397 
L 3091 2853 
Q 2863 2978 2609 3040 
Q 2356 3103 2088 3103 
Q 1634 3103 1373 2948 
Q 1113 2794 1113 2528 
Q 1113 2219 1719 2053 
Q 1766 2041 1788 2034 
L 1972 1978 
Q 2547 1819 2739 1644 
Q 2931 1469 2931 1166 
Q 2931 609 2489 259 
Q 2047 -91 1331 -91 
Q 1053 -91 747 -37 
Q 441 16 72 128 
L 184 722 
Q 500 559 806 475 
Q 1113 391 1394 391 
Q 1816 391 2080 572 
Q 2344 753 2344 1031 
Q 2344 1331 1650 1516 
L 1591 1531 
L 1394 1581 
Q 956 1697 753 1886 
Q 550 2075 550 2369 
Q 550 2928 970 3256 
Q 1391 3584 2113 3584 
Q 2397 3584 2667 3537 
Q 2938 3491 3200 3397 
z
" transform="scale(0.015625)"/>
      </defs>
      <use xlink:href="#DejaVuSans-Oblique-79" transform="translate(0 0.125)"/>
      <use xlink:href="#DejaVuSans-28" transform="translate(59.179688 0.125)"/>
      <use xlink:href="#DejaVuSans-Oblique-78" transform="translate(98.193359 0.125)"/>
      <use xlink:href="#DejaVuSans-29" transform="translate(157.373047 0.125)"/>
      <use xlink:href="#DejaVuSans-2212" transform="translate(215.869141 0.125)"/>
      <use xlink:href="#DejaVuSans-Oblique-73" transform="translate(319.140625 0.125)"/>
      <use xlink:href="#DejaVuSans-28" transform="translate(371.240234 0.125)"/>
      <use xlink:href="#DejaVuSans-Oblique-78" transform="translate(410.253906 0.125)"/>
      <use xlink:href="#DejaVuSans-29" transform="translate(469.433594 0.125)"/>
     </g>
    </g>
    <g id="line2d_36">
     <path d="M 550.7 79.64 
L 560.7 79.64 
L 570.7 79.64 
" style="fill: none; stroke: #ffa500; stroke-width: 1.5; stroke-linecap: square"/>
    </g>
    <g id="text_19">
     <!-- $y(x) - W_n(x)$ -->
     <g transform="translate(578.7 83.14) scale(0.1 -0.1)">
      <defs>
       <path id="DejaVuSans-Oblique-57" d="M 616 4666 
L 1228 4666 
L 1453 697 
L 3213 4666 
L 3916 4666 
L 4147 697 
L 5888 4666 
L 6528 4666 
L 4453 0 
L 3659 0 
L 3444 3891 
L 1697 0 
L 903 0 
L 616 4666 
z
" transform="scale(0.015625)"/>
       <path id="DejaVuSans-Oblique-6e" d="M 3566 2113 
L 3156 0 
L 2578 0 
L 2988 2091 
Q 3016 2238 3031 2350 
Q 3047 2463 3047 2528 
Q 3047 2791 2881 2937 
Q 2716 3084 2419 3084 
Q 1956 3084 1622 2776 
Q 1288 2469 1184 1941 
L 800 0 
L 225 0 
L 903 3500 
L 1478 3500 
L 1363 2950 
Q 1603 3253 1940 3418 
Q 2278 3584 2650 3584 
Q 3113 3584 3367 3334 
Q 3622 3084 3622 2631 
Q 3622 2519 3608 2391 
Q 3594 2263 3566 2113 
z
" transform="scale(0.015625)"/>
      </defs>
      <use xlink:href="#DejaVuSans-Oblique-79" transform="translate(0 0.125)"/>
      <use xlink:href="#DejaVuSans-28" transform="translate(59.179688 0.125)"/>
      <use xlink:href="#DejaVuSans-Oblique-78" transform="translate(98.193359 0.125)"/>
      <use xlink:href="#DejaVuSans-29" transform="translate(157.373047 0.125)"/>
      <use xlink:href="#DejaVuSans-2212" transform="translate(215.869141 0.125)"/>
      <use xlink:href="#DejaVuSans-Oblique-57" transform="translate(319.140625 0.125)"/>
      <use xlink:href="#DejaVuSans-Oblique-6e" transform="translate(418.017578 -16.28125) scale(0.7)"/>
      <use xlink:href="#DejaVuSans-28" transform="translate(465.117188 0.125)"/>
      <use xlink:href="#DejaVuSans-Oblique-78" transform="translate(504.130859 0.125)"/>
      <use xlink:href="#DejaVuSans-29" transform="translate(563.310547 0.125)"/>
     </g>
    </g>
   </g>
  </g>
 </g>
 <defs>
  <clipPath id="pa988832252">
   <rect x="90" y="51.84" width="558" height="332.64"/>
  </clipPath>
 </defs>
</svg>
