<?xml version="1.0" encoding="utf-8" standalone="no"?>
<!DOCTYPE svg PUBLIC "-//W3C//DTD SVG 1.1//EN"
  "http://www.w3.org/Graphics/SVG/1.1/DTD/svg11.dtd">
<svg xmlns:xlink="http://www.w3.org/1999/xlink" width="720pt" height="432pt" viewBox="0 0 720 432" xmlns="http://www.w3.org/2000/svg" version="1.1">
 <metadata>
  <rdf:RDF xmlns:dc="http://purl.org/dc/elements/1.1/" xmlns:cc="http://creativecommons.org/ns#" xmlns:rdf="http://www.w3.org/1999/02/22-rdf-syntax-ns#">
   <cc:Work>
    <dc:type rdf:resource="http://purl.org/dc/dcmitype/StillImage"/>
    <dc:date>2024-12-19T13:32:54.745451</dc:date>
    <dc:format>image/svg+xml</dc:format>
    <dc:creator>
     <cc:Agent>
      <dc:title>Matplotlib v3.9.2, https://matplotlib.org/</dc:title>
     </cc:Agent>
    </dc:creator>
   </cc:Work>
  </rdf:RDF>
 </metadata>
 <defs>
  <style type="text/css">*{stroke-linejoin: round; stroke-linecap: butt}</style>
 </defs>
 <g id="figure_1">
  <g id="patch_1">
   <path d="M 0 432 
L 720 432 
L 720 0 
L 0 0 
z
" style="fill: #ffffff"/>
  </g>
  <g id="axes_1">
   <g id="patch_2">
    <path d="M 90 384.48 
L 648 384.48 
L 648 51.84 
L 90 51.84 
z
" style="fill: #ffffff"/>
   </g>
   <g id="PathCollection_1">
    <defs>
     <path id="mee9c596185" d="M 0 3 
C 0.795609 3 1.55874 2.683901 2.12132 2.12132 
C 2.683901 1.55874 3 0.795609 3 0 
C 3 -0.795609 2.683901 -1.55874 2.12132 -2.12132 
C 1.55874 -2.683901 0.795609 -3 0 -3 
C -0.795609 -3 -1.55874 -2.683901 -2.12132 -2.12132 
C -2.683901 -1.55874 -3 -0.795609 -3 0 
C -3 0.795609 -2.683901 1.55874 -2.12132 2.12132 
C -1.55874 2.683901 -0.795609 3 0 3 
z
" style="stroke: #ff0000"/>
    </defs>
    <g clip-path="url(#p35a93a8f77)">
     <use xlink:href="#mee9c596185" x="115.363636" y="218.16" style="fill: #ff0000; stroke: #ff0000"/>
     <use xlink:href="#mee9c596185" x="166.090909" y="74.468054" style="fill: #ff0000; stroke: #ff0000"/>
     <use xlink:href="#mee9c596185" x="216.818182" y="129.353493" style="fill: #ff0000; stroke: #ff0000"/>
     <use xlink:href="#mee9c596185" x="267.545455" y="306.966507" style="fill: #ff0000; stroke: #ff0000"/>
     <use xlink:href="#mee9c596185" x="318.272727" y="361.851946" style="fill: #ff0000; stroke: #ff0000"/>
     <use xlink:href="#mee9c596185" x="369" y="218.16" style="fill: #ff0000; stroke: #ff0000"/>
     <use xlink:href="#mee9c596185" x="419.727273" y="74.468054" style="fill: #ff0000; stroke: #ff0000"/>
     <use xlink:href="#mee9c596185" x="470.454545" y="129.353493" style="fill: #ff0000; stroke: #ff0000"/>
     <use xlink:href="#mee9c596185" x="521.181818" y="306.966507" style="fill: #ff0000; stroke: #ff0000"/>
     <use xlink:href="#mee9c596185" x="571.909091" y="361.851946" style="fill: #ff0000; stroke: #ff0000"/>
     <use xlink:href="#mee9c596185" x="622.636364" y="218.16" style="fill: #ff0000; stroke: #ff0000"/>
    </g>
   </g>
   <g id="matplotlib.axis_1">
    <g id="xtick_1">
     <g id="line2d_1">
      <path d="M 115.363636 384.48 
L 115.363636 51.84 
" clip-path="url(#p35a93a8f77)" style="fill: none; stroke: #b0b0b0; stroke-width: 0.8; stroke-linecap: square"/>
     </g>
     <g id="line2d_2">
      <defs>
       <path id="ma71d7a6eab" d="M 0 0 
L 0 3.5 
" style="stroke: #000000; stroke-width: 0.8"/>
      </defs>
      <g>
       <use xlink:href="#ma71d7a6eab" x="115.363636" y="384.48" style="stroke: #000000; stroke-width: 0.8"/>
      </g>
     </g>
     <g id="text_1">
      <!-- −1.00 -->
      <g transform="translate(100.04098 399.078438) scale(0.1 -0.1)">
       <defs>
        <path id="DejaVuSans-2212" d="M 678 2272 
L 4684 2272 
L 4684 1741 
L 678 1741 
L 678 2272 
z
" transform="scale(0.015625)"/>
        <path id="DejaVuSans-31" d="M 794 531 
L 1825 531 
L 1825 4091 
L 703 3866 
L 703 4441 
L 1819 4666 
L 2450 4666 
L 2450 531 
L 3481 531 
L 3481 0 
L 794 0 
L 794 531 
z
" transform="scale(0.015625)"/>
        <path id="DejaVuSans-2e" d="M 684 794 
L 1344 794 
L 1344 0 
L 684 0 
L 684 794 
z
" transform="scale(0.015625)"/>
        <path id="DejaVuSans-30" d="M 2034 4250 
Q 1547 4250 1301 3770 
Q 1056 3291 1056 2328 
Q 1056 1369 1301 889 
Q 1547 409 2034 409 
Q 2525 409 2770 889 
Q 3016 1369 3016 2328 
Q 3016 3291 2770 3770 
Q 2525 4250 2034 4250 
z
M 2034 4750 
Q 2819 4750 3233 4129 
Q 3647 3509 3647 2328 
Q 3647 1150 3233 529 
Q 2819 -91 2034 -91 
Q 1250 -91 836 529 
Q 422 1150 422 2328 
Q 422 3509 836 4129 
Q 1250 4750 2034 4750 
z
" transform="scale(0.015625)"/>
       </defs>
       <use xlink:href="#DejaVuSans-2212"/>
       <use xlink:href="#DejaVuSans-31" x="83.789062"/>
       <use xlink:href="#DejaVuSans-2e" x="147.412109"/>
       <use xlink:href="#DejaVuSans-30" x="179.199219"/>
       <use xlink:href="#DejaVuSans-30" x="242.822266"/>
      </g>
     </g>
    </g>
    <g id="xtick_2">
     <g id="line2d_3">
      <path d="M 178.772727 384.48 
L 178.772727 51.84 
" clip-path="url(#p35a93a8f77)" style="fill: none; stroke: #b0b0b0; stroke-width: 0.8; stroke-linecap: square"/>
     </g>
     <g id="line2d_4">
      <g>
       <use xlink:href="#ma71d7a6eab" x="178.772727" y="384.48" style="stroke: #000000; stroke-width: 0.8"/>
      </g>
     </g>
     <g id="text_2">
      <!-- −0.75 -->
      <g transform="translate(163.450071 399.078438) scale(0.1 -0.1)">
       <defs>
        <path id="DejaVuSans-37" d="M 525 4666 
L 3525 4666 
L 3525 4397 
L 1831 0 
L 1172 0 
L 2766 4134 
L 525 4134 
L 525 4666 
z
" transform="scale(0.015625)"/>
        <path id="DejaVuSans-35" d="M 691 4666 
L 3169 4666 
L 3169 4134 
L 1269 4134 
L 1269 2991 
Q 1406 3038 1543 3061 
Q 1681 3084 1819 3084 
Q 2600 3084 3056 2656 
Q 3513 2228 3513 1497 
Q 3513 744 3044 326 
Q 2575 -91 1722 -91 
Q 1428 -91 1123 -41 
Q 819 9 494 109 
L 494 744 
Q 775 591 1075 516 
Q 1375 441 1709 441 
Q 2250 441 2565 725 
Q 2881 1009 2881 1497 
Q 2881 1984 2565 2268 
Q 2250 2553 1709 2553 
Q 1456 2553 1204 2497 
Q 953 2441 691 2322 
L 691 4666 
z
" transform="scale(0.015625)"/>
       </defs>
       <use xlink:href="#DejaVuSans-2212"/>
       <use xlink:href="#DejaVuSans-30" x="83.789062"/>
       <use xlink:href="#DejaVuSans-2e" x="147.412109"/>
       <use xlink:href="#DejaVuSans-37" x="179.199219"/>
       <use xlink:href="#DejaVuSans-35" x="242.822266"/>
      </g>
     </g>
    </g>
    <g id="xtick_3">
     <g id="line2d_5">
      <path d="M 242.181818 384.48 
L 242.181818 51.84 
" clip-path="url(#p35a93a8f77)" style="fill: none; stroke: #b0b0b0; stroke-width: 0.8; stroke-linecap: square"/>
     </g>
     <g id="line2d_6">
      <g>
       <use xlink:href="#ma71d7a6eab" x="242.181818" y="384.48" style="stroke: #000000; stroke-width: 0.8"/>
      </g>
     </g>
     <g id="text_3">
      <!-- −0.50 -->
      <g transform="translate(226.859162 399.078438) scale(0.1 -0.1)">
       <use xlink:href="#DejaVuSans-2212"/>
       <use xlink:href="#DejaVuSans-30" x="83.789062"/>
       <use xlink:href="#DejaVuSans-2e" x="147.412109"/>
       <use xlink:href="#DejaVuSans-35" x="179.199219"/>
       <use xlink:href="#DejaVuSans-30" x="242.822266"/>
      </g>
     </g>
    </g>
    <g id="xtick_4">
     <g id="line2d_7">
      <path d="M 305.590909 384.48 
L 305.590909 51.84 
" clip-path="url(#p35a93a8f77)" style="fill: none; stroke: #b0b0b0; stroke-width: 0.8; stroke-linecap: square"/>
     </g>
     <g id="line2d_8">
      <g>
       <use xlink:href="#ma71d7a6eab" x="305.590909" y="384.48" style="stroke: #000000; stroke-width: 0.8"/>
      </g>
     </g>
     <g id="text_4">
      <!-- −0.25 -->
      <g transform="translate(290.268253 399.078438) scale(0.1 -0.1)">
       <defs>
        <path id="DejaVuSans-32" d="M 1228 531 
L 3431 531 
L 3431 0 
L 469 0 
L 469 531 
Q 828 903 1448 1529 
Q 2069 2156 2228 2338 
Q 2531 2678 2651 2914 
Q 2772 3150 2772 3378 
Q 2772 3750 2511 3984 
Q 2250 4219 1831 4219 
Q 1534 4219 1204 4116 
Q 875 4013 500 3803 
L 500 4441 
Q 881 4594 1212 4672 
Q 1544 4750 1819 4750 
Q 2544 4750 2975 4387 
Q 3406 4025 3406 3419 
Q 3406 3131 3298 2873 
Q 3191 2616 2906 2266 
Q 2828 2175 2409 1742 
Q 1991 1309 1228 531 
z
" transform="scale(0.015625)"/>
       </defs>
       <use xlink:href="#DejaVuSans-2212"/>
       <use xlink:href="#DejaVuSans-30" x="83.789062"/>
       <use xlink:href="#DejaVuSans-2e" x="147.412109"/>
       <use xlink:href="#DejaVuSans-32" x="179.199219"/>
       <use xlink:href="#DejaVuSans-35" x="242.822266"/>
      </g>
     </g>
    </g>
    <g id="xtick_5">
     <g id="line2d_9">
      <path d="M 369 384.48 
L 369 51.84 
" clip-path="url(#p35a93a8f77)" style="fill: none; stroke: #b0b0b0; stroke-width: 0.8; stroke-linecap: square"/>
     </g>
     <g id="line2d_10">
      <g>
       <use xlink:href="#ma71d7a6eab" x="369" y="384.48" style="stroke: #000000; stroke-width: 0.8"/>
      </g>
     </g>
     <g id="text_5">
      <!-- 0.00 -->
      <g transform="translate(357.867188 399.078438) scale(0.1 -0.1)">
       <use xlink:href="#DejaVuSans-30"/>
       <use xlink:href="#DejaVuSans-2e" x="63.623047"/>
       <use xlink:href="#DejaVuSans-30" x="95.410156"/>
       <use xlink:href="#DejaVuSans-30" x="159.033203"/>
      </g>
     </g>
    </g>
    <g id="xtick_6">
     <g id="line2d_11">
      <path d="M 432.409091 384.48 
L 432.409091 51.84 
" clip-path="url(#p35a93a8f77)" style="fill: none; stroke: #b0b0b0; stroke-width: 0.8; stroke-linecap: square"/>
     </g>
     <g id="line2d_12">
      <g>
       <use xlink:href="#ma71d7a6eab" x="432.409091" y="384.48" style="stroke: #000000; stroke-width: 0.8"/>
      </g>
     </g>
     <g id="text_6">
      <!-- 0.25 -->
      <g transform="translate(421.276278 399.078438) scale(0.1 -0.1)">
       <use xlink:href="#DejaVuSans-30"/>
       <use xlink:href="#DejaVuSans-2e" x="63.623047"/>
       <use xlink:href="#DejaVuSans-32" x="95.410156"/>
       <use xlink:href="#DejaVuSans-35" x="159.033203"/>
      </g>
     </g>
    </g>
    <g id="xtick_7">
     <g id="line2d_13">
      <path d="M 495.818182 384.48 
L 495.818182 51.84 
" clip-path="url(#p35a93a8f77)" style="fill: none; stroke: #b0b0b0; stroke-width: 0.8; stroke-linecap: square"/>
     </g>
     <g id="line2d_14">
      <g>
       <use xlink:href="#ma71d7a6eab" x="495.818182" y="384.48" style="stroke: #000000; stroke-width: 0.8"/>
      </g>
     </g>
     <g id="text_7">
      <!-- 0.50 -->
      <g transform="translate(484.685369 399.078438) scale(0.1 -0.1)">
       <use xlink:href="#DejaVuSans-30"/>
       <use xlink:href="#DejaVuSans-2e" x="63.623047"/>
       <use xlink:href="#DejaVuSans-35" x="95.410156"/>
       <use xlink:href="#DejaVuSans-30" x="159.033203"/>
      </g>
     </g>
    </g>
    <g id="xtick_8">
     <g id="line2d_15">
      <path d="M 559.227273 384.48 
L 559.227273 51.84 
" clip-path="url(#p35a93a8f77)" style="fill: none; stroke: #b0b0b0; stroke-width: 0.8; stroke-linecap: square"/>
     </g>
     <g id="line2d_16">
      <g>
       <use xlink:href="#ma71d7a6eab" x="559.227273" y="384.48" style="stroke: #000000; stroke-width: 0.8"/>
      </g>
     </g>
     <g id="text_8">
      <!-- 0.75 -->
      <g transform="translate(548.09446 399.078438) scale(0.1 -0.1)">
       <use xlink:href="#DejaVuSans-30"/>
       <use xlink:href="#DejaVuSans-2e" x="63.623047"/>
       <use xlink:href="#DejaVuSans-37" x="95.410156"/>
       <use xlink:href="#DejaVuSans-35" x="159.033203"/>
      </g>
     </g>
    </g>
    <g id="xtick_9">
     <g id="line2d_17">
      <path d="M 622.636364 384.48 
L 622.636364 51.84 
" clip-path="url(#p35a93a8f77)" style="fill: none; stroke: #b0b0b0; stroke-width: 0.8; stroke-linecap: square"/>
     </g>
     <g id="line2d_18">
      <g>
       <use xlink:href="#ma71d7a6eab" x="622.636364" y="384.48" style="stroke: #000000; stroke-width: 0.8"/>
      </g>
     </g>
     <g id="text_9">
      <!-- 1.00 -->
      <g transform="translate(611.503551 399.078438) scale(0.1 -0.1)">
       <use xlink:href="#DejaVuSans-31"/>
       <use xlink:href="#DejaVuSans-2e" x="63.623047"/>
       <use xlink:href="#DejaVuSans-30" x="95.410156"/>
       <use xlink:href="#DejaVuSans-30" x="159.033203"/>
      </g>
     </g>
    </g>
   </g>
   <g id="matplotlib.axis_2">
    <g id="ytick_1">
     <g id="line2d_19">
      <path d="M 90 369.246654 
L 648 369.246654 
" clip-path="url(#p35a93a8f77)" style="fill: none; stroke: #b0b0b0; stroke-width: 0.8; stroke-linecap: square"/>
     </g>
     <g id="line2d_20">
      <defs>
       <path id="m8ff20d525f" d="M 0 0 
L -3.5 0 
" style="stroke: #000000; stroke-width: 0.8"/>
      </defs>
      <g>
       <use xlink:href="#m8ff20d525f" x="90" y="369.246654" style="stroke: #000000; stroke-width: 0.8"/>
      </g>
     </g>
     <g id="text_10">
      <!-- −1.00 -->
      <g transform="translate(52.354687 373.045872) scale(0.1 -0.1)">
       <use xlink:href="#DejaVuSans-2212"/>
       <use xlink:href="#DejaVuSans-31" x="83.789062"/>
       <use xlink:href="#DejaVuSans-2e" x="147.412109"/>
       <use xlink:href="#DejaVuSans-30" x="179.199219"/>
       <use xlink:href="#DejaVuSans-30" x="242.822266"/>
      </g>
     </g>
    </g>
    <g id="ytick_2">
     <g id="line2d_21">
      <path d="M 90 331.47499 
L 648 331.47499 
" clip-path="url(#p35a93a8f77)" style="fill: none; stroke: #b0b0b0; stroke-width: 0.8; stroke-linecap: square"/>
     </g>
     <g id="line2d_22">
      <g>
       <use xlink:href="#m8ff20d525f" x="90" y="331.47499" style="stroke: #000000; stroke-width: 0.8"/>
      </g>
     </g>
     <g id="text_11">
      <!-- −0.75 -->
      <g transform="translate(52.354687 335.274209) scale(0.1 -0.1)">
       <use xlink:href="#DejaVuSans-2212"/>
       <use xlink:href="#DejaVuSans-30" x="83.789062"/>
       <use xlink:href="#DejaVuSans-2e" x="147.412109"/>
       <use xlink:href="#DejaVuSans-37" x="179.199219"/>
       <use xlink:href="#DejaVuSans-35" x="242.822266"/>
      </g>
     </g>
    </g>
    <g id="ytick_3">
     <g id="line2d_23">
      <path d="M 90 293.703327 
L 648 293.703327 
" clip-path="url(#p35a93a8f77)" style="fill: none; stroke: #b0b0b0; stroke-width: 0.8; stroke-linecap: square"/>
     </g>
     <g id="line2d_24">
      <g>
       <use xlink:href="#m8ff20d525f" x="90" y="293.703327" style="stroke: #000000; stroke-width: 0.8"/>
      </g>
     </g>
     <g id="text_12">
      <!-- −0.50 -->
      <g transform="translate(52.354687 297.502546) scale(0.1 -0.1)">
       <use xlink:href="#DejaVuSans-2212"/>
       <use xlink:href="#DejaVuSans-30" x="83.789062"/>
       <use xlink:href="#DejaVuSans-2e" x="147.412109"/>
       <use xlink:href="#DejaVuSans-35" x="179.199219"/>
       <use xlink:href="#DejaVuSans-30" x="242.822266"/>
      </g>
     </g>
    </g>
    <g id="ytick_4">
     <g id="line2d_25">
      <path d="M 90 255.931663 
L 648 255.931663 
" clip-path="url(#p35a93a8f77)" style="fill: none; stroke: #b0b0b0; stroke-width: 0.8; stroke-linecap: square"/>
     </g>
     <g id="line2d_26">
      <g>
       <use xlink:href="#m8ff20d525f" x="90" y="255.931663" style="stroke: #000000; stroke-width: 0.8"/>
      </g>
     </g>
     <g id="text_13">
      <!-- −0.25 -->
      <g transform="translate(52.354687 259.730882) scale(0.1 -0.1)">
       <use xlink:href="#DejaVuSans-2212"/>
       <use xlink:href="#DejaVuSans-30" x="83.789062"/>
       <use xlink:href="#DejaVuSans-2e" x="147.412109"/>
       <use xlink:href="#DejaVuSans-32" x="179.199219"/>
       <use xlink:href="#DejaVuSans-35" x="242.822266"/>
      </g>
     </g>
    </g>
    <g id="ytick_5">
     <g id="line2d_27">
      <path d="M 90 218.16 
L 648 218.16 
" clip-path="url(#p35a93a8f77)" style="fill: none; stroke: #b0b0b0; stroke-width: 0.8; stroke-linecap: square"/>
     </g>
     <g id="line2d_28">
      <g>
       <use xlink:href="#m8ff20d525f" x="90" y="218.16" style="stroke: #000000; stroke-width: 0.8"/>
      </g>
     </g>
     <g id="text_14">
      <!-- 0.00 -->
      <g transform="translate(60.734375 221.959219) scale(0.1 -0.1)">
       <use xlink:href="#DejaVuSans-30"/>
       <use xlink:href="#DejaVuSans-2e" x="63.623047"/>
       <use xlink:href="#DejaVuSans-30" x="95.410156"/>
       <use xlink:href="#DejaVuSans-30" x="159.033203"/>
      </g>
     </g>
    </g>
    <g id="ytick_6">
     <g id="line2d_29">
      <path d="M 90 180.388337 
L 648 180.388337 
" clip-path="url(#p35a93a8f77)" style="fill: none; stroke: #b0b0b0; stroke-width: 0.8; stroke-linecap: square"/>
     </g>
     <g id="line2d_30">
      <g>
       <use xlink:href="#m8ff20d525f" x="90" y="180.388337" style="stroke: #000000; stroke-width: 0.8"/>
      </g>
     </g>
     <g id="text_15">
      <!-- 0.25 -->
      <g transform="translate(60.734375 184.187555) scale(0.1 -0.1)">
       <use xlink:href="#DejaVuSans-30"/>
       <use xlink:href="#DejaVuSans-2e" x="63.623047"/>
       <use xlink:href="#DejaVuSans-32" x="95.410156"/>
       <use xlink:href="#DejaVuSans-35" x="159.033203"/>
      </g>
     </g>
    </g>
    <g id="ytick_7">
     <g id="line2d_31">
      <path d="M 90 142.616673 
L 648 142.616673 
" clip-path="url(#p35a93a8f77)" style="fill: none; stroke: #b0b0b0; stroke-width: 0.8; stroke-linecap: square"/>
     </g>
     <g id="line2d_32">
      <g>
       <use xlink:href="#m8ff20d525f" x="90" y="142.616673" style="stroke: #000000; stroke-width: 0.8"/>
      </g>
     </g>
     <g id="text_16">
      <!-- 0.50 -->
      <g transform="translate(60.734375 146.415892) scale(0.1 -0.1)">
       <use xlink:href="#DejaVuSans-30"/>
       <use xlink:href="#DejaVuSans-2e" x="63.623047"/>
       <use xlink:href="#DejaVuSans-35" x="95.410156"/>
       <use xlink:href="#DejaVuSans-30" x="159.033203"/>
      </g>
     </g>
    </g>
    <g id="ytick_8">
     <g id="line2d_33">
      <path d="M 90 104.84501 
L 648 104.84501 
" clip-path="url(#p35a93a8f77)" style="fill: none; stroke: #b0b0b0; stroke-width: 0.8; stroke-linecap: square"/>
     </g>
     <g id="line2d_34">
      <g>
       <use xlink:href="#m8ff20d525f" x="90" y="104.84501" style="stroke: #000000; stroke-width: 0.8"/>
      </g>
     </g>
     <g id="text_17">
      <!-- 0.75 -->
      <g transform="translate(60.734375 108.644229) scale(0.1 -0.1)">
       <use xlink:href="#DejaVuSans-30"/>
       <use xlink:href="#DejaVuSans-2e" x="63.623047"/>
       <use xlink:href="#DejaVuSans-37" x="95.410156"/>
       <use xlink:href="#DejaVuSans-35" x="159.033203"/>
      </g>
     </g>
    </g>
    <g id="ytick_9">
     <g id="line2d_35">
      <path d="M 90 67.073346 
L 648 67.073346 
" clip-path="url(#p35a93a8f77)" style="fill: none; stroke: #b0b0b0; stroke-width: 0.8; stroke-linecap: square"/>
     </g>
     <g id="line2d_36">
      <g>
       <use xlink:href="#m8ff20d525f" x="90" y="67.073346" style="stroke: #000000; stroke-width: 0.8"/>
      </g>
     </g>
     <g id="text_18">
      <!-- 1.00 -->
      <g transform="translate(60.734375 70.872565) scale(0.1 -0.1)">
       <use xlink:href="#DejaVuSans-31"/>
       <use xlink:href="#DejaVuSans-2e" x="63.623047"/>
       <use xlink:href="#DejaVuSans-30" x="95.410156"/>
       <use xlink:href="#DejaVuSans-30" x="159.033203"/>
      </g>
     </g>
    </g>
   </g>
   <g id="line2d_37">
    <path d="M 115.363636 218.16 
L 125.529422 180.512576 
L 130.612316 162.43518 
L 135.695209 145.240119 
L 139.761523 132.302892 
L 143.827837 120.236123 
L 146.877573 111.831246 
L 149.927309 104.032973 
L 152.977045 96.885792 
L 156.026781 90.43048 
L 158.059938 86.529664 
L 160.093095 82.962692 
L 162.126253 79.73861 
L 164.15941 76.865595 
L 166.192567 74.350934 
L 168.225724 72.201003 
L 170.258881 70.421257 
L 172.292039 69.016209 
L 174.325196 67.989422 
L 176.358353 67.343501 
L 178.39151 67.080084 
L 180.424668 67.199838 
L 182.457825 67.70246 
L 184.490982 68.586676 
L 186.524139 69.850242 
L 188.557296 71.489955 
L 190.590454 73.501655 
L 192.623611 75.88024 
L 194.656768 78.619678 
L 196.689925 81.713021 
L 198.723083 85.152423 
L 200.75624 88.929161 
L 203.805976 95.205594 
L 206.855711 102.183479 
L 209.905447 109.823009 
L 212.955183 118.0806 
L 216.004919 126.909143 
L 220.071233 139.481193 
L 224.137548 152.850923 
L 229.220441 170.477666 
L 235.319913 192.600893 
L 256.668063 271.222601 
L 261.750956 288.567761 
L 265.817271 301.65384 
L 269.883585 313.893422 
L 272.933321 322.442588 
L 275.983057 330.396823 
L 279.032793 337.710748 
L 282.082529 344.342638 
L 285.132265 350.254658 
L 287.165422 353.779246 
L 289.198579 356.959874 
L 291.231736 359.788475 
L 293.264893 362.257875 
L 295.298051 364.361811 
L 297.331208 366.094947 
L 299.364365 367.452888 
L 301.397522 368.432189 
L 303.43068 369.030367 
L 305.463837 369.245905 
L 307.496994 369.078256 
L 309.530151 368.527845 
L 311.563308 367.596068 
L 313.596466 366.285288 
L 315.629623 364.59883 
L 317.66278 362.540971 
L 319.695937 360.116931 
L 321.729095 357.332856 
L 323.762252 354.195809 
L 325.795409 350.713745 
L 327.828566 346.895495 
L 330.878302 340.559184 
L 333.928038 333.524587 
L 336.977774 325.831837 
L 340.02751 317.524821 
L 343.077245 308.65093 
L 347.14356 296.0252 
L 351.209874 282.610038 
L 356.292767 264.9388 
L 362.392239 242.781108 
L 383.74039 164.207842 
L 388.823283 146.912031 
L 392.889597 133.875053 
L 396.955912 121.692593 
L 400.005648 113.191187 
L 403.055383 105.288627 
L 406.105119 98.029996 
L 409.154855 91.456706 
L 412.204591 85.606255 
L 414.237748 82.124191 
L 416.270905 78.987144 
L 418.304063 76.203069 
L 420.33722 73.779029 
L 422.370377 71.72117 
L 424.403534 70.034712 
L 426.436692 68.723932 
L 428.469849 67.792155 
L 430.503006 67.241744 
L 432.536163 67.074095 
L 434.56932 67.289633 
L 436.602478 67.887811 
L 438.635635 68.867112 
L 440.668792 70.225053 
L 442.701949 71.958189 
L 444.735107 74.062125 
L 446.768264 76.531525 
L 448.801421 79.360126 
L 450.834578 82.540754 
L 452.867735 86.065342 
L 454.900893 89.924951 
L 457.950629 96.32089 
L 461.000364 103.411919 
L 464.0501 111.157584 
L 467.099836 119.513696 
L 470.149572 128.432584 
L 474.215886 141.111493 
L 478.282201 154.571555 
L 483.365094 172.286589 
L 489.464565 194.477866 
L 509.796138 269.437214 
L 514.879031 286.879005 
L 518.945345 300.06173 
L 523.01166 312.414098 
L 526.061396 321.057765 
L 529.111131 329.114401 
L 532.160867 336.538044 
L 535.210603 343.286342 
L 538.260339 349.320796 
L 540.293496 352.930011 
L 542.326653 356.197419 
L 544.359811 359.114735 
L 546.392968 361.674558 
L 548.426125 363.870397 
L 550.459282 365.696682 
L 552.492439 367.148782 
L 554.525597 368.223014 
L 556.558754 368.916653 
L 558.591911 369.22794 
L 560.625068 369.156085 
L 562.658226 368.701272 
L 564.691383 367.864652 
L 566.72454 366.648349 
L 568.757697 365.055447 
L 570.790854 363.089986 
L 572.824012 360.75695 
L 574.857169 358.062257 
L 576.890326 355.012742 
L 578.923483 351.616138 
L 580.956641 347.88106 
L 584.006376 341.664755 
L 587.056112 334.743857 
L 590.105848 327.15785 
L 593.155584 318.950011 
L 596.20532 310.167167 
L 600.271634 297.649296 
L 604.337949 284.325526 
L 609.420842 266.743978 
L 615.520313 244.656092 
L 622.636364 218.16 
L 622.636364 218.16 
" clip-path="url(#p35a93a8f77)" style="fill: none; stroke: #000000; stroke-width: 2; stroke-linecap: square"/>
   </g>
   <g id="line2d_38">
    <path d="M 115.363636 218.16 
L 125.529422 181.092776 
L 131.628894 159.716247 
L 136.711787 142.797078 
L 140.778102 130.034184 
L 144.844416 118.101871 
L 147.894152 109.777649 
L 150.943888 102.051446 
L 153.993624 94.979325 
L 157.043359 88.617352 
L 159.076517 84.798249 
L 161.109674 81.336296 
L 163.142831 78.248105 
L 165.175988 75.550286 
L 167.209146 73.258817 
L 169.242303 71.377969 
L 171.27546 69.901746 
L 173.308617 68.823804 
L 175.341774 68.137796 
L 177.374932 67.837379 
L 179.408089 67.916207 
L 181.441246 68.367935 
L 183.474403 69.186217 
L 185.507561 70.36471 
L 187.540718 71.897067 
L 189.573875 73.776943 
L 191.607032 75.997995 
L 193.640189 78.553875 
L 195.673347 81.43824 
L 197.706504 84.644744 
L 199.739661 88.167043 
L 202.789397 94.028725 
L 205.839133 100.565253 
L 208.888869 107.755212 
L 211.938604 115.577188 
L 214.98834 124.009766 
L 218.038076 133.03102 
L 222.104391 145.898491 
L 226.170705 159.577019 
L 231.253598 177.565481 
L 237.35307 200.033918 
L 253.618328 260.589699 
L 258.701221 278.491537 
L 262.767535 292.077666 
L 266.83385 304.832205 
L 269.883585 313.757158 
L 272.933321 322.089456 
L 275.983057 329.807583 
L 279.032793 336.890124 
L 282.082529 343.315665 
L 285.132265 349.06279 
L 287.165422 352.506735 
L 289.198579 355.633299 
L 291.231736 358.436138 
L 293.264893 360.908906 
L 295.298051 363.045259 
L 297.331208 364.83885 
L 299.364365 366.283336 
L 301.397522 367.372371 
L 303.43068 368.099609 
L 305.463837 368.458707 
L 307.496994 368.443318 
L 309.530151 368.047099 
L 311.563308 367.263702 
L 313.596466 366.086785 
L 315.629623 364.510001 
L 317.66278 362.527005 
L 319.695937 360.132765 
L 321.729095 357.335796 
L 323.762252 354.152607 
L 325.795409 350.599809 
L 327.828566 346.694014 
L 330.878302 340.20979 
L 333.928038 333.024762 
L 336.977774 325.194996 
L 340.02751 316.776555 
L 344.093824 304.733152 
L 348.160138 291.875779 
L 352.226453 278.337329 
L 357.309346 260.658956 
L 364.425396 234.964449 
L 380.690654 175.661044 
L 385.773547 157.982671 
L 390.85644 141.160836 
L 394.922755 128.494497 
L 398.989069 116.675351 
L 402.038805 108.446905 
L 405.088541 100.825822 
L 408.138277 93.868167 
L 411.188012 87.630002 
L 413.22117 83.898629 
L 415.254327 80.528559 
L 417.287484 77.536404 
L 419.320641 74.938774 
L 421.353799 72.750324 
L 423.386956 70.971227 
L 425.420113 69.59517 
L 427.45327 68.615806 
L 429.486427 68.026791 
L 431.519585 67.82178 
L 433.552742 67.994428 
L 435.585899 68.538389 
L 437.619056 69.447319 
L 439.652214 70.714872 
L 441.685371 72.334704 
L 443.718528 74.300469 
L 445.751685 76.605822 
L 447.784842 79.244419 
L 449.818 82.209914 
L 451.851157 85.495961 
L 453.884314 89.096217 
L 456.93405 95.07186 
L 459.983786 101.718781 
L 463.033522 109.015563 
L 466.083257 116.940793 
L 469.132993 125.473056 
L 472.182729 134.589485 
L 476.249044 147.567321 
L 480.315358 161.335681 
L 485.398251 179.40756 
L 492.514301 205.741261 
L 506.746402 258.754519 
L 511.829295 276.742981 
L 515.895609 290.421509 
L 519.961924 303.28898 
L 523.01166 312.310234 
L 526.061396 320.742812 
L 529.111131 328.564788 
L 532.160867 335.754747 
L 535.210603 342.291275 
L 538.260339 348.152957 
L 540.293496 351.675256 
L 542.326653 354.88176 
L 544.359811 357.766125 
L 546.392968 360.322005 
L 548.426125 362.543057 
L 550.459282 364.422933 
L 552.492439 365.95529 
L 554.525597 367.133783 
L 556.558754 367.952065 
L 558.591911 368.403793 
L 560.625068 368.482621 
L 562.658226 368.182204 
L 564.691383 367.496196 
L 566.72454 366.418254 
L 568.757697 364.942031 
L 570.790854 363.061183 
L 572.824012 360.769714 
L 574.857169 358.071895 
L 576.890326 354.983704 
L 578.923483 351.521751 
L 580.956641 347.702648 
L 584.006376 341.340675 
L 587.056112 334.268554 
L 590.105848 326.542351 
L 593.155584 318.218129 
L 596.20532 309.351953 
L 600.271634 296.784245 
L 604.337949 283.485625 
L 609.420842 266.036961 
L 615.520313 244.230606 
L 622.636364 218.16 
L 622.636364 218.16 
" clip-path="url(#p35a93a8f77)" style="fill: none; stroke-dasharray: 5.55,2.4; stroke-dashoffset: 0; stroke: #0000ff; stroke-width: 1.5"/>
   </g>
   <g id="line2d_39">
    <path d="M 115.363636 218.16 
L 118.413372 203.036873 
L 121.463108 189.198165 
L 124.512844 176.462472 
L 127.56258 164.683693 
L 130.612316 153.746704 
L 133.662051 143.563359 
L 136.711787 134.068807 
L 139.761523 125.218099 
L 142.811259 116.983077 
L 145.860995 109.349531 
L 148.910731 102.314609 
L 151.960466 95.884466 
L 155.010202 90.072143 
L 158.059938 84.895656 
L 160.093095 81.808331 
L 162.126253 79.019821 
L 164.15941 76.537086 
L 166.192567 74.367087 
L 168.225724 72.516632 
L 170.258881 70.992241 
L 172.292039 69.800027 
L 174.325196 68.945578 
L 176.358353 68.433867 
L 178.39151 68.26916 
L 180.424668 68.454941 
L 182.457825 68.993846 
L 184.490982 69.887613 
L 186.524139 71.137027 
L 188.557296 72.74189 
L 190.590454 74.700988 
L 192.623611 77.012075 
L 194.656768 79.671854 
L 196.689925 82.675974 
L 198.723083 86.019029 
L 200.75624 89.694566 
L 203.805976 95.814617 
L 206.855711 102.63612 
L 209.905447 110.124567 
L 212.955183 118.24071 
L 216.004919 126.940843 
L 220.071233 139.366189 
L 224.137548 152.620479 
L 229.220441 170.148832 
L 235.319913 192.218849 
L 245.485699 230.171494 
L 253.618328 260.163928 
L 258.701221 278.131646 
L 262.767535 291.834868 
L 266.83385 304.787181 
L 270.900164 316.85462 
L 273.9499 325.249303 
L 276.999636 333.027591 
L 280.049371 340.144719 
L 283.099107 346.559893 
L 285.132265 350.428448 
L 287.165422 353.958897 
L 289.198579 357.14236 
L 291.231736 359.970866 
L 293.264893 362.437372 
L 295.298051 364.535776 
L 297.331208 366.26093 
L 299.364365 367.608651 
L 301.397522 368.575729 
L 303.43068 369.15993 
L 305.463837 369.36 
L 307.496994 369.175666 
L 309.530151 368.607632 
L 311.563308 367.657575 
L 313.596466 366.328138 
L 315.629623 364.622924 
L 317.66278 362.546476 
L 319.695937 360.104274 
L 321.729095 357.302709 
L 323.762252 354.149074 
L 325.795409 350.651535 
L 327.828566 346.819116 
L 330.878302 340.464363 
L 333.928038 333.415114 
L 336.977774 325.711849 
L 340.02751 317.398674 
L 343.077245 308.523066 
L 347.14356 295.90186 
L 351.209874 282.498564 
L 356.292767 264.851194 
L 362.392239 242.732269 
L 383.74039 164.306083 
L 388.823283 147.030312 
L 392.889597 134.00161 
L 396.955912 121.819806 
L 400.005648 113.313719 
L 403.055383 105.402079 
L 406.105119 98.130142 
L 409.154855 91.539626 
L 412.204591 85.668465 
L 414.237748 82.170926 
L 416.270905 79.017291 
L 418.304063 76.215726 
L 420.33722 73.773524 
L 422.370377 71.697076 
L 424.403534 69.991862 
L 426.436692 68.662425 
L 428.469849 67.712368 
L 430.503006 67.144334 
L 432.536163 66.96 
L 434.56932 67.16007 
L 436.602478 67.744271 
L 438.635635 68.711349 
L 440.668792 70.05907 
L 442.701949 71.784224 
L 444.735107 73.882628 
L 446.768264 76.349134 
L 448.801421 79.17764 
L 450.834578 82.361103 
L 452.867735 85.891552 
L 454.900893 89.760107 
L 457.950629 96.175281 
L 461.000364 103.292409 
L 464.0501 111.070697 
L 467.099836 119.46538 
L 470.149572 128.427971 
L 474.215886 141.171271 
L 478.282201 154.6998 
L 483.365094 172.500298 
L 489.464565 194.782427 
L 508.779559 266.171168 
L 513.862452 283.699521 
L 517.928767 296.953811 
L 521.995081 309.379157 
L 525.044817 318.07929 
L 528.094553 326.195433 
L 531.144289 333.68388 
L 534.194024 340.505383 
L 537.24376 346.625434 
L 539.276917 350.300971 
L 541.310075 353.644026 
L 543.343232 356.648146 
L 545.376389 359.307925 
L 547.409546 361.619012 
L 549.442704 363.57811 
L 551.475861 365.182973 
L 553.509018 366.432387 
L 555.542175 367.326154 
L 557.575332 367.865059 
L 559.60849 368.05084 
L 561.641647 367.886133 
L 563.674804 367.374422 
L 565.707961 366.519973 
L 567.741119 365.327759 
L 569.774276 363.803368 
L 571.807433 361.952913 
L 573.84059 359.782914 
L 575.873747 357.300179 
L 577.906905 354.511669 
L 579.940062 351.424344 
L 581.973219 348.045 
L 585.022955 342.442426 
L 588.072691 336.216491 
L 591.122427 329.382096 
L 594.172163 321.947918 
L 597.221898 313.914355 
L 600.271634 305.271259 
L 603.32137 295.995426 
L 606.371106 286.047835 
L 609.420842 275.370631 
L 612.470578 263.883828 
L 615.520313 251.481725 
L 618.570049 238.029009 
L 621.619785 223.356544 
L 622.636364 218.16 
L 622.636364 218.16 
" clip-path="url(#p35a93a8f77)" style="fill: none; stroke-dasharray: 5.55,2.4; stroke-dashoffset: 0; stroke: #008000; stroke-width: 1.5"/>
   </g>
   <g id="patch_3">
    <path d="M 90 384.48 
L 90 51.84 
" style="fill: none; stroke: #000000; stroke-width: 0.8; stroke-linejoin: miter; stroke-linecap: square"/>
   </g>
   <g id="patch_4">
    <path d="M 648 384.48 
L 648 51.84 
" style="fill: none; stroke: #000000; stroke-width: 0.8; stroke-linejoin: miter; stroke-linecap: square"/>
   </g>
   <g id="patch_5">
    <path d="M 90 384.48 
L 648 384.48 
" style="fill: none; stroke: #000000; stroke-width: 0.8; stroke-linejoin: miter; stroke-linecap: square"/>
   </g>
   <g id="patch_6">
    <path d="M 90 51.84 
L 648 51.84 
" style="fill: none; stroke: #000000; stroke-width: 0.8; stroke-linejoin: miter; stroke-linecap: square"/>
   </g>
   <g id="text_19">
    <!-- Porownanie interpolacji dla n=10 -->
    <g transform="translate(269.6025 45.84) scale(0.12 -0.12)">
     <defs>
      <path id="DejaVuSans-50" d="M 1259 4147 
L 1259 2394 
L 2053 2394 
Q 2494 2394 2734 2622 
Q 2975 2850 2975 3272 
Q 2975 3691 2734 3919 
Q 2494 4147 2053 4147 
L 1259 4147 
z
M 628 4666 
L 2053 4666 
Q 2838 4666 3239 4311 
Q 3641 3956 3641 3272 
Q 3641 2581 3239 2228 
Q 2838 1875 2053 1875 
L 1259 1875 
L 1259 0 
L 628 0 
L 628 4666 
z
" transform="scale(0.015625)"/>
      <path id="DejaVuSans-6f" d="M 1959 3097 
Q 1497 3097 1228 2736 
Q 959 2375 959 1747 
Q 959 1119 1226 758 
Q 1494 397 1959 397 
Q 2419 397 2687 759 
Q 2956 1122 2956 1747 
Q 2956 2369 2687 2733 
Q 2419 3097 1959 3097 
z
M 1959 3584 
Q 2709 3584 3137 3096 
Q 3566 2609 3566 1747 
Q 3566 888 3137 398 
Q 2709 -91 1959 -91 
Q 1206 -91 779 398 
Q 353 888 353 1747 
Q 353 2609 779 3096 
Q 1206 3584 1959 3584 
z
" transform="scale(0.015625)"/>
      <path id="DejaVuSans-72" d="M 2631 2963 
Q 2534 3019 2420 3045 
Q 2306 3072 2169 3072 
Q 1681 3072 1420 2755 
Q 1159 2438 1159 1844 
L 1159 0 
L 581 0 
L 581 3500 
L 1159 3500 
L 1159 2956 
Q 1341 3275 1631 3429 
Q 1922 3584 2338 3584 
Q 2397 3584 2469 3576 
Q 2541 3569 2628 3553 
L 2631 2963 
z
" transform="scale(0.015625)"/>
      <path id="DejaVuSans-77" d="M 269 3500 
L 844 3500 
L 1563 769 
L 2278 3500 
L 2956 3500 
L 3675 769 
L 4391 3500 
L 4966 3500 
L 4050 0 
L 3372 0 
L 2619 2869 
L 1863 0 
L 1184 0 
L 269 3500 
z
" transform="scale(0.015625)"/>
      <path id="DejaVuSans-6e" d="M 3513 2113 
L 3513 0 
L 2938 0 
L 2938 2094 
Q 2938 2591 2744 2837 
Q 2550 3084 2163 3084 
Q 1697 3084 1428 2787 
Q 1159 2491 1159 1978 
L 1159 0 
L 581 0 
L 581 3500 
L 1159 3500 
L 1159 2956 
Q 1366 3272 1645 3428 
Q 1925 3584 2291 3584 
Q 2894 3584 3203 3211 
Q 3513 2838 3513 2113 
z
" transform="scale(0.015625)"/>
      <path id="DejaVuSans-61" d="M 2194 1759 
Q 1497 1759 1228 1600 
Q 959 1441 959 1056 
Q 959 750 1161 570 
Q 1363 391 1709 391 
Q 2188 391 2477 730 
Q 2766 1069 2766 1631 
L 2766 1759 
L 2194 1759 
z
M 3341 1997 
L 3341 0 
L 2766 0 
L 2766 531 
Q 2569 213 2275 61 
Q 1981 -91 1556 -91 
Q 1019 -91 701 211 
Q 384 513 384 1019 
Q 384 1609 779 1909 
Q 1175 2209 1959 2209 
L 2766 2209 
L 2766 2266 
Q 2766 2663 2505 2880 
Q 2244 3097 1772 3097 
Q 1472 3097 1187 3025 
Q 903 2953 641 2809 
L 641 3341 
Q 956 3463 1253 3523 
Q 1550 3584 1831 3584 
Q 2591 3584 2966 3190 
Q 3341 2797 3341 1997 
z
" transform="scale(0.015625)"/>
      <path id="DejaVuSans-69" d="M 603 3500 
L 1178 3500 
L 1178 0 
L 603 0 
L 603 3500 
z
M 603 4863 
L 1178 4863 
L 1178 4134 
L 603 4134 
L 603 4863 
z
" transform="scale(0.015625)"/>
      <path id="DejaVuSans-65" d="M 3597 1894 
L 3597 1613 
L 953 1613 
Q 991 1019 1311 708 
Q 1631 397 2203 397 
Q 2534 397 2845 478 
Q 3156 559 3463 722 
L 3463 178 
Q 3153 47 2828 -22 
Q 2503 -91 2169 -91 
Q 1331 -91 842 396 
Q 353 884 353 1716 
Q 353 2575 817 3079 
Q 1281 3584 2069 3584 
Q 2775 3584 3186 3129 
Q 3597 2675 3597 1894 
z
M 3022 2063 
Q 3016 2534 2758 2815 
Q 2500 3097 2075 3097 
Q 1594 3097 1305 2825 
Q 1016 2553 972 2059 
L 3022 2063 
z
" transform="scale(0.015625)"/>
      <path id="DejaVuSans-20" transform="scale(0.015625)"/>
      <path id="DejaVuSans-74" d="M 1172 4494 
L 1172 3500 
L 2356 3500 
L 2356 3053 
L 1172 3053 
L 1172 1153 
Q 1172 725 1289 603 
Q 1406 481 1766 481 
L 2356 481 
L 2356 0 
L 1766 0 
Q 1100 0 847 248 
Q 594 497 594 1153 
L 594 3053 
L 172 3053 
L 172 3500 
L 594 3500 
L 594 4494 
L 1172 4494 
z
" transform="scale(0.015625)"/>
      <path id="DejaVuSans-70" d="M 1159 525 
L 1159 -1331 
L 581 -1331 
L 581 3500 
L 1159 3500 
L 1159 2969 
Q 1341 3281 1617 3432 
Q 1894 3584 2278 3584 
Q 2916 3584 3314 3078 
Q 3713 2572 3713 1747 
Q 3713 922 3314 415 
Q 2916 -91 2278 -91 
Q 1894 -91 1617 61 
Q 1341 213 1159 525 
z
M 3116 1747 
Q 3116 2381 2855 2742 
Q 2594 3103 2138 3103 
Q 1681 3103 1420 2742 
Q 1159 2381 1159 1747 
Q 1159 1113 1420 752 
Q 1681 391 2138 391 
Q 2594 391 2855 752 
Q 3116 1113 3116 1747 
z
" transform="scale(0.015625)"/>
      <path id="DejaVuSans-6c" d="M 603 4863 
L 1178 4863 
L 1178 0 
L 603 0 
L 603 4863 
z
" transform="scale(0.015625)"/>
      <path id="DejaVuSans-63" d="M 3122 3366 
L 3122 2828 
Q 2878 2963 2633 3030 
Q 2388 3097 2138 3097 
Q 1578 3097 1268 2742 
Q 959 2388 959 1747 
Q 959 1106 1268 751 
Q 1578 397 2138 397 
Q 2388 397 2633 464 
Q 2878 531 3122 666 
L 3122 134 
Q 2881 22 2623 -34 
Q 2366 -91 2075 -91 
Q 1284 -91 818 406 
Q 353 903 353 1747 
Q 353 2603 823 3093 
Q 1294 3584 2113 3584 
Q 2378 3584 2631 3529 
Q 2884 3475 3122 3366 
z
" transform="scale(0.015625)"/>
      <path id="DejaVuSans-6a" d="M 603 3500 
L 1178 3500 
L 1178 -63 
Q 1178 -731 923 -1031 
Q 669 -1331 103 -1331 
L -116 -1331 
L -116 -844 
L 38 -844 
Q 366 -844 484 -692 
Q 603 -541 603 -63 
L 603 3500 
z
M 603 4863 
L 1178 4863 
L 1178 4134 
L 603 4134 
L 603 4863 
z
" transform="scale(0.015625)"/>
      <path id="DejaVuSans-64" d="M 2906 2969 
L 2906 4863 
L 3481 4863 
L 3481 0 
L 2906 0 
L 2906 525 
Q 2725 213 2448 61 
Q 2172 -91 1784 -91 
Q 1150 -91 751 415 
Q 353 922 353 1747 
Q 353 2572 751 3078 
Q 1150 3584 1784 3584 
Q 2172 3584 2448 3432 
Q 2725 3281 2906 2969 
z
M 947 1747 
Q 947 1113 1208 752 
Q 1469 391 1925 391 
Q 2381 391 2643 752 
Q 2906 1113 2906 1747 
Q 2906 2381 2643 2742 
Q 2381 3103 1925 3103 
Q 1469 3103 1208 2742 
Q 947 2381 947 1747 
z
" transform="scale(0.015625)"/>
      <path id="DejaVuSans-3d" d="M 678 2906 
L 4684 2906 
L 4684 2381 
L 678 2381 
L 678 2906 
z
M 678 1631 
L 4684 1631 
L 4684 1100 
L 678 1100 
L 678 1631 
z
" transform="scale(0.015625)"/>
     </defs>
     <use xlink:href="#DejaVuSans-50"/>
     <use xlink:href="#DejaVuSans-6f" x="56.677734"/>
     <use xlink:href="#DejaVuSans-72" x="117.859375"/>
     <use xlink:href="#DejaVuSans-6f" x="156.722656"/>
     <use xlink:href="#DejaVuSans-77" x="217.904297"/>
     <use xlink:href="#DejaVuSans-6e" x="299.691406"/>
     <use xlink:href="#DejaVuSans-61" x="363.070312"/>
     <use xlink:href="#DejaVuSans-6e" x="424.349609"/>
     <use xlink:href="#DejaVuSans-69" x="487.728516"/>
     <use xlink:href="#DejaVuSans-65" x="515.511719"/>
     <use xlink:href="#DejaVuSans-20" x="577.035156"/>
     <use xlink:href="#DejaVuSans-69" x="608.822266"/>
     <use xlink:href="#DejaVuSans-6e" x="636.605469"/>
     <use xlink:href="#DejaVuSans-74" x="699.984375"/>
     <use xlink:href="#DejaVuSans-65" x="739.193359"/>
     <use xlink:href="#DejaVuSans-72" x="800.716797"/>
     <use xlink:href="#DejaVuSans-70" x="841.830078"/>
     <use xlink:href="#DejaVuSans-6f" x="905.306641"/>
     <use xlink:href="#DejaVuSans-6c" x="966.488281"/>
     <use xlink:href="#DejaVuSans-61" x="994.271484"/>
     <use xlink:href="#DejaVuSans-63" x="1055.550781"/>
     <use xlink:href="#DejaVuSans-6a" x="1110.53125"/>
     <use xlink:href="#DejaVuSans-69" x="1138.314453"/>
     <use xlink:href="#DejaVuSans-20" x="1166.097656"/>
     <use xlink:href="#DejaVuSans-64" x="1197.884766"/>
     <use xlink:href="#DejaVuSans-6c" x="1261.361328"/>
     <use xlink:href="#DejaVuSans-61" x="1289.144531"/>
     <use xlink:href="#DejaVuSans-20" x="1350.423828"/>
     <use xlink:href="#DejaVuSans-6e" x="1382.210938"/>
     <use xlink:href="#DejaVuSans-3d" x="1445.589844"/>
     <use xlink:href="#DejaVuSans-31" x="1529.378906"/>
     <use xlink:href="#DejaVuSans-30" x="1593.001953"/>
    </g>
   </g>
   <g id="legend_1">
    <g id="patch_7">
     <path d="M 270.3 249.049062 
L 467.7 249.049062 
Q 469.7 249.049062 469.7 247.049062 
L 469.7 189.270938 
Q 469.7 187.270938 467.7 187.270938 
L 270.3 187.270938 
Q 268.3 187.270938 268.3 189.270938 
L 268.3 247.049062 
Q 268.3 249.049062 270.3 249.049062 
z
" style="fill: #ffffff; opacity: 0.8; stroke: #cccccc; stroke-linejoin: miter"/>
    </g>
    <g id="line2d_40">
     <path d="M 272.3 195.370937 
L 282.3 195.370937 
L 292.3 195.370937 
" style="fill: none; stroke: #000000; stroke-width: 2; stroke-linecap: square"/>
    </g>
    <g id="text_20">
     <!-- Funkcja $y(x)$ -->
     <g transform="translate(300.3 198.870937) scale(0.1 -0.1)">
      <defs>
       <path id="DejaVuSans-46" d="M 628 4666 
L 3309 4666 
L 3309 4134 
L 1259 4134 
L 1259 2759 
L 3109 2759 
L 3109 2228 
L 1259 2228 
L 1259 0 
L 628 0 
L 628 4666 
z
" transform="scale(0.015625)"/>
       <path id="DejaVuSans-75" d="M 544 1381 
L 544 3500 
L 1119 3500 
L 1119 1403 
Q 1119 906 1312 657 
Q 1506 409 1894 409 
Q 2359 409 2629 706 
Q 2900 1003 2900 1516 
L 2900 3500 
L 3475 3500 
L 3475 0 
L 2900 0 
L 2900 538 
Q 2691 219 2414 64 
Q 2138 -91 1772 -91 
Q 1169 -91 856 284 
Q 544 659 544 1381 
z
M 1991 3584 
L 1991 3584 
z
" transform="scale(0.015625)"/>
       <path id="DejaVuSans-6b" d="M 581 4863 
L 1159 4863 
L 1159 1991 
L 2875 3500 
L 3609 3500 
L 1753 1863 
L 3688 0 
L 2938 0 
L 1159 1709 
L 1159 0 
L 581 0 
L 581 4863 
z
" transform="scale(0.015625)"/>
       <path id="DejaVuSans-Oblique-79" d="M 1588 -325 
Q 1188 -997 936 -1164 
Q 684 -1331 294 -1331 
L -159 -1331 
L -63 -850 
L 269 -850 
Q 509 -850 678 -719 
Q 847 -588 1056 -206 
L 1234 128 
L 459 3500 
L 1069 3500 
L 1650 819 
L 3256 3500 
L 3859 3500 
L 1588 -325 
z
" transform="scale(0.015625)"/>
       <path id="DejaVuSans-28" d="M 1984 4856 
Q 1566 4138 1362 3434 
Q 1159 2731 1159 2009 
Q 1159 1288 1364 580 
Q 1569 -128 1984 -844 
L 1484 -844 
Q 1016 -109 783 600 
Q 550 1309 550 2009 
Q 550 2706 781 3412 
Q 1013 4119 1484 4856 
L 1984 4856 
z
" transform="scale(0.015625)"/>
       <path id="DejaVuSans-Oblique-78" d="M 3841 3500 
L 2234 1784 
L 3219 0 
L 2559 0 
L 1819 1388 
L 531 0 
L -166 0 
L 1556 1844 
L 641 3500 
L 1300 3500 
L 1972 2234 
L 3144 3500 
L 3841 3500 
z
" transform="scale(0.015625)"/>
       <path id="DejaVuSans-29" d="M 513 4856 
L 1013 4856 
Q 1481 4119 1714 3412 
Q 1947 2706 1947 2009 
Q 1947 1309 1714 600 
Q 1481 -109 1013 -844 
L 513 -844 
Q 928 -128 1133 580 
Q 1338 1288 1338 2009 
Q 1338 2731 1133 3434 
Q 928 4138 513 4856 
z
" transform="scale(0.015625)"/>
      </defs>
      <use xlink:href="#DejaVuSans-46" transform="translate(0 0.015625)"/>
      <use xlink:href="#DejaVuSans-75" transform="translate(57.519531 0.015625)"/>
      <use xlink:href="#DejaVuSans-6e" transform="translate(120.898438 0.015625)"/>
      <use xlink:href="#DejaVuSans-6b" transform="translate(184.277344 0.015625)"/>
      <use xlink:href="#DejaVuSans-63" transform="translate(242.1875 0.015625)"/>
      <use xlink:href="#DejaVuSans-6a" transform="translate(297.167969 0.015625)"/>
      <use xlink:href="#DejaVuSans-61" transform="translate(324.951172 0.015625)"/>
      <use xlink:href="#DejaVuSans-20" transform="translate(386.230469 0.015625)"/>
      <use xlink:href="#DejaVuSans-Oblique-79" transform="translate(418.017578 0.015625)"/>
      <use xlink:href="#DejaVuSans-28" transform="translate(477.197266 0.015625)"/>
      <use xlink:href="#DejaVuSans-Oblique-78" transform="translate(516.210938 0.015625)"/>
      <use xlink:href="#DejaVuSans-29" transform="translate(575.390625 0.015625)"/>
     </g>
    </g>
    <g id="line2d_41">
     <path d="M 272.3 210.070938 
L 282.3 210.070938 
L 292.3 210.070938 
" style="fill: none; stroke-dasharray: 5.55,2.4; stroke-dashoffset: 0; stroke: #0000ff; stroke-width: 1.5"/>
    </g>
    <g id="text_21">
     <!-- Interpolacja sklejana $s(x)$ -->
     <g transform="translate(300.3 213.570938) scale(0.1 -0.1)">
      <defs>
       <path id="DejaVuSans-49" d="M 628 4666 
L 1259 4666 
L 1259 0 
L 628 0 
L 628 4666 
z
" transform="scale(0.015625)"/>
       <path id="DejaVuSans-73" d="M 2834 3397 
L 2834 2853 
Q 2591 2978 2328 3040 
Q 2066 3103 1784 3103 
Q 1356 3103 1142 2972 
Q 928 2841 928 2578 
Q 928 2378 1081 2264 
Q 1234 2150 1697 2047 
L 1894 2003 
Q 2506 1872 2764 1633 
Q 3022 1394 3022 966 
Q 3022 478 2636 193 
Q 2250 -91 1575 -91 
Q 1294 -91 989 -36 
Q 684 19 347 128 
L 347 722 
Q 666 556 975 473 
Q 1284 391 1588 391 
Q 1994 391 2212 530 
Q 2431 669 2431 922 
Q 2431 1156 2273 1281 
Q 2116 1406 1581 1522 
L 1381 1569 
Q 847 1681 609 1914 
Q 372 2147 372 2553 
Q 372 3047 722 3315 
Q 1072 3584 1716 3584 
Q 2034 3584 2315 3537 
Q 2597 3491 2834 3397 
z
" transform="scale(0.015625)"/>
       <path id="DejaVuSans-Oblique-73" d="M 3200 3397 
L 3091 2853 
Q 2863 2978 2609 3040 
Q 2356 3103 2088 3103 
Q 1634 3103 1373 2948 
Q 1113 2794 1113 2528 
Q 1113 2219 1719 2053 
Q 1766 2041 1788 2034 
L 1972 1978 
Q 2547 1819 2739 1644 
Q 2931 1469 2931 1166 
Q 2931 609 2489 259 
Q 2047 -91 1331 -91 
Q 1053 -91 747 -37 
Q 441 16 72 128 
L 184 722 
Q 500 559 806 475 
Q 1113 391 1394 391 
Q 1816 391 2080 572 
Q 2344 753 2344 1031 
Q 2344 1331 1650 1516 
L 1591 1531 
L 1394 1581 
Q 956 1697 753 1886 
Q 550 2075 550 2369 
Q 550 2928 970 3256 
Q 1391 3584 2113 3584 
Q 2397 3584 2667 3537 
Q 2938 3491 3200 3397 
z
" transform="scale(0.015625)"/>
      </defs>
      <use xlink:href="#DejaVuSans-49" transform="translate(0 0.015625)"/>
      <use xlink:href="#DejaVuSans-6e" transform="translate(29.492188 0.015625)"/>
      <use xlink:href="#DejaVuSans-74" transform="translate(92.871094 0.015625)"/>
      <use xlink:href="#DejaVuSans-65" transform="translate(132.080078 0.015625)"/>
      <use xlink:href="#DejaVuSans-72" transform="translate(193.603516 0.015625)"/>
      <use xlink:href="#DejaVuSans-70" transform="translate(234.716797 0.015625)"/>
      <use xlink:href="#DejaVuSans-6f" transform="translate(298.193359 0.015625)"/>
      <use xlink:href="#DejaVuSans-6c" transform="translate(359.375 0.015625)"/>
      <use xlink:href="#DejaVuSans-61" transform="translate(387.158203 0.015625)"/>
      <use xlink:href="#DejaVuSans-63" transform="translate(448.4375 0.015625)"/>
      <use xlink:href="#DejaVuSans-6a" transform="translate(503.417969 0.015625)"/>
      <use xlink:href="#DejaVuSans-61" transform="translate(531.201172 0.015625)"/>
      <use xlink:href="#DejaVuSans-20" transform="translate(592.480469 0.015625)"/>
      <use xlink:href="#DejaVuSans-73" transform="translate(624.267578 0.015625)"/>
      <use xlink:href="#DejaVuSans-6b" transform="translate(676.367188 0.015625)"/>
      <use xlink:href="#DejaVuSans-6c" transform="translate(734.277344 0.015625)"/>
      <use xlink:href="#DejaVuSans-65" transform="translate(762.060547 0.015625)"/>
      <use xlink:href="#DejaVuSans-6a" transform="translate(823.583984 0.015625)"/>
      <use xlink:href="#DejaVuSans-61" transform="translate(851.367188 0.015625)"/>
      <use xlink:href="#DejaVuSans-6e" transform="translate(912.646484 0.015625)"/>
      <use xlink:href="#DejaVuSans-61" transform="translate(976.025391 0.015625)"/>
      <use xlink:href="#DejaVuSans-20" transform="translate(1037.304688 0.015625)"/>
      <use xlink:href="#DejaVuSans-Oblique-73" transform="translate(1069.091797 0.015625)"/>
      <use xlink:href="#DejaVuSans-28" transform="translate(1121.191406 0.015625)"/>
      <use xlink:href="#DejaVuSans-Oblique-78" transform="translate(1160.205078 0.015625)"/>
      <use xlink:href="#DejaVuSans-29" transform="translate(1219.384766 0.015625)"/>
     </g>
    </g>
    <g id="line2d_42">
     <path d="M 272.3 224.770938 
L 282.3 224.770938 
L 292.3 224.770938 
" style="fill: none; stroke-dasharray: 5.55,2.4; stroke-dashoffset: 0; stroke: #008000; stroke-width: 1.5"/>
    </g>
    <g id="text_22">
     <!-- Interpolacja wielomianowa $W_n(x)$ -->
     <g transform="translate(300.3 228.270938) scale(0.1 -0.1)">
      <defs>
       <path id="DejaVuSans-6d" d="M 3328 2828 
Q 3544 3216 3844 3400 
Q 4144 3584 4550 3584 
Q 5097 3584 5394 3201 
Q 5691 2819 5691 2113 
L 5691 0 
L 5113 0 
L 5113 2094 
Q 5113 2597 4934 2840 
Q 4756 3084 4391 3084 
Q 3944 3084 3684 2787 
Q 3425 2491 3425 1978 
L 3425 0 
L 2847 0 
L 2847 2094 
Q 2847 2600 2669 2842 
Q 2491 3084 2119 3084 
Q 1678 3084 1418 2786 
Q 1159 2488 1159 1978 
L 1159 0 
L 581 0 
L 581 3500 
L 1159 3500 
L 1159 2956 
Q 1356 3278 1631 3431 
Q 1906 3584 2284 3584 
Q 2666 3584 2933 3390 
Q 3200 3197 3328 2828 
z
" transform="scale(0.015625)"/>
       <path id="DejaVuSans-Oblique-57" d="M 616 4666 
L 1228 4666 
L 1453 697 
L 3213 4666 
L 3916 4666 
L 4147 697 
L 5888 4666 
L 6528 4666 
L 4453 0 
L 3659 0 
L 3444 3891 
L 1697 0 
L 903 0 
L 616 4666 
z
" transform="scale(0.015625)"/>
       <path id="DejaVuSans-Oblique-6e" d="M 3566 2113 
L 3156 0 
L 2578 0 
L 2988 2091 
Q 3016 2238 3031 2350 
Q 3047 2463 3047 2528 
Q 3047 2791 2881 2937 
Q 2716 3084 2419 3084 
Q 1956 3084 1622 2776 
Q 1288 2469 1184 1941 
L 800 0 
L 225 0 
L 903 3500 
L 1478 3500 
L 1363 2950 
Q 1603 3253 1940 3418 
Q 2278 3584 2650 3584 
Q 3113 3584 3367 3334 
Q 3622 3084 3622 2631 
Q 3622 2519 3608 2391 
Q 3594 2263 3566 2113 
z
" transform="scale(0.015625)"/>
      </defs>
      <use xlink:href="#DejaVuSans-49" transform="translate(0 0.015625)"/>
      <use xlink:href="#DejaVuSans-6e" transform="translate(29.492188 0.015625)"/>
      <use xlink:href="#DejaVuSans-74" transform="translate(92.871094 0.015625)"/>
      <use xlink:href="#DejaVuSans-65" transform="translate(132.080078 0.015625)"/>
      <use xlink:href="#DejaVuSans-72" transform="translate(193.603516 0.015625)"/>
      <use xlink:href="#DejaVuSans-70" transform="translate(234.716797 0.015625)"/>
      <use xlink:href="#DejaVuSans-6f" transform="translate(298.193359 0.015625)"/>
      <use xlink:href="#DejaVuSans-6c" transform="translate(359.375 0.015625)"/>
      <use xlink:href="#DejaVuSans-61" transform="translate(387.158203 0.015625)"/>
      <use xlink:href="#DejaVuSans-63" transform="translate(448.4375 0.015625)"/>
      <use xlink:href="#DejaVuSans-6a" transform="translate(503.417969 0.015625)"/>
      <use xlink:href="#DejaVuSans-61" transform="translate(531.201172 0.015625)"/>
      <use xlink:href="#DejaVuSans-20" transform="translate(592.480469 0.015625)"/>
      <use xlink:href="#DejaVuSans-77" transform="translate(624.267578 0.015625)"/>
      <use xlink:href="#DejaVuSans-69" transform="translate(706.054688 0.015625)"/>
      <use xlink:href="#DejaVuSans-65" transform="translate(733.837891 0.015625)"/>
      <use xlink:href="#DejaVuSans-6c" transform="translate(795.361328 0.015625)"/>
      <use xlink:href="#DejaVuSans-6f" transform="translate(823.144531 0.015625)"/>
      <use xlink:href="#DejaVuSans-6d" transform="translate(884.326172 0.015625)"/>
      <use xlink:href="#DejaVuSans-69" transform="translate(981.738281 0.015625)"/>
      <use xlink:href="#DejaVuSans-61" transform="translate(1009.521484 0.015625)"/>
      <use xlink:href="#DejaVuSans-6e" transform="translate(1070.800781 0.015625)"/>
      <use xlink:href="#DejaVuSans-6f" transform="translate(1134.179688 0.015625)"/>
      <use xlink:href="#DejaVuSans-77" transform="translate(1195.361328 0.015625)"/>
      <use xlink:href="#DejaVuSans-61" transform="translate(1277.148438 0.015625)"/>
      <use xlink:href="#DejaVuSans-20" transform="translate(1338.427734 0.015625)"/>
      <use xlink:href="#DejaVuSans-Oblique-57" transform="translate(1370.214844 0.015625)"/>
      <use xlink:href="#DejaVuSans-Oblique-6e" transform="translate(1469.091797 -16.390625) scale(0.7)"/>
      <use xlink:href="#DejaVuSans-28" transform="translate(1516.191406 0.015625)"/>
      <use xlink:href="#DejaVuSans-Oblique-78" transform="translate(1555.205078 0.015625)"/>
      <use xlink:href="#DejaVuSans-29" transform="translate(1614.384766 0.015625)"/>
     </g>
    </g>
    <g id="PathCollection_2">
     <g>
      <use xlink:href="#mee9c596185" x="282.3" y="240.344375" style="fill: #ff0000; stroke: #ff0000"/>
     </g>
    </g>
    <g id="text_23">
     <!-- Wezly interpolacji -->
     <g transform="translate(300.3 242.969375) scale(0.1 -0.1)">
      <defs>
       <path id="DejaVuSans-57" d="M 213 4666 
L 850 4666 
L 1831 722 
L 2809 4666 
L 3519 4666 
L 4500 722 
L 5478 4666 
L 6119 4666 
L 4947 0 
L 4153 0 
L 3169 4050 
L 2175 0 
L 1381 0 
L 213 4666 
z
" transform="scale(0.015625)"/>
       <path id="DejaVuSans-7a" d="M 353 3500 
L 3084 3500 
L 3084 2975 
L 922 459 
L 3084 459 
L 3084 0 
L 275 0 
L 275 525 
L 2438 3041 
L 353 3041 
L 353 3500 
z
" transform="scale(0.015625)"/>
       <path id="DejaVuSans-79" d="M 2059 -325 
Q 1816 -950 1584 -1140 
Q 1353 -1331 966 -1331 
L 506 -1331 
L 506 -850 
L 844 -850 
Q 1081 -850 1212 -737 
Q 1344 -625 1503 -206 
L 1606 56 
L 191 3500 
L 800 3500 
L 1894 763 
L 2988 3500 
L 3597 3500 
L 2059 -325 
z
" transform="scale(0.015625)"/>
      </defs>
      <use xlink:href="#DejaVuSans-57"/>
      <use xlink:href="#DejaVuSans-65" x="93.001953"/>
      <use xlink:href="#DejaVuSans-7a" x="154.525391"/>
      <use xlink:href="#DejaVuSans-6c" x="207.015625"/>
      <use xlink:href="#DejaVuSans-79" x="234.798828"/>
      <use xlink:href="#DejaVuSans-20" x="293.978516"/>
      <use xlink:href="#DejaVuSans-69" x="325.765625"/>
      <use xlink:href="#DejaVuSans-6e" x="353.548828"/>
      <use xlink:href="#DejaVuSans-74" x="416.927734"/>
      <use xlink:href="#DejaVuSans-65" x="456.136719"/>
      <use xlink:href="#DejaVuSans-72" x="517.660156"/>
      <use xlink:href="#DejaVuSans-70" x="558.773438"/>
      <use xlink:href="#DejaVuSans-6f" x="622.25"/>
      <use xlink:href="#DejaVuSans-6c" x="683.431641"/>
      <use xlink:href="#DejaVuSans-61" x="711.214844"/>
      <use xlink:href="#DejaVuSans-63" x="772.494141"/>
      <use xlink:href="#DejaVuSans-6a" x="827.474609"/>
      <use xlink:href="#DejaVuSans-69" x="855.257812"/>
     </g>
    </g>
   </g>
  </g>
 </g>
 <defs>
  <clipPath id="p35a93a8f77">
   <rect x="90" y="51.84" width="558" height="332.64"/>
  </clipPath>
 </defs>
</svg>
