<?xml version="1.0" encoding="utf-8" standalone="no"?>
<!DOCTYPE svg PUBLIC "-//W3C//DTD SVG 1.1//EN"
  "http://www.w3.org/Graphics/SVG/1.1/DTD/svg11.dtd">
<svg xmlns:xlink="http://www.w3.org/1999/xlink" width="720pt" height="432pt" viewBox="0 0 720 432" xmlns="http://www.w3.org/2000/svg" version="1.1">
 <metadata>
  <rdf:RDF xmlns:dc="http://purl.org/dc/elements/1.1/" xmlns:cc="http://creativecommons.org/ns#" xmlns:rdf="http://www.w3.org/1999/02/22-rdf-syntax-ns#">
   <cc:Work>
    <dc:type rdf:resource="http://purl.org/dc/dcmitype/StillImage"/>
    <dc:date>2024-12-25T12:26:03.066305</dc:date>
    <dc:format>image/svg+xml</dc:format>
    <dc:creator>
     <cc:Agent>
      <dc:title>Matplotlib v3.9.2, https://matplotlib.org/</dc:title>
     </cc:Agent>
    </dc:creator>
   </cc:Work>
  </rdf:RDF>
 </metadata>
 <defs>
  <style type="text/css">*{stroke-linejoin: round; stroke-linecap: butt}</style>
 </defs>
 <g id="figure_1">
  <g id="patch_1">
   <path d="M 0 432 
L 720 432 
L 720 0 
L 0 0 
z
" style="fill: #ffffff"/>
  </g>
  <g id="axes_1">
   <g id="patch_2">
    <path d="M 90 384.48 
L 648 384.48 
L 648 51.84 
L 90 51.84 
z
" style="fill: #ffffff"/>
   </g>
   <g id="PathCollection_1">
    <defs>
     <path id="mfadc4d8f3e" d="M 0 3 
C 0.795609 3 1.55874 2.683901 2.12132 2.12132 
C 2.683901 1.55874 3 0.795609 3 0 
C 3 -0.795609 2.683901 -1.55874 2.12132 -2.12132 
C 1.55874 -2.683901 0.795609 -3 0 -3 
C -0.795609 -3 -1.55874 -2.683901 -2.12132 -2.12132 
C -2.683901 -1.55874 -3 -0.795609 -3 0 
C -3 0.795609 -2.683901 1.55874 -2.12132 2.12132 
C -1.55874 2.683901 -0.795609 3 0 3 
z
" style="stroke: #ff0000"/>
    </defs>
    <g clip-path="url(#pb8f54153fd)">
     <use xlink:href="#mfadc4d8f3e" x="115.363636" y="342.61076" style="fill: #ff0000; stroke: #ff0000"/>
     <use xlink:href="#mfadc4d8f3e" x="216.818182" y="304.257656" style="fill: #ff0000; stroke: #ff0000"/>
     <use xlink:href="#mfadc4d8f3e" x="318.272727" y="153.584746" style="fill: #ff0000; stroke: #ff0000"/>
     <use xlink:href="#mfadc4d8f3e" x="419.727273" y="153.584746" style="fill: #ff0000; stroke: #ff0000"/>
     <use xlink:href="#mfadc4d8f3e" x="521.181818" y="304.257656" style="fill: #ff0000; stroke: #ff0000"/>
     <use xlink:href="#mfadc4d8f3e" x="622.636364" y="342.61076" style="fill: #ff0000; stroke: #ff0000"/>
    </g>
   </g>
   <g id="matplotlib.axis_1">
    <g id="xtick_1">
     <g id="line2d_1">
      <path d="M 115.363636 384.48 
L 115.363636 51.84 
" clip-path="url(#pb8f54153fd)" style="fill: none; stroke: #b0b0b0; stroke-width: 0.8; stroke-linecap: square"/>
     </g>
     <g id="line2d_2">
      <defs>
       <path id="m13232d229b" d="M 0 0 
L 0 3.5 
" style="stroke: #000000; stroke-width: 0.8"/>
      </defs>
      <g>
       <use xlink:href="#m13232d229b" x="115.363636" y="384.48" style="stroke: #000000; stroke-width: 0.8"/>
      </g>
     </g>
     <g id="text_1">
      <!-- −1.00 -->
      <g transform="translate(100.04098 399.078438) scale(0.1 -0.1)">
       <defs>
        <path id="DejaVuSans-2212" d="M 678 2272 
L 4684 2272 
L 4684 1741 
L 678 1741 
L 678 2272 
z
" transform="scale(0.015625)"/>
        <path id="DejaVuSans-31" d="M 794 531 
L 1825 531 
L 1825 4091 
L 703 3866 
L 703 4441 
L 1819 4666 
L 2450 4666 
L 2450 531 
L 3481 531 
L 3481 0 
L 794 0 
L 794 531 
z
" transform="scale(0.015625)"/>
        <path id="DejaVuSans-2e" d="M 684 794 
L 1344 794 
L 1344 0 
L 684 0 
L 684 794 
z
" transform="scale(0.015625)"/>
        <path id="DejaVuSans-30" d="M 2034 4250 
Q 1547 4250 1301 3770 
Q 1056 3291 1056 2328 
Q 1056 1369 1301 889 
Q 1547 409 2034 409 
Q 2525 409 2770 889 
Q 3016 1369 3016 2328 
Q 3016 3291 2770 3770 
Q 2525 4250 2034 4250 
z
M 2034 4750 
Q 2819 4750 3233 4129 
Q 3647 3509 3647 2328 
Q 3647 1150 3233 529 
Q 2819 -91 2034 -91 
Q 1250 -91 836 529 
Q 422 1150 422 2328 
Q 422 3509 836 4129 
Q 1250 4750 2034 4750 
z
" transform="scale(0.015625)"/>
       </defs>
       <use xlink:href="#DejaVuSans-2212"/>
       <use xlink:href="#DejaVuSans-31" x="83.789062"/>
       <use xlink:href="#DejaVuSans-2e" x="147.412109"/>
       <use xlink:href="#DejaVuSans-30" x="179.199219"/>
       <use xlink:href="#DejaVuSans-30" x="242.822266"/>
      </g>
     </g>
    </g>
    <g id="xtick_2">
     <g id="line2d_3">
      <path d="M 178.772727 384.48 
L 178.772727 51.84 
" clip-path="url(#pb8f54153fd)" style="fill: none; stroke: #b0b0b0; stroke-width: 0.8; stroke-linecap: square"/>
     </g>
     <g id="line2d_4">
      <g>
       <use xlink:href="#m13232d229b" x="178.772727" y="384.48" style="stroke: #000000; stroke-width: 0.8"/>
      </g>
     </g>
     <g id="text_2">
      <!-- −0.75 -->
      <g transform="translate(163.450071 399.078438) scale(0.1 -0.1)">
       <defs>
        <path id="DejaVuSans-37" d="M 525 4666 
L 3525 4666 
L 3525 4397 
L 1831 0 
L 1172 0 
L 2766 4134 
L 525 4134 
L 525 4666 
z
" transform="scale(0.015625)"/>
        <path id="DejaVuSans-35" d="M 691 4666 
L 3169 4666 
L 3169 4134 
L 1269 4134 
L 1269 2991 
Q 1406 3038 1543 3061 
Q 1681 3084 1819 3084 
Q 2600 3084 3056 2656 
Q 3513 2228 3513 1497 
Q 3513 744 3044 326 
Q 2575 -91 1722 -91 
Q 1428 -91 1123 -41 
Q 819 9 494 109 
L 494 744 
Q 775 591 1075 516 
Q 1375 441 1709 441 
Q 2250 441 2565 725 
Q 2881 1009 2881 1497 
Q 2881 1984 2565 2268 
Q 2250 2553 1709 2553 
Q 1456 2553 1204 2497 
Q 953 2441 691 2322 
L 691 4666 
z
" transform="scale(0.015625)"/>
       </defs>
       <use xlink:href="#DejaVuSans-2212"/>
       <use xlink:href="#DejaVuSans-30" x="83.789062"/>
       <use xlink:href="#DejaVuSans-2e" x="147.412109"/>
       <use xlink:href="#DejaVuSans-37" x="179.199219"/>
       <use xlink:href="#DejaVuSans-35" x="242.822266"/>
      </g>
     </g>
    </g>
    <g id="xtick_3">
     <g id="line2d_5">
      <path d="M 242.181818 384.48 
L 242.181818 51.84 
" clip-path="url(#pb8f54153fd)" style="fill: none; stroke: #b0b0b0; stroke-width: 0.8; stroke-linecap: square"/>
     </g>
     <g id="line2d_6">
      <g>
       <use xlink:href="#m13232d229b" x="242.181818" y="384.48" style="stroke: #000000; stroke-width: 0.8"/>
      </g>
     </g>
     <g id="text_3">
      <!-- −0.50 -->
      <g transform="translate(226.859162 399.078438) scale(0.1 -0.1)">
       <use xlink:href="#DejaVuSans-2212"/>
       <use xlink:href="#DejaVuSans-30" x="83.789062"/>
       <use xlink:href="#DejaVuSans-2e" x="147.412109"/>
       <use xlink:href="#DejaVuSans-35" x="179.199219"/>
       <use xlink:href="#DejaVuSans-30" x="242.822266"/>
      </g>
     </g>
    </g>
    <g id="xtick_4">
     <g id="line2d_7">
      <path d="M 305.590909 384.48 
L 305.590909 51.84 
" clip-path="url(#pb8f54153fd)" style="fill: none; stroke: #b0b0b0; stroke-width: 0.8; stroke-linecap: square"/>
     </g>
     <g id="line2d_8">
      <g>
       <use xlink:href="#m13232d229b" x="305.590909" y="384.48" style="stroke: #000000; stroke-width: 0.8"/>
      </g>
     </g>
     <g id="text_4">
      <!-- −0.25 -->
      <g transform="translate(290.268253 399.078438) scale(0.1 -0.1)">
       <defs>
        <path id="DejaVuSans-32" d="M 1228 531 
L 3431 531 
L 3431 0 
L 469 0 
L 469 531 
Q 828 903 1448 1529 
Q 2069 2156 2228 2338 
Q 2531 2678 2651 2914 
Q 2772 3150 2772 3378 
Q 2772 3750 2511 3984 
Q 2250 4219 1831 4219 
Q 1534 4219 1204 4116 
Q 875 4013 500 3803 
L 500 4441 
Q 881 4594 1212 4672 
Q 1544 4750 1819 4750 
Q 2544 4750 2975 4387 
Q 3406 4025 3406 3419 
Q 3406 3131 3298 2873 
Q 3191 2616 2906 2266 
Q 2828 2175 2409 1742 
Q 1991 1309 1228 531 
z
" transform="scale(0.015625)"/>
       </defs>
       <use xlink:href="#DejaVuSans-2212"/>
       <use xlink:href="#DejaVuSans-30" x="83.789062"/>
       <use xlink:href="#DejaVuSans-2e" x="147.412109"/>
       <use xlink:href="#DejaVuSans-32" x="179.199219"/>
       <use xlink:href="#DejaVuSans-35" x="242.822266"/>
      </g>
     </g>
    </g>
    <g id="xtick_5">
     <g id="line2d_9">
      <path d="M 369 384.48 
L 369 51.84 
" clip-path="url(#pb8f54153fd)" style="fill: none; stroke: #b0b0b0; stroke-width: 0.8; stroke-linecap: square"/>
     </g>
     <g id="line2d_10">
      <g>
       <use xlink:href="#m13232d229b" x="369" y="384.48" style="stroke: #000000; stroke-width: 0.8"/>
      </g>
     </g>
     <g id="text_5">
      <!-- 0.00 -->
      <g transform="translate(357.867188 399.078438) scale(0.1 -0.1)">
       <use xlink:href="#DejaVuSans-30"/>
       <use xlink:href="#DejaVuSans-2e" x="63.623047"/>
       <use xlink:href="#DejaVuSans-30" x="95.410156"/>
       <use xlink:href="#DejaVuSans-30" x="159.033203"/>
      </g>
     </g>
    </g>
    <g id="xtick_6">
     <g id="line2d_11">
      <path d="M 432.409091 384.48 
L 432.409091 51.84 
" clip-path="url(#pb8f54153fd)" style="fill: none; stroke: #b0b0b0; stroke-width: 0.8; stroke-linecap: square"/>
     </g>
     <g id="line2d_12">
      <g>
       <use xlink:href="#m13232d229b" x="432.409091" y="384.48" style="stroke: #000000; stroke-width: 0.8"/>
      </g>
     </g>
     <g id="text_6">
      <!-- 0.25 -->
      <g transform="translate(421.276278 399.078438) scale(0.1 -0.1)">
       <use xlink:href="#DejaVuSans-30"/>
       <use xlink:href="#DejaVuSans-2e" x="63.623047"/>
       <use xlink:href="#DejaVuSans-32" x="95.410156"/>
       <use xlink:href="#DejaVuSans-35" x="159.033203"/>
      </g>
     </g>
    </g>
    <g id="xtick_7">
     <g id="line2d_13">
      <path d="M 495.818182 384.48 
L 495.818182 51.84 
" clip-path="url(#pb8f54153fd)" style="fill: none; stroke: #b0b0b0; stroke-width: 0.8; stroke-linecap: square"/>
     </g>
     <g id="line2d_14">
      <g>
       <use xlink:href="#m13232d229b" x="495.818182" y="384.48" style="stroke: #000000; stroke-width: 0.8"/>
      </g>
     </g>
     <g id="text_7">
      <!-- 0.50 -->
      <g transform="translate(484.685369 399.078438) scale(0.1 -0.1)">
       <use xlink:href="#DejaVuSans-30"/>
       <use xlink:href="#DejaVuSans-2e" x="63.623047"/>
       <use xlink:href="#DejaVuSans-35" x="95.410156"/>
       <use xlink:href="#DejaVuSans-30" x="159.033203"/>
      </g>
     </g>
    </g>
    <g id="xtick_8">
     <g id="line2d_15">
      <path d="M 559.227273 384.48 
L 559.227273 51.84 
" clip-path="url(#pb8f54153fd)" style="fill: none; stroke: #b0b0b0; stroke-width: 0.8; stroke-linecap: square"/>
     </g>
     <g id="line2d_16">
      <g>
       <use xlink:href="#m13232d229b" x="559.227273" y="384.48" style="stroke: #000000; stroke-width: 0.8"/>
      </g>
     </g>
     <g id="text_8">
      <!-- 0.75 -->
      <g transform="translate(548.09446 399.078438) scale(0.1 -0.1)">
       <use xlink:href="#DejaVuSans-30"/>
       <use xlink:href="#DejaVuSans-2e" x="63.623047"/>
       <use xlink:href="#DejaVuSans-37" x="95.410156"/>
       <use xlink:href="#DejaVuSans-35" x="159.033203"/>
      </g>
     </g>
    </g>
    <g id="xtick_9">
     <g id="line2d_17">
      <path d="M 622.636364 384.48 
L 622.636364 51.84 
" clip-path="url(#pb8f54153fd)" style="fill: none; stroke: #b0b0b0; stroke-width: 0.8; stroke-linecap: square"/>
     </g>
     <g id="line2d_18">
      <g>
       <use xlink:href="#m13232d229b" x="622.636364" y="384.48" style="stroke: #000000; stroke-width: 0.8"/>
      </g>
     </g>
     <g id="text_9">
      <!-- 1.00 -->
      <g transform="translate(611.503551 399.078438) scale(0.1 -0.1)">
       <use xlink:href="#DejaVuSans-31"/>
       <use xlink:href="#DejaVuSans-2e" x="63.623047"/>
       <use xlink:href="#DejaVuSans-30" x="95.410156"/>
       <use xlink:href="#DejaVuSans-30" x="159.033203"/>
      </g>
     </g>
    </g>
   </g>
   <g id="matplotlib.axis_2">
    <g id="ytick_1">
     <g id="line2d_19">
      <path d="M 90 370.177054 
L 648 370.177054 
" clip-path="url(#pb8f54153fd)" style="fill: none; stroke: #b0b0b0; stroke-width: 0.8; stroke-linecap: square"/>
     </g>
     <g id="line2d_20">
      <defs>
       <path id="mef2756efb3" d="M 0 0 
L -3.5 0 
" style="stroke: #000000; stroke-width: 0.8"/>
      </defs>
      <g>
       <use xlink:href="#mef2756efb3" x="90" y="370.177054" style="stroke: #000000; stroke-width: 0.8"/>
      </g>
     </g>
     <g id="text_10">
      <!-- 0.0 -->
      <g transform="translate(67.096875 373.976273) scale(0.1 -0.1)">
       <use xlink:href="#DejaVuSans-30"/>
       <use xlink:href="#DejaVuSans-2e" x="63.623047"/>
       <use xlink:href="#DejaVuSans-30" x="95.410156"/>
      </g>
     </g>
    </g>
    <g id="ytick_2">
     <g id="line2d_21">
      <path d="M 90 309.531208 
L 648 309.531208 
" clip-path="url(#pb8f54153fd)" style="fill: none; stroke: #b0b0b0; stroke-width: 0.8; stroke-linecap: square"/>
     </g>
     <g id="line2d_22">
      <g>
       <use xlink:href="#mef2756efb3" x="90" y="309.531208" style="stroke: #000000; stroke-width: 0.8"/>
      </g>
     </g>
     <g id="text_11">
      <!-- 0.2 -->
      <g transform="translate(67.096875 313.330426) scale(0.1 -0.1)">
       <use xlink:href="#DejaVuSans-30"/>
       <use xlink:href="#DejaVuSans-2e" x="63.623047"/>
       <use xlink:href="#DejaVuSans-32" x="95.410156"/>
      </g>
     </g>
    </g>
    <g id="ytick_3">
     <g id="line2d_23">
      <path d="M 90 248.885361 
L 648 248.885361 
" clip-path="url(#pb8f54153fd)" style="fill: none; stroke: #b0b0b0; stroke-width: 0.8; stroke-linecap: square"/>
     </g>
     <g id="line2d_24">
      <g>
       <use xlink:href="#mef2756efb3" x="90" y="248.885361" style="stroke: #000000; stroke-width: 0.8"/>
      </g>
     </g>
     <g id="text_12">
      <!-- 0.4 -->
      <g transform="translate(67.096875 252.68458) scale(0.1 -0.1)">
       <defs>
        <path id="DejaVuSans-34" d="M 2419 4116 
L 825 1625 
L 2419 1625 
L 2419 4116 
z
M 2253 4666 
L 3047 4666 
L 3047 1625 
L 3713 1625 
L 3713 1100 
L 3047 1100 
L 3047 0 
L 2419 0 
L 2419 1100 
L 313 1100 
L 313 1709 
L 2253 4666 
z
" transform="scale(0.015625)"/>
       </defs>
       <use xlink:href="#DejaVuSans-30"/>
       <use xlink:href="#DejaVuSans-2e" x="63.623047"/>
       <use xlink:href="#DejaVuSans-34" x="95.410156"/>
      </g>
     </g>
    </g>
    <g id="ytick_4">
     <g id="line2d_25">
      <path d="M 90 188.239515 
L 648 188.239515 
" clip-path="url(#pb8f54153fd)" style="fill: none; stroke: #b0b0b0; stroke-width: 0.8; stroke-linecap: square"/>
     </g>
     <g id="line2d_26">
      <g>
       <use xlink:href="#mef2756efb3" x="90" y="188.239515" style="stroke: #000000; stroke-width: 0.8"/>
      </g>
     </g>
     <g id="text_13">
      <!-- 0.6 -->
      <g transform="translate(67.096875 192.038734) scale(0.1 -0.1)">
       <defs>
        <path id="DejaVuSans-36" d="M 2113 2584 
Q 1688 2584 1439 2293 
Q 1191 2003 1191 1497 
Q 1191 994 1439 701 
Q 1688 409 2113 409 
Q 2538 409 2786 701 
Q 3034 994 3034 1497 
Q 3034 2003 2786 2293 
Q 2538 2584 2113 2584 
z
M 3366 4563 
L 3366 3988 
Q 3128 4100 2886 4159 
Q 2644 4219 2406 4219 
Q 1781 4219 1451 3797 
Q 1122 3375 1075 2522 
Q 1259 2794 1537 2939 
Q 1816 3084 2150 3084 
Q 2853 3084 3261 2657 
Q 3669 2231 3669 1497 
Q 3669 778 3244 343 
Q 2819 -91 2113 -91 
Q 1303 -91 875 529 
Q 447 1150 447 2328 
Q 447 3434 972 4092 
Q 1497 4750 2381 4750 
Q 2619 4750 2861 4703 
Q 3103 4656 3366 4563 
z
" transform="scale(0.015625)"/>
       </defs>
       <use xlink:href="#DejaVuSans-30"/>
       <use xlink:href="#DejaVuSans-2e" x="63.623047"/>
       <use xlink:href="#DejaVuSans-36" x="95.410156"/>
      </g>
     </g>
    </g>
    <g id="ytick_5">
     <g id="line2d_27">
      <path d="M 90 127.593669 
L 648 127.593669 
" clip-path="url(#pb8f54153fd)" style="fill: none; stroke: #b0b0b0; stroke-width: 0.8; stroke-linecap: square"/>
     </g>
     <g id="line2d_28">
      <g>
       <use xlink:href="#mef2756efb3" x="90" y="127.593669" style="stroke: #000000; stroke-width: 0.8"/>
      </g>
     </g>
     <g id="text_14">
      <!-- 0.8 -->
      <g transform="translate(67.096875 131.392888) scale(0.1 -0.1)">
       <defs>
        <path id="DejaVuSans-38" d="M 2034 2216 
Q 1584 2216 1326 1975 
Q 1069 1734 1069 1313 
Q 1069 891 1326 650 
Q 1584 409 2034 409 
Q 2484 409 2743 651 
Q 3003 894 3003 1313 
Q 3003 1734 2745 1975 
Q 2488 2216 2034 2216 
z
M 1403 2484 
Q 997 2584 770 2862 
Q 544 3141 544 3541 
Q 544 4100 942 4425 
Q 1341 4750 2034 4750 
Q 2731 4750 3128 4425 
Q 3525 4100 3525 3541 
Q 3525 3141 3298 2862 
Q 3072 2584 2669 2484 
Q 3125 2378 3379 2068 
Q 3634 1759 3634 1313 
Q 3634 634 3220 271 
Q 2806 -91 2034 -91 
Q 1263 -91 848 271 
Q 434 634 434 1313 
Q 434 1759 690 2068 
Q 947 2378 1403 2484 
z
M 1172 3481 
Q 1172 3119 1398 2916 
Q 1625 2713 2034 2713 
Q 2441 2713 2670 2916 
Q 2900 3119 2900 3481 
Q 2900 3844 2670 4047 
Q 2441 4250 2034 4250 
Q 1625 4250 1398 4047 
Q 1172 3844 1172 3481 
z
" transform="scale(0.015625)"/>
       </defs>
       <use xlink:href="#DejaVuSans-30"/>
       <use xlink:href="#DejaVuSans-2e" x="63.623047"/>
       <use xlink:href="#DejaVuSans-38" x="95.410156"/>
      </g>
     </g>
    </g>
    <g id="ytick_6">
     <g id="line2d_29">
      <path d="M 90 66.947823 
L 648 66.947823 
" clip-path="url(#pb8f54153fd)" style="fill: none; stroke: #b0b0b0; stroke-width: 0.8; stroke-linecap: square"/>
     </g>
     <g id="line2d_30">
      <g>
       <use xlink:href="#mef2756efb3" x="90" y="66.947823" style="stroke: #000000; stroke-width: 0.8"/>
      </g>
     </g>
     <g id="text_15">
      <!-- 1.0 -->
      <g transform="translate(67.096875 70.747041) scale(0.1 -0.1)">
       <use xlink:href="#DejaVuSans-31"/>
       <use xlink:href="#DejaVuSans-2e" x="63.623047"/>
       <use xlink:href="#DejaVuSans-30" x="95.410156"/>
      </g>
     </g>
    </g>
   </g>
   <g id="line2d_31">
    <path d="M 115.363636 342.61076 
L 125.529422 340.490785 
L 134.67863 338.37517 
L 143.827837 336.035209 
L 151.960466 333.741832 
L 160.093095 331.221346 
L 167.209146 328.806853 
L 174.325196 326.174036 
L 181.441246 323.297713 
L 187.540718 320.616944 
L 193.640189 317.716169 
L 199.739661 314.572899 
L 205.839133 311.1621 
L 211.938604 307.455928 
L 217.021498 304.119613 
L 222.104391 300.537121 
L 227.187284 296.687105 
L 232.270177 292.546447 
L 237.35307 288.09021 
L 242.435963 283.291638 
L 247.518856 278.122227 
L 251.58517 273.699517 
L 255.651485 269.004211 
L 259.717799 264.0199 
L 263.784114 258.729991 
L 267.850428 253.117993 
L 271.916743 247.167884 
L 275.983057 240.864594 
L 280.049371 234.194621 
L 284.115686 227.146804 
L 288.182 219.71327 
L 292.248315 211.890596 
L 297.331208 201.569356 
L 302.414101 190.665862 
L 307.496994 179.225407 
L 313.596466 164.896674 
L 321.729095 145.120698 
L 331.894881 120.403221 
L 336.977774 108.636577 
L 341.044088 99.795276 
L 344.093824 93.61537 
L 347.14356 87.908186 
L 350.193296 82.750451 
L 352.226453 79.653789 
L 354.25961 76.854772 
L 356.292767 74.372603 
L 358.325925 72.224787 
L 360.359082 70.426837 
L 362.392239 68.992002 
L 364.425396 67.931029 
L 366.458553 67.251963 
L 368.491711 66.96 
L 370.524868 67.057384 
L 372.558025 67.543364 
L 374.591182 68.414215 
L 376.62434 69.663298 
L 378.657497 71.281195 
L 380.690654 73.255882 
L 382.723811 75.572944 
L 384.756968 78.215839 
L 386.790126 81.166172 
L 389.839862 86.124167 
L 392.889597 91.656624 
L 395.939333 97.687576 
L 400.005648 106.370346 
L 404.071962 115.620137 
L 410.171434 130.184232 
L 428.469849 174.514595 
L 433.552742 186.150639 
L 438.635635 197.275891 
L 443.718528 207.83381 
L 448.801421 217.794101 
L 452.867735 225.324801 
L 456.93405 232.468462 
L 461.000364 239.23196 
L 465.066679 245.625731 
L 469.132993 251.662773 
L 473.199308 257.357825 
L 477.265622 262.726721 
L 481.331937 267.785875 
L 485.398251 272.551882 
L 489.464565 277.041221 
L 494.547459 282.288365 
L 499.630352 287.15877 
L 504.713245 291.681277 
L 509.796138 295.882997 
L 514.879031 299.789233 
L 519.961924 303.423467 
L 525.044817 306.807392 
L 530.12771 309.960989 
L 536.227182 313.467006 
L 542.326653 316.696537 
L 548.426125 319.675525 
L 554.525597 322.427277 
L 561.641647 325.378259 
L 568.757697 328.07794 
L 575.873747 330.552421 
L 584.006376 333.13407 
L 592.139005 335.481713 
L 601.288213 337.87559 
L 610.43742 340.038604 
L 620.603206 342.204708 
L 622.636364 342.61076 
L 622.636364 342.61076 
" clip-path="url(#pb8f54153fd)" style="fill: none; stroke: #000000; stroke-width: 2; stroke-linecap: square"/>
   </g>
   <g id="line2d_32">
    <path d="M 115.363636 342.61076 
L 129.595737 342.385916 
L 137.728366 342.018478 
L 143.827837 341.540151 
L 149.927309 340.83373 
L 155.010202 340.035546 
L 160.093095 339.016735 
L 165.175988 337.749014 
L 170.258881 336.204096 
L 174.325196 334.749572 
L 178.39151 333.085058 
L 182.457825 331.19607 
L 186.524139 329.068128 
L 190.590454 326.68675 
L 194.656768 324.037452 
L 198.723083 321.105753 
L 202.789397 317.87717 
L 206.855711 314.337223 
L 210.922026 310.471428 
L 214.98834 306.265303 
L 219.054655 301.705573 
L 223.120969 296.801136 
L 227.187284 291.580351 
L 232.270177 284.653716 
L 237.35307 277.334811 
L 243.452541 268.114132 
L 250.568592 256.876565 
L 258.701221 243.590961 
L 287.165422 196.648556 
L 293.264893 187.147364 
L 299.364365 178.060724 
L 304.447258 170.875858 
L 309.530151 164.10357 
L 313.596466 159.020886 
L 317.66278 154.267547 
L 321.729095 149.869603 
L 325.795409 145.834361 
L 329.861723 142.161838 
L 333.928038 138.852033 
L 337.994352 135.904946 
L 341.044088 133.932665 
L 344.093824 132.164413 
L 347.14356 130.60019 
L 350.193296 129.239996 
L 353.243032 128.083831 
L 356.292767 127.131696 
L 359.342503 126.383589 
L 362.392239 125.839511 
L 365.441975 125.499463 
L 368.491711 125.363444 
L 371.541447 125.431453 
L 374.591182 125.703492 
L 377.640918 126.17956 
L 380.690654 126.859657 
L 383.74039 127.743783 
L 386.790126 128.831938 
L 389.839862 130.124122 
L 392.889597 131.620335 
L 395.939333 133.320578 
L 398.989069 135.224849 
L 402.038805 137.33315 
L 406.105119 140.461595 
L 410.171434 143.95276 
L 414.237748 147.806642 
L 418.304063 152.023243 
L 422.370377 156.601234 
L 426.436692 161.522874 
L 430.503006 166.759348 
L 435.585899 173.703469 
L 440.668792 181.037497 
L 446.768264 190.273203 
L 453.884314 201.524003 
L 462.016943 214.819058 
L 489.464565 260.131745 
L 496.580616 271.235341 
L 502.680087 280.305818 
L 507.762981 287.474616 
L 512.845874 294.228473 
L 516.912188 299.294712 
L 520.978502 304.030092 
L 525.044817 308.411812 
L 529.111131 312.445961 
L 533.177446 316.147022 
L 537.24376 319.529477 
L 541.310075 322.607808 
L 545.376389 325.396496 
L 549.442704 327.910024 
L 553.509018 330.162874 
L 557.575332 332.169528 
L 561.641647 333.944469 
L 565.707961 335.502178 
L 569.774276 336.857137 
L 574.857169 338.287782 
L 579.940062 339.452545 
L 585.022955 340.37971 
L 590.105848 341.097564 
L 596.20532 341.722523 
L 603.32137 342.187381 
L 611.453999 342.465211 
L 622.636364 342.61076 
L 622.636364 342.61076 
" clip-path="url(#pb8f54153fd)" style="fill: none; stroke-dasharray: 5.55,2.4; stroke-dashoffset: 0; stroke: #0000ff; stroke-width: 1.5"/>
   </g>
   <g id="line2d_33">
    <path d="M 115.363636 342.61076 
L 118.413372 347.48211 
L 121.463108 351.814218 
L 124.512844 355.62462 
L 127.56258 358.930639 
L 129.595737 360.862895 
L 131.628894 362.583605 
L 133.662051 364.097741 
L 135.695209 365.410235 
L 137.728366 366.525975 
L 139.761523 367.449807 
L 141.79468 368.186535 
L 143.827837 368.740921 
L 145.860995 369.117683 
L 147.894152 369.321498 
L 149.927309 369.357 
L 151.960466 369.22878 
L 153.993624 368.941388 
L 156.026781 368.49933 
L 159.076517 367.556 
L 162.126253 366.289597 
L 165.175988 364.714793 
L 168.225724 362.846048 
L 171.27546 360.697607 
L 174.325196 358.283497 
L 177.374932 355.617535 
L 180.424668 352.71332 
L 184.490982 348.493522 
L 188.557296 343.90507 
L 192.623611 338.978417 
L 196.689925 333.743342 
L 201.772818 326.810044 
L 206.855711 319.495592 
L 212.955183 310.290599 
L 220.071233 299.074704 
L 228.203862 285.794335 
L 240.402806 265.353797 
L 257.684642 236.37801 
L 266.83385 221.495728 
L 273.9499 210.315312 
L 281.06595 199.577354 
L 287.165422 190.787757 
L 293.264893 182.431276 
L 298.347786 175.830514 
L 303.43068 169.585265 
L 308.513573 163.717733 
L 313.596466 158.248463 
L 317.66278 154.172545 
L 321.729095 150.372542 
L 325.795409 146.856685 
L 329.861723 143.632523 
L 333.928038 140.706928 
L 337.994352 138.086093 
L 342.060667 135.775532 
L 346.126981 133.78008 
L 350.193296 132.103894 
L 353.243032 131.058392 
L 356.292767 130.195664 
L 359.342503 129.516712 
L 362.392239 129.022325 
L 365.441975 128.713075 
L 368.491711 128.589319 
L 371.541447 128.651201 
L 374.591182 128.898649 
L 377.640918 129.331377 
L 380.690654 129.948884 
L 383.74039 130.750454 
L 386.790126 131.735156 
L 389.839862 132.901845 
L 393.906176 134.738141 
L 397.97249 136.89171 
L 402.038805 139.358055 
L 406.105119 142.132002 
L 410.171434 145.207697 
L 414.237748 148.578608 
L 418.304063 152.237524 
L 422.370377 156.176555 
L 426.436692 160.387133 
L 431.519585 166.018068 
L 436.602478 172.039245 
L 441.685371 178.429456 
L 446.768264 185.165836 
L 452.867735 193.67179 
L 458.967207 202.595302 
L 465.066679 211.887414 
L 472.182729 223.123986 
L 480.315358 236.37801 
L 491.497723 255.064549 
L 511.829295 289.15067 
L 519.961924 302.324247 
L 527.077974 313.405732 
L 533.177446 322.463638 
L 538.260339 329.632164 
L 543.343232 336.397598 
L 547.409546 341.482141 
L 551.475861 346.243459 
L 555.542175 350.651433 
L 559.60849 354.675271 
L 562.658226 357.422151 
L 565.707961 359.921735 
L 568.757697 362.160281 
L 571.807433 364.123831 
L 574.857169 365.798211 
L 577.906905 367.169034 
L 580.956641 368.221699 
L 584.006376 368.941388 
L 586.039534 369.22878 
L 588.072691 369.357 
L 590.105848 369.321498 
L 592.139005 369.117683 
L 594.172163 368.740921 
L 596.20532 368.186535 
L 598.238477 367.449807 
L 600.271634 366.525975 
L 602.304791 365.410235 
L 604.337949 364.097741 
L 606.371106 362.583605 
L 608.404263 360.862895 
L 610.43742 358.930639 
L 612.470578 356.781819 
L 614.503735 354.411379 
L 617.553471 350.429011 
L 620.603206 345.919115 
L 622.636364 342.61076 
L 622.636364 342.61076 
" clip-path="url(#pb8f54153fd)" style="fill: none; stroke-dasharray: 5.55,2.4; stroke-dashoffset: 0; stroke: #008000; stroke-width: 1.5"/>
   </g>
   <g id="patch_3">
    <path d="M 90 384.48 
L 90 51.84 
" style="fill: none; stroke: #000000; stroke-width: 0.8; stroke-linejoin: miter; stroke-linecap: square"/>
   </g>
   <g id="patch_4">
    <path d="M 648 384.48 
L 648 51.84 
" style="fill: none; stroke: #000000; stroke-width: 0.8; stroke-linejoin: miter; stroke-linecap: square"/>
   </g>
   <g id="patch_5">
    <path d="M 90 384.48 
L 648 384.48 
" style="fill: none; stroke: #000000; stroke-width: 0.8; stroke-linejoin: miter; stroke-linecap: square"/>
   </g>
   <g id="patch_6">
    <path d="M 90 51.84 
L 648 51.84 
" style="fill: none; stroke: #000000; stroke-width: 0.8; stroke-linejoin: miter; stroke-linecap: square"/>
   </g>
   <g id="text_16">
    <!-- Porownanie interpolacji dla n=5 -->
    <g transform="translate(273.42 45.84) scale(0.12 -0.12)">
     <defs>
      <path id="DejaVuSans-50" d="M 1259 4147 
L 1259 2394 
L 2053 2394 
Q 2494 2394 2734 2622 
Q 2975 2850 2975 3272 
Q 2975 3691 2734 3919 
Q 2494 4147 2053 4147 
L 1259 4147 
z
M 628 4666 
L 2053 4666 
Q 2838 4666 3239 4311 
Q 3641 3956 3641 3272 
Q 3641 2581 3239 2228 
Q 2838 1875 2053 1875 
L 1259 1875 
L 1259 0 
L 628 0 
L 628 4666 
z
" transform="scale(0.015625)"/>
      <path id="DejaVuSans-6f" d="M 1959 3097 
Q 1497 3097 1228 2736 
Q 959 2375 959 1747 
Q 959 1119 1226 758 
Q 1494 397 1959 397 
Q 2419 397 2687 759 
Q 2956 1122 2956 1747 
Q 2956 2369 2687 2733 
Q 2419 3097 1959 3097 
z
M 1959 3584 
Q 2709 3584 3137 3096 
Q 3566 2609 3566 1747 
Q 3566 888 3137 398 
Q 2709 -91 1959 -91 
Q 1206 -91 779 398 
Q 353 888 353 1747 
Q 353 2609 779 3096 
Q 1206 3584 1959 3584 
z
" transform="scale(0.015625)"/>
      <path id="DejaVuSans-72" d="M 2631 2963 
Q 2534 3019 2420 3045 
Q 2306 3072 2169 3072 
Q 1681 3072 1420 2755 
Q 1159 2438 1159 1844 
L 1159 0 
L 581 0 
L 581 3500 
L 1159 3500 
L 1159 2956 
Q 1341 3275 1631 3429 
Q 1922 3584 2338 3584 
Q 2397 3584 2469 3576 
Q 2541 3569 2628 3553 
L 2631 2963 
z
" transform="scale(0.015625)"/>
      <path id="DejaVuSans-77" d="M 269 3500 
L 844 3500 
L 1563 769 
L 2278 3500 
L 2956 3500 
L 3675 769 
L 4391 3500 
L 4966 3500 
L 4050 0 
L 3372 0 
L 2619 2869 
L 1863 0 
L 1184 0 
L 269 3500 
z
" transform="scale(0.015625)"/>
      <path id="DejaVuSans-6e" d="M 3513 2113 
L 3513 0 
L 2938 0 
L 2938 2094 
Q 2938 2591 2744 2837 
Q 2550 3084 2163 3084 
Q 1697 3084 1428 2787 
Q 1159 2491 1159 1978 
L 1159 0 
L 581 0 
L 581 3500 
L 1159 3500 
L 1159 2956 
Q 1366 3272 1645 3428 
Q 1925 3584 2291 3584 
Q 2894 3584 3203 3211 
Q 3513 2838 3513 2113 
z
" transform="scale(0.015625)"/>
      <path id="DejaVuSans-61" d="M 2194 1759 
Q 1497 1759 1228 1600 
Q 959 1441 959 1056 
Q 959 750 1161 570 
Q 1363 391 1709 391 
Q 2188 391 2477 730 
Q 2766 1069 2766 1631 
L 2766 1759 
L 2194 1759 
z
M 3341 1997 
L 3341 0 
L 2766 0 
L 2766 531 
Q 2569 213 2275 61 
Q 1981 -91 1556 -91 
Q 1019 -91 701 211 
Q 384 513 384 1019 
Q 384 1609 779 1909 
Q 1175 2209 1959 2209 
L 2766 2209 
L 2766 2266 
Q 2766 2663 2505 2880 
Q 2244 3097 1772 3097 
Q 1472 3097 1187 3025 
Q 903 2953 641 2809 
L 641 3341 
Q 956 3463 1253 3523 
Q 1550 3584 1831 3584 
Q 2591 3584 2966 3190 
Q 3341 2797 3341 1997 
z
" transform="scale(0.015625)"/>
      <path id="DejaVuSans-69" d="M 603 3500 
L 1178 3500 
L 1178 0 
L 603 0 
L 603 3500 
z
M 603 4863 
L 1178 4863 
L 1178 4134 
L 603 4134 
L 603 4863 
z
" transform="scale(0.015625)"/>
      <path id="DejaVuSans-65" d="M 3597 1894 
L 3597 1613 
L 953 1613 
Q 991 1019 1311 708 
Q 1631 397 2203 397 
Q 2534 397 2845 478 
Q 3156 559 3463 722 
L 3463 178 
Q 3153 47 2828 -22 
Q 2503 -91 2169 -91 
Q 1331 -91 842 396 
Q 353 884 353 1716 
Q 353 2575 817 3079 
Q 1281 3584 2069 3584 
Q 2775 3584 3186 3129 
Q 3597 2675 3597 1894 
z
M 3022 2063 
Q 3016 2534 2758 2815 
Q 2500 3097 2075 3097 
Q 1594 3097 1305 2825 
Q 1016 2553 972 2059 
L 3022 2063 
z
" transform="scale(0.015625)"/>
      <path id="DejaVuSans-20" transform="scale(0.015625)"/>
      <path id="DejaVuSans-74" d="M 1172 4494 
L 1172 3500 
L 2356 3500 
L 2356 3053 
L 1172 3053 
L 1172 1153 
Q 1172 725 1289 603 
Q 1406 481 1766 481 
L 2356 481 
L 2356 0 
L 1766 0 
Q 1100 0 847 248 
Q 594 497 594 1153 
L 594 3053 
L 172 3053 
L 172 3500 
L 594 3500 
L 594 4494 
L 1172 4494 
z
" transform="scale(0.015625)"/>
      <path id="DejaVuSans-70" d="M 1159 525 
L 1159 -1331 
L 581 -1331 
L 581 3500 
L 1159 3500 
L 1159 2969 
Q 1341 3281 1617 3432 
Q 1894 3584 2278 3584 
Q 2916 3584 3314 3078 
Q 3713 2572 3713 1747 
Q 3713 922 3314 415 
Q 2916 -91 2278 -91 
Q 1894 -91 1617 61 
Q 1341 213 1159 525 
z
M 3116 1747 
Q 3116 2381 2855 2742 
Q 2594 3103 2138 3103 
Q 1681 3103 1420 2742 
Q 1159 2381 1159 1747 
Q 1159 1113 1420 752 
Q 1681 391 2138 391 
Q 2594 391 2855 752 
Q 3116 1113 3116 1747 
z
" transform="scale(0.015625)"/>
      <path id="DejaVuSans-6c" d="M 603 4863 
L 1178 4863 
L 1178 0 
L 603 0 
L 603 4863 
z
" transform="scale(0.015625)"/>
      <path id="DejaVuSans-63" d="M 3122 3366 
L 3122 2828 
Q 2878 2963 2633 3030 
Q 2388 3097 2138 3097 
Q 1578 3097 1268 2742 
Q 959 2388 959 1747 
Q 959 1106 1268 751 
Q 1578 397 2138 397 
Q 2388 397 2633 464 
Q 2878 531 3122 666 
L 3122 134 
Q 2881 22 2623 -34 
Q 2366 -91 2075 -91 
Q 1284 -91 818 406 
Q 353 903 353 1747 
Q 353 2603 823 3093 
Q 1294 3584 2113 3584 
Q 2378 3584 2631 3529 
Q 2884 3475 3122 3366 
z
" transform="scale(0.015625)"/>
      <path id="DejaVuSans-6a" d="M 603 3500 
L 1178 3500 
L 1178 -63 
Q 1178 -731 923 -1031 
Q 669 -1331 103 -1331 
L -116 -1331 
L -116 -844 
L 38 -844 
Q 366 -844 484 -692 
Q 603 -541 603 -63 
L 603 3500 
z
M 603 4863 
L 1178 4863 
L 1178 4134 
L 603 4134 
L 603 4863 
z
" transform="scale(0.015625)"/>
      <path id="DejaVuSans-64" d="M 2906 2969 
L 2906 4863 
L 3481 4863 
L 3481 0 
L 2906 0 
L 2906 525 
Q 2725 213 2448 61 
Q 2172 -91 1784 -91 
Q 1150 -91 751 415 
Q 353 922 353 1747 
Q 353 2572 751 3078 
Q 1150 3584 1784 3584 
Q 2172 3584 2448 3432 
Q 2725 3281 2906 2969 
z
M 947 1747 
Q 947 1113 1208 752 
Q 1469 391 1925 391 
Q 2381 391 2643 752 
Q 2906 1113 2906 1747 
Q 2906 2381 2643 2742 
Q 2381 3103 1925 3103 
Q 1469 3103 1208 2742 
Q 947 2381 947 1747 
z
" transform="scale(0.015625)"/>
      <path id="DejaVuSans-3d" d="M 678 2906 
L 4684 2906 
L 4684 2381 
L 678 2381 
L 678 2906 
z
M 678 1631 
L 4684 1631 
L 4684 1100 
L 678 1100 
L 678 1631 
z
" transform="scale(0.015625)"/>
     </defs>
     <use xlink:href="#DejaVuSans-50"/>
     <use xlink:href="#DejaVuSans-6f" x="56.677734"/>
     <use xlink:href="#DejaVuSans-72" x="117.859375"/>
     <use xlink:href="#DejaVuSans-6f" x="156.722656"/>
     <use xlink:href="#DejaVuSans-77" x="217.904297"/>
     <use xlink:href="#DejaVuSans-6e" x="299.691406"/>
     <use xlink:href="#DejaVuSans-61" x="363.070312"/>
     <use xlink:href="#DejaVuSans-6e" x="424.349609"/>
     <use xlink:href="#DejaVuSans-69" x="487.728516"/>
     <use xlink:href="#DejaVuSans-65" x="515.511719"/>
     <use xlink:href="#DejaVuSans-20" x="577.035156"/>
     <use xlink:href="#DejaVuSans-69" x="608.822266"/>
     <use xlink:href="#DejaVuSans-6e" x="636.605469"/>
     <use xlink:href="#DejaVuSans-74" x="699.984375"/>
     <use xlink:href="#DejaVuSans-65" x="739.193359"/>
     <use xlink:href="#DejaVuSans-72" x="800.716797"/>
     <use xlink:href="#DejaVuSans-70" x="841.830078"/>
     <use xlink:href="#DejaVuSans-6f" x="905.306641"/>
     <use xlink:href="#DejaVuSans-6c" x="966.488281"/>
     <use xlink:href="#DejaVuSans-61" x="994.271484"/>
     <use xlink:href="#DejaVuSans-63" x="1055.550781"/>
     <use xlink:href="#DejaVuSans-6a" x="1110.53125"/>
     <use xlink:href="#DejaVuSans-69" x="1138.314453"/>
     <use xlink:href="#DejaVuSans-20" x="1166.097656"/>
     <use xlink:href="#DejaVuSans-64" x="1197.884766"/>
     <use xlink:href="#DejaVuSans-6c" x="1261.361328"/>
     <use xlink:href="#DejaVuSans-61" x="1289.144531"/>
     <use xlink:href="#DejaVuSans-20" x="1350.423828"/>
     <use xlink:href="#DejaVuSans-6e" x="1382.210938"/>
     <use xlink:href="#DejaVuSans-3d" x="1445.589844"/>
     <use xlink:href="#DejaVuSans-35" x="1529.378906"/>
    </g>
   </g>
   <g id="legend_1">
    <g id="patch_7">
     <path d="M 443.6 118.618125 
L 641 118.618125 
Q 643 118.618125 643 116.618125 
L 643 58.84 
Q 643 56.84 641 56.84 
L 443.6 56.84 
Q 441.6 56.84 441.6 58.84 
L 441.6 116.618125 
Q 441.6 118.618125 443.6 118.618125 
z
" style="fill: #ffffff; opacity: 0.8; stroke: #cccccc; stroke-linejoin: miter"/>
    </g>
    <g id="line2d_34">
     <path d="M 445.6 64.94 
L 455.6 64.94 
L 465.6 64.94 
" style="fill: none; stroke: #000000; stroke-width: 2; stroke-linecap: square"/>
    </g>
    <g id="text_17">
     <!-- Funkcja $y(x)$ -->
     <g transform="translate(473.6 68.44) scale(0.1 -0.1)">
      <defs>
       <path id="DejaVuSans-46" d="M 628 4666 
L 3309 4666 
L 3309 4134 
L 1259 4134 
L 1259 2759 
L 3109 2759 
L 3109 2228 
L 1259 2228 
L 1259 0 
L 628 0 
L 628 4666 
z
" transform="scale(0.015625)"/>
       <path id="DejaVuSans-75" d="M 544 1381 
L 544 3500 
L 1119 3500 
L 1119 1403 
Q 1119 906 1312 657 
Q 1506 409 1894 409 
Q 2359 409 2629 706 
Q 2900 1003 2900 1516 
L 2900 3500 
L 3475 3500 
L 3475 0 
L 2900 0 
L 2900 538 
Q 2691 219 2414 64 
Q 2138 -91 1772 -91 
Q 1169 -91 856 284 
Q 544 659 544 1381 
z
M 1991 3584 
L 1991 3584 
z
" transform="scale(0.015625)"/>
       <path id="DejaVuSans-6b" d="M 581 4863 
L 1159 4863 
L 1159 1991 
L 2875 3500 
L 3609 3500 
L 1753 1863 
L 3688 0 
L 2938 0 
L 1159 1709 
L 1159 0 
L 581 0 
L 581 4863 
z
" transform="scale(0.015625)"/>
       <path id="DejaVuSans-Oblique-79" d="M 1588 -325 
Q 1188 -997 936 -1164 
Q 684 -1331 294 -1331 
L -159 -1331 
L -63 -850 
L 269 -850 
Q 509 -850 678 -719 
Q 847 -588 1056 -206 
L 1234 128 
L 459 3500 
L 1069 3500 
L 1650 819 
L 3256 3500 
L 3859 3500 
L 1588 -325 
z
" transform="scale(0.015625)"/>
       <path id="DejaVuSans-28" d="M 1984 4856 
Q 1566 4138 1362 3434 
Q 1159 2731 1159 2009 
Q 1159 1288 1364 580 
Q 1569 -128 1984 -844 
L 1484 -844 
Q 1016 -109 783 600 
Q 550 1309 550 2009 
Q 550 2706 781 3412 
Q 1013 4119 1484 4856 
L 1984 4856 
z
" transform="scale(0.015625)"/>
       <path id="DejaVuSans-Oblique-78" d="M 3841 3500 
L 2234 1784 
L 3219 0 
L 2559 0 
L 1819 1388 
L 531 0 
L -166 0 
L 1556 1844 
L 641 3500 
L 1300 3500 
L 1972 2234 
L 3144 3500 
L 3841 3500 
z
" transform="scale(0.015625)"/>
       <path id="DejaVuSans-29" d="M 513 4856 
L 1013 4856 
Q 1481 4119 1714 3412 
Q 1947 2706 1947 2009 
Q 1947 1309 1714 600 
Q 1481 -109 1013 -844 
L 513 -844 
Q 928 -128 1133 580 
Q 1338 1288 1338 2009 
Q 1338 2731 1133 3434 
Q 928 4138 513 4856 
z
" transform="scale(0.015625)"/>
      </defs>
      <use xlink:href="#DejaVuSans-46" transform="translate(0 0.015625)"/>
      <use xlink:href="#DejaVuSans-75" transform="translate(57.519531 0.015625)"/>
      <use xlink:href="#DejaVuSans-6e" transform="translate(120.898438 0.015625)"/>
      <use xlink:href="#DejaVuSans-6b" transform="translate(184.277344 0.015625)"/>
      <use xlink:href="#DejaVuSans-63" transform="translate(242.1875 0.015625)"/>
      <use xlink:href="#DejaVuSans-6a" transform="translate(297.167969 0.015625)"/>
      <use xlink:href="#DejaVuSans-61" transform="translate(324.951172 0.015625)"/>
      <use xlink:href="#DejaVuSans-20" transform="translate(386.230469 0.015625)"/>
      <use xlink:href="#DejaVuSans-Oblique-79" transform="translate(418.017578 0.015625)"/>
      <use xlink:href="#DejaVuSans-28" transform="translate(477.197266 0.015625)"/>
      <use xlink:href="#DejaVuSans-Oblique-78" transform="translate(516.210938 0.015625)"/>
      <use xlink:href="#DejaVuSans-29" transform="translate(575.390625 0.015625)"/>
     </g>
    </g>
    <g id="line2d_35">
     <path d="M 445.6 79.64 
L 455.6 79.64 
L 465.6 79.64 
" style="fill: none; stroke-dasharray: 5.55,2.4; stroke-dashoffset: 0; stroke: #0000ff; stroke-width: 1.5"/>
    </g>
    <g id="text_18">
     <!-- Interpolacja sklejana $s(x)$ -->
     <g transform="translate(473.6 83.14) scale(0.1 -0.1)">
      <defs>
       <path id="DejaVuSans-49" d="M 628 4666 
L 1259 4666 
L 1259 0 
L 628 0 
L 628 4666 
z
" transform="scale(0.015625)"/>
       <path id="DejaVuSans-73" d="M 2834 3397 
L 2834 2853 
Q 2591 2978 2328 3040 
Q 2066 3103 1784 3103 
Q 1356 3103 1142 2972 
Q 928 2841 928 2578 
Q 928 2378 1081 2264 
Q 1234 2150 1697 2047 
L 1894 2003 
Q 2506 1872 2764 1633 
Q 3022 1394 3022 966 
Q 3022 478 2636 193 
Q 2250 -91 1575 -91 
Q 1294 -91 989 -36 
Q 684 19 347 128 
L 347 722 
Q 666 556 975 473 
Q 1284 391 1588 391 
Q 1994 391 2212 530 
Q 2431 669 2431 922 
Q 2431 1156 2273 1281 
Q 2116 1406 1581 1522 
L 1381 1569 
Q 847 1681 609 1914 
Q 372 2147 372 2553 
Q 372 3047 722 3315 
Q 1072 3584 1716 3584 
Q 2034 3584 2315 3537 
Q 2597 3491 2834 3397 
z
" transform="scale(0.015625)"/>
       <path id="DejaVuSans-Oblique-73" d="M 3200 3397 
L 3091 2853 
Q 2863 2978 2609 3040 
Q 2356 3103 2088 3103 
Q 1634 3103 1373 2948 
Q 1113 2794 1113 2528 
Q 1113 2219 1719 2053 
Q 1766 2041 1788 2034 
L 1972 1978 
Q 2547 1819 2739 1644 
Q 2931 1469 2931 1166 
Q 2931 609 2489 259 
Q 2047 -91 1331 -91 
Q 1053 -91 747 -37 
Q 441 16 72 128 
L 184 722 
Q 500 559 806 475 
Q 1113 391 1394 391 
Q 1816 391 2080 572 
Q 2344 753 2344 1031 
Q 2344 1331 1650 1516 
L 1591 1531 
L 1394 1581 
Q 956 1697 753 1886 
Q 550 2075 550 2369 
Q 550 2928 970 3256 
Q 1391 3584 2113 3584 
Q 2397 3584 2667 3537 
Q 2938 3491 3200 3397 
z
" transform="scale(0.015625)"/>
      </defs>
      <use xlink:href="#DejaVuSans-49" transform="translate(0 0.015625)"/>
      <use xlink:href="#DejaVuSans-6e" transform="translate(29.492188 0.015625)"/>
      <use xlink:href="#DejaVuSans-74" transform="translate(92.871094 0.015625)"/>
      <use xlink:href="#DejaVuSans-65" transform="translate(132.080078 0.015625)"/>
      <use xlink:href="#DejaVuSans-72" transform="translate(193.603516 0.015625)"/>
      <use xlink:href="#DejaVuSans-70" transform="translate(234.716797 0.015625)"/>
      <use xlink:href="#DejaVuSans-6f" transform="translate(298.193359 0.015625)"/>
      <use xlink:href="#DejaVuSans-6c" transform="translate(359.375 0.015625)"/>
      <use xlink:href="#DejaVuSans-61" transform="translate(387.158203 0.015625)"/>
      <use xlink:href="#DejaVuSans-63" transform="translate(448.4375 0.015625)"/>
      <use xlink:href="#DejaVuSans-6a" transform="translate(503.417969 0.015625)"/>
      <use xlink:href="#DejaVuSans-61" transform="translate(531.201172 0.015625)"/>
      <use xlink:href="#DejaVuSans-20" transform="translate(592.480469 0.015625)"/>
      <use xlink:href="#DejaVuSans-73" transform="translate(624.267578 0.015625)"/>
      <use xlink:href="#DejaVuSans-6b" transform="translate(676.367188 0.015625)"/>
      <use xlink:href="#DejaVuSans-6c" transform="translate(734.277344 0.015625)"/>
      <use xlink:href="#DejaVuSans-65" transform="translate(762.060547 0.015625)"/>
      <use xlink:href="#DejaVuSans-6a" transform="translate(823.583984 0.015625)"/>
      <use xlink:href="#DejaVuSans-61" transform="translate(851.367188 0.015625)"/>
      <use xlink:href="#DejaVuSans-6e" transform="translate(912.646484 0.015625)"/>
      <use xlink:href="#DejaVuSans-61" transform="translate(976.025391 0.015625)"/>
      <use xlink:href="#DejaVuSans-20" transform="translate(1037.304688 0.015625)"/>
      <use xlink:href="#DejaVuSans-Oblique-73" transform="translate(1069.091797 0.015625)"/>
      <use xlink:href="#DejaVuSans-28" transform="translate(1121.191406 0.015625)"/>
      <use xlink:href="#DejaVuSans-Oblique-78" transform="translate(1160.205078 0.015625)"/>
      <use xlink:href="#DejaVuSans-29" transform="translate(1219.384766 0.015625)"/>
     </g>
    </g>
    <g id="line2d_36">
     <path d="M 445.6 94.34 
L 455.6 94.34 
L 465.6 94.34 
" style="fill: none; stroke-dasharray: 5.55,2.4; stroke-dashoffset: 0; stroke: #008000; stroke-width: 1.5"/>
    </g>
    <g id="text_19">
     <!-- Interpolacja wielomianowa $W_n(x)$ -->
     <g transform="translate(473.6 97.84) scale(0.1 -0.1)">
      <defs>
       <path id="DejaVuSans-6d" d="M 3328 2828 
Q 3544 3216 3844 3400 
Q 4144 3584 4550 3584 
Q 5097 3584 5394 3201 
Q 5691 2819 5691 2113 
L 5691 0 
L 5113 0 
L 5113 2094 
Q 5113 2597 4934 2840 
Q 4756 3084 4391 3084 
Q 3944 3084 3684 2787 
Q 3425 2491 3425 1978 
L 3425 0 
L 2847 0 
L 2847 2094 
Q 2847 2600 2669 2842 
Q 2491 3084 2119 3084 
Q 1678 3084 1418 2786 
Q 1159 2488 1159 1978 
L 1159 0 
L 581 0 
L 581 3500 
L 1159 3500 
L 1159 2956 
Q 1356 3278 1631 3431 
Q 1906 3584 2284 3584 
Q 2666 3584 2933 3390 
Q 3200 3197 3328 2828 
z
" transform="scale(0.015625)"/>
       <path id="DejaVuSans-Oblique-57" d="M 616 4666 
L 1228 4666 
L 1453 697 
L 3213 4666 
L 3916 4666 
L 4147 697 
L 5888 4666 
L 6528 4666 
L 4453 0 
L 3659 0 
L 3444 3891 
L 1697 0 
L 903 0 
L 616 4666 
z
" transform="scale(0.015625)"/>
       <path id="DejaVuSans-Oblique-6e" d="M 3566 2113 
L 3156 0 
L 2578 0 
L 2988 2091 
Q 3016 2238 3031 2350 
Q 3047 2463 3047 2528 
Q 3047 2791 2881 2937 
Q 2716 3084 2419 3084 
Q 1956 3084 1622 2776 
Q 1288 2469 1184 1941 
L 800 0 
L 225 0 
L 903 3500 
L 1478 3500 
L 1363 2950 
Q 1603 3253 1940 3418 
Q 2278 3584 2650 3584 
Q 3113 3584 3367 3334 
Q 3622 3084 3622 2631 
Q 3622 2519 3608 2391 
Q 3594 2263 3566 2113 
z
" transform="scale(0.015625)"/>
      </defs>
      <use xlink:href="#DejaVuSans-49" transform="translate(0 0.015625)"/>
      <use xlink:href="#DejaVuSans-6e" transform="translate(29.492188 0.015625)"/>
      <use xlink:href="#DejaVuSans-74" transform="translate(92.871094 0.015625)"/>
      <use xlink:href="#DejaVuSans-65" transform="translate(132.080078 0.015625)"/>
      <use xlink:href="#DejaVuSans-72" transform="translate(193.603516 0.015625)"/>
      <use xlink:href="#DejaVuSans-70" transform="translate(234.716797 0.015625)"/>
      <use xlink:href="#DejaVuSans-6f" transform="translate(298.193359 0.015625)"/>
      <use xlink:href="#DejaVuSans-6c" transform="translate(359.375 0.015625)"/>
      <use xlink:href="#DejaVuSans-61" transform="translate(387.158203 0.015625)"/>
      <use xlink:href="#DejaVuSans-63" transform="translate(448.4375 0.015625)"/>
      <use xlink:href="#DejaVuSans-6a" transform="translate(503.417969 0.015625)"/>
      <use xlink:href="#DejaVuSans-61" transform="translate(531.201172 0.015625)"/>
      <use xlink:href="#DejaVuSans-20" transform="translate(592.480469 0.015625)"/>
      <use xlink:href="#DejaVuSans-77" transform="translate(624.267578 0.015625)"/>
      <use xlink:href="#DejaVuSans-69" transform="translate(706.054688 0.015625)"/>
      <use xlink:href="#DejaVuSans-65" transform="translate(733.837891 0.015625)"/>
      <use xlink:href="#DejaVuSans-6c" transform="translate(795.361328 0.015625)"/>
      <use xlink:href="#DejaVuSans-6f" transform="translate(823.144531 0.015625)"/>
      <use xlink:href="#DejaVuSans-6d" transform="translate(884.326172 0.015625)"/>
      <use xlink:href="#DejaVuSans-69" transform="translate(981.738281 0.015625)"/>
      <use xlink:href="#DejaVuSans-61" transform="translate(1009.521484 0.015625)"/>
      <use xlink:href="#DejaVuSans-6e" transform="translate(1070.800781 0.015625)"/>
      <use xlink:href="#DejaVuSans-6f" transform="translate(1134.179688 0.015625)"/>
      <use xlink:href="#DejaVuSans-77" transform="translate(1195.361328 0.015625)"/>
      <use xlink:href="#DejaVuSans-61" transform="translate(1277.148438 0.015625)"/>
      <use xlink:href="#DejaVuSans-20" transform="translate(1338.427734 0.015625)"/>
      <use xlink:href="#DejaVuSans-Oblique-57" transform="translate(1370.214844 0.015625)"/>
      <use xlink:href="#DejaVuSans-Oblique-6e" transform="translate(1469.091797 -16.390625) scale(0.7)"/>
      <use xlink:href="#DejaVuSans-28" transform="translate(1516.191406 0.015625)"/>
      <use xlink:href="#DejaVuSans-Oblique-78" transform="translate(1555.205078 0.015625)"/>
      <use xlink:href="#DejaVuSans-29" transform="translate(1614.384766 0.015625)"/>
     </g>
    </g>
    <g id="PathCollection_2">
     <g>
      <use xlink:href="#mfadc4d8f3e" x="455.6" y="109.913437" style="fill: #ff0000; stroke: #ff0000"/>
     </g>
    </g>
    <g id="text_20">
     <!-- Wezly interpolacji -->
     <g transform="translate(473.6 112.538437) scale(0.1 -0.1)">
      <defs>
       <path id="DejaVuSans-57" d="M 213 4666 
L 850 4666 
L 1831 722 
L 2809 4666 
L 3519 4666 
L 4500 722 
L 5478 4666 
L 6119 4666 
L 4947 0 
L 4153 0 
L 3169 4050 
L 2175 0 
L 1381 0 
L 213 4666 
z
" transform="scale(0.015625)"/>
       <path id="DejaVuSans-7a" d="M 353 3500 
L 3084 3500 
L 3084 2975 
L 922 459 
L 3084 459 
L 3084 0 
L 275 0 
L 275 525 
L 2438 3041 
L 353 3041 
L 353 3500 
z
" transform="scale(0.015625)"/>
       <path id="DejaVuSans-79" d="M 2059 -325 
Q 1816 -950 1584 -1140 
Q 1353 -1331 966 -1331 
L 506 -1331 
L 506 -850 
L 844 -850 
Q 1081 -850 1212 -737 
Q 1344 -625 1503 -206 
L 1606 56 
L 191 3500 
L 800 3500 
L 1894 763 
L 2988 3500 
L 3597 3500 
L 2059 -325 
z
" transform="scale(0.015625)"/>
      </defs>
      <use xlink:href="#DejaVuSans-57"/>
      <use xlink:href="#DejaVuSans-65" x="93.001953"/>
      <use xlink:href="#DejaVuSans-7a" x="154.525391"/>
      <use xlink:href="#DejaVuSans-6c" x="207.015625"/>
      <use xlink:href="#DejaVuSans-79" x="234.798828"/>
      <use xlink:href="#DejaVuSans-20" x="293.978516"/>
      <use xlink:href="#DejaVuSans-69" x="325.765625"/>
      <use xlink:href="#DejaVuSans-6e" x="353.548828"/>
      <use xlink:href="#DejaVuSans-74" x="416.927734"/>
      <use xlink:href="#DejaVuSans-65" x="456.136719"/>
      <use xlink:href="#DejaVuSans-72" x="517.660156"/>
      <use xlink:href="#DejaVuSans-70" x="558.773438"/>
      <use xlink:href="#DejaVuSans-6f" x="622.25"/>
      <use xlink:href="#DejaVuSans-6c" x="683.431641"/>
      <use xlink:href="#DejaVuSans-61" x="711.214844"/>
      <use xlink:href="#DejaVuSans-63" x="772.494141"/>
      <use xlink:href="#DejaVuSans-6a" x="827.474609"/>
      <use xlink:href="#DejaVuSans-69" x="855.257812"/>
     </g>
    </g>
   </g>
  </g>
 </g>
 <defs>
  <clipPath id="pb8f54153fd">
   <rect x="90" y="51.84" width="558" height="332.64"/>
  </clipPath>
 </defs>
</svg>
