<?xml version="1.0" encoding="utf-8" standalone="no"?>
<!DOCTYPE svg PUBLIC "-//W3C//DTD SVG 1.1//EN"
  "http://www.w3.org/Graphics/SVG/1.1/DTD/svg11.dtd">
<svg xmlns:xlink="http://www.w3.org/1999/xlink" width="720pt" height="432pt" viewBox="0 0 720 432" xmlns="http://www.w3.org/2000/svg" version="1.1">
 <metadata>
  <rdf:RDF xmlns:dc="http://purl.org/dc/elements/1.1/" xmlns:cc="http://creativecommons.org/ns#" xmlns:rdf="http://www.w3.org/1999/02/22-rdf-syntax-ns#">
   <cc:Work>
    <dc:type rdf:resource="http://purl.org/dc/dcmitype/StillImage"/>
    <dc:date>2024-12-19T12:37:54.079573</dc:date>
    <dc:format>image/svg+xml</dc:format>
    <dc:creator>
     <cc:Agent>
      <dc:title>Matplotlib v3.9.2, https://matplotlib.org/</dc:title>
     </cc:Agent>
    </dc:creator>
   </cc:Work>
  </rdf:RDF>
 </metadata>
 <defs>
  <style type="text/css">*{stroke-linejoin: round; stroke-linecap: butt}</style>
 </defs>
 <g id="figure_1">
  <g id="patch_1">
   <path d="M 0 432 
L 720 432 
L 720 0 
L 0 0 
z
" style="fill: #ffffff"/>
  </g>
  <g id="axes_1">
   <g id="patch_2">
    <path d="M 90 384.48 
L 648 384.48 
L 648 51.84 
L 90 51.84 
z
" style="fill: #ffffff"/>
   </g>
   <g id="PathCollection_1">
    <defs>
     <path id="m4b1381bdcf" d="M 0 3 
C 0.795609 3 1.55874 2.683901 2.12132 2.12132 
C 2.683901 1.55874 3 0.795609 3 0 
C 3 -0.795609 2.683901 -1.55874 2.12132 -2.12132 
C 1.55874 -2.683901 0.795609 -3 0 -3 
C -0.795609 -3 -1.55874 -2.683901 -2.12132 -2.12132 
C -2.683901 -1.55874 -3 -0.795609 -3 0 
C -3 0.795609 -2.683901 1.55874 -2.12132 2.12132 
C -1.55874 2.683901 -0.795609 3 0 3 
z
" style="stroke: #ff0000"/>
    </defs>
    <g clip-path="url(#p6cfd814ac0)">
     <use xlink:href="#m4b1381bdcf" x="115.363636" y="359.003958" style="fill: #ff0000; stroke: #ff0000"/>
     <use xlink:href="#m4b1381bdcf" x="166.090909" y="344.796414" style="fill: #ff0000; stroke: #ff0000"/>
     <use xlink:href="#m4b1381bdcf" x="216.818182" y="318.371755" style="fill: #ff0000; stroke: #ff0000"/>
     <use xlink:href="#m4b1381bdcf" x="267.545455" y="264.651294" style="fill: #ff0000; stroke: #ff0000"/>
     <use xlink:href="#m4b1381bdcf" x="318.272727" y="158.745244" style="fill: #ff0000; stroke: #ff0000"/>
     <use xlink:href="#m4b1381bdcf" x="369" y="66.96" style="fill: #ff0000; stroke: #ff0000"/>
     <use xlink:href="#m4b1381bdcf" x="419.727273" y="158.745244" style="fill: #ff0000; stroke: #ff0000"/>
     <use xlink:href="#m4b1381bdcf" x="470.454545" y="264.651294" style="fill: #ff0000; stroke: #ff0000"/>
     <use xlink:href="#m4b1381bdcf" x="521.181818" y="318.371755" style="fill: #ff0000; stroke: #ff0000"/>
     <use xlink:href="#m4b1381bdcf" x="571.909091" y="344.796414" style="fill: #ff0000; stroke: #ff0000"/>
     <use xlink:href="#m4b1381bdcf" x="622.636364" y="359.003958" style="fill: #ff0000; stroke: #ff0000"/>
    </g>
   </g>
   <g id="matplotlib.axis_1">
    <g id="xtick_1">
     <g id="line2d_1">
      <path d="M 115.363636 384.48 
L 115.363636 51.84 
" clip-path="url(#p6cfd814ac0)" style="fill: none; stroke: #b0b0b0; stroke-width: 0.8; stroke-linecap: square"/>
     </g>
     <g id="line2d_2">
      <defs>
       <path id="m081342dd4e" d="M 0 0 
L 0 3.5 
" style="stroke: #000000; stroke-width: 0.8"/>
      </defs>
      <g>
       <use xlink:href="#m081342dd4e" x="115.363636" y="384.48" style="stroke: #000000; stroke-width: 0.8"/>
      </g>
     </g>
     <g id="text_1">
      <!-- −1.00 -->
      <g transform="translate(100.04098 399.078438) scale(0.1 -0.1)">
       <defs>
        <path id="DejaVuSans-2212" d="M 678 2272 
L 4684 2272 
L 4684 1741 
L 678 1741 
L 678 2272 
z
" transform="scale(0.015625)"/>
        <path id="DejaVuSans-31" d="M 794 531 
L 1825 531 
L 1825 4091 
L 703 3866 
L 703 4441 
L 1819 4666 
L 2450 4666 
L 2450 531 
L 3481 531 
L 3481 0 
L 794 0 
L 794 531 
z
" transform="scale(0.015625)"/>
        <path id="DejaVuSans-2e" d="M 684 794 
L 1344 794 
L 1344 0 
L 684 0 
L 684 794 
z
" transform="scale(0.015625)"/>
        <path id="DejaVuSans-30" d="M 2034 4250 
Q 1547 4250 1301 3770 
Q 1056 3291 1056 2328 
Q 1056 1369 1301 889 
Q 1547 409 2034 409 
Q 2525 409 2770 889 
Q 3016 1369 3016 2328 
Q 3016 3291 2770 3770 
Q 2525 4250 2034 4250 
z
M 2034 4750 
Q 2819 4750 3233 4129 
Q 3647 3509 3647 2328 
Q 3647 1150 3233 529 
Q 2819 -91 2034 -91 
Q 1250 -91 836 529 
Q 422 1150 422 2328 
Q 422 3509 836 4129 
Q 1250 4750 2034 4750 
z
" transform="scale(0.015625)"/>
       </defs>
       <use xlink:href="#DejaVuSans-2212"/>
       <use xlink:href="#DejaVuSans-31" x="83.789062"/>
       <use xlink:href="#DejaVuSans-2e" x="147.412109"/>
       <use xlink:href="#DejaVuSans-30" x="179.199219"/>
       <use xlink:href="#DejaVuSans-30" x="242.822266"/>
      </g>
     </g>
    </g>
    <g id="xtick_2">
     <g id="line2d_3">
      <path d="M 178.772727 384.48 
L 178.772727 51.84 
" clip-path="url(#p6cfd814ac0)" style="fill: none; stroke: #b0b0b0; stroke-width: 0.8; stroke-linecap: square"/>
     </g>
     <g id="line2d_4">
      <g>
       <use xlink:href="#m081342dd4e" x="178.772727" y="384.48" style="stroke: #000000; stroke-width: 0.8"/>
      </g>
     </g>
     <g id="text_2">
      <!-- −0.75 -->
      <g transform="translate(163.450071 399.078438) scale(0.1 -0.1)">
       <defs>
        <path id="DejaVuSans-37" d="M 525 4666 
L 3525 4666 
L 3525 4397 
L 1831 0 
L 1172 0 
L 2766 4134 
L 525 4134 
L 525 4666 
z
" transform="scale(0.015625)"/>
        <path id="DejaVuSans-35" d="M 691 4666 
L 3169 4666 
L 3169 4134 
L 1269 4134 
L 1269 2991 
Q 1406 3038 1543 3061 
Q 1681 3084 1819 3084 
Q 2600 3084 3056 2656 
Q 3513 2228 3513 1497 
Q 3513 744 3044 326 
Q 2575 -91 1722 -91 
Q 1428 -91 1123 -41 
Q 819 9 494 109 
L 494 744 
Q 775 591 1075 516 
Q 1375 441 1709 441 
Q 2250 441 2565 725 
Q 2881 1009 2881 1497 
Q 2881 1984 2565 2268 
Q 2250 2553 1709 2553 
Q 1456 2553 1204 2497 
Q 953 2441 691 2322 
L 691 4666 
z
" transform="scale(0.015625)"/>
       </defs>
       <use xlink:href="#DejaVuSans-2212"/>
       <use xlink:href="#DejaVuSans-30" x="83.789062"/>
       <use xlink:href="#DejaVuSans-2e" x="147.412109"/>
       <use xlink:href="#DejaVuSans-37" x="179.199219"/>
       <use xlink:href="#DejaVuSans-35" x="242.822266"/>
      </g>
     </g>
    </g>
    <g id="xtick_3">
     <g id="line2d_5">
      <path d="M 242.181818 384.48 
L 242.181818 51.84 
" clip-path="url(#p6cfd814ac0)" style="fill: none; stroke: #b0b0b0; stroke-width: 0.8; stroke-linecap: square"/>
     </g>
     <g id="line2d_6">
      <g>
       <use xlink:href="#m081342dd4e" x="242.181818" y="384.48" style="stroke: #000000; stroke-width: 0.8"/>
      </g>
     </g>
     <g id="text_3">
      <!-- −0.50 -->
      <g transform="translate(226.859162 399.078438) scale(0.1 -0.1)">
       <use xlink:href="#DejaVuSans-2212"/>
       <use xlink:href="#DejaVuSans-30" x="83.789062"/>
       <use xlink:href="#DejaVuSans-2e" x="147.412109"/>
       <use xlink:href="#DejaVuSans-35" x="179.199219"/>
       <use xlink:href="#DejaVuSans-30" x="242.822266"/>
      </g>
     </g>
    </g>
    <g id="xtick_4">
     <g id="line2d_7">
      <path d="M 305.590909 384.48 
L 305.590909 51.84 
" clip-path="url(#p6cfd814ac0)" style="fill: none; stroke: #b0b0b0; stroke-width: 0.8; stroke-linecap: square"/>
     </g>
     <g id="line2d_8">
      <g>
       <use xlink:href="#m081342dd4e" x="305.590909" y="384.48" style="stroke: #000000; stroke-width: 0.8"/>
      </g>
     </g>
     <g id="text_4">
      <!-- −0.25 -->
      <g transform="translate(290.268253 399.078438) scale(0.1 -0.1)">
       <defs>
        <path id="DejaVuSans-32" d="M 1228 531 
L 3431 531 
L 3431 0 
L 469 0 
L 469 531 
Q 828 903 1448 1529 
Q 2069 2156 2228 2338 
Q 2531 2678 2651 2914 
Q 2772 3150 2772 3378 
Q 2772 3750 2511 3984 
Q 2250 4219 1831 4219 
Q 1534 4219 1204 4116 
Q 875 4013 500 3803 
L 500 4441 
Q 881 4594 1212 4672 
Q 1544 4750 1819 4750 
Q 2544 4750 2975 4387 
Q 3406 4025 3406 3419 
Q 3406 3131 3298 2873 
Q 3191 2616 2906 2266 
Q 2828 2175 2409 1742 
Q 1991 1309 1228 531 
z
" transform="scale(0.015625)"/>
       </defs>
       <use xlink:href="#DejaVuSans-2212"/>
       <use xlink:href="#DejaVuSans-30" x="83.789062"/>
       <use xlink:href="#DejaVuSans-2e" x="147.412109"/>
       <use xlink:href="#DejaVuSans-32" x="179.199219"/>
       <use xlink:href="#DejaVuSans-35" x="242.822266"/>
      </g>
     </g>
    </g>
    <g id="xtick_5">
     <g id="line2d_9">
      <path d="M 369 384.48 
L 369 51.84 
" clip-path="url(#p6cfd814ac0)" style="fill: none; stroke: #b0b0b0; stroke-width: 0.8; stroke-linecap: square"/>
     </g>
     <g id="line2d_10">
      <g>
       <use xlink:href="#m081342dd4e" x="369" y="384.48" style="stroke: #000000; stroke-width: 0.8"/>
      </g>
     </g>
     <g id="text_5">
      <!-- 0.00 -->
      <g transform="translate(357.867188 399.078438) scale(0.1 -0.1)">
       <use xlink:href="#DejaVuSans-30"/>
       <use xlink:href="#DejaVuSans-2e" x="63.623047"/>
       <use xlink:href="#DejaVuSans-30" x="95.410156"/>
       <use xlink:href="#DejaVuSans-30" x="159.033203"/>
      </g>
     </g>
    </g>
    <g id="xtick_6">
     <g id="line2d_11">
      <path d="M 432.409091 384.48 
L 432.409091 51.84 
" clip-path="url(#p6cfd814ac0)" style="fill: none; stroke: #b0b0b0; stroke-width: 0.8; stroke-linecap: square"/>
     </g>
     <g id="line2d_12">
      <g>
       <use xlink:href="#m081342dd4e" x="432.409091" y="384.48" style="stroke: #000000; stroke-width: 0.8"/>
      </g>
     </g>
     <g id="text_6">
      <!-- 0.25 -->
      <g transform="translate(421.276278 399.078438) scale(0.1 -0.1)">
       <use xlink:href="#DejaVuSans-30"/>
       <use xlink:href="#DejaVuSans-2e" x="63.623047"/>
       <use xlink:href="#DejaVuSans-32" x="95.410156"/>
       <use xlink:href="#DejaVuSans-35" x="159.033203"/>
      </g>
     </g>
    </g>
    <g id="xtick_7">
     <g id="line2d_13">
      <path d="M 495.818182 384.48 
L 495.818182 51.84 
" clip-path="url(#p6cfd814ac0)" style="fill: none; stroke: #b0b0b0; stroke-width: 0.8; stroke-linecap: square"/>
     </g>
     <g id="line2d_14">
      <g>
       <use xlink:href="#m081342dd4e" x="495.818182" y="384.48" style="stroke: #000000; stroke-width: 0.8"/>
      </g>
     </g>
     <g id="text_7">
      <!-- 0.50 -->
      <g transform="translate(484.685369 399.078438) scale(0.1 -0.1)">
       <use xlink:href="#DejaVuSans-30"/>
       <use xlink:href="#DejaVuSans-2e" x="63.623047"/>
       <use xlink:href="#DejaVuSans-35" x="95.410156"/>
       <use xlink:href="#DejaVuSans-30" x="159.033203"/>
      </g>
     </g>
    </g>
    <g id="xtick_8">
     <g id="line2d_15">
      <path d="M 559.227273 384.48 
L 559.227273 51.84 
" clip-path="url(#p6cfd814ac0)" style="fill: none; stroke: #b0b0b0; stroke-width: 0.8; stroke-linecap: square"/>
     </g>
     <g id="line2d_16">
      <g>
       <use xlink:href="#m081342dd4e" x="559.227273" y="384.48" style="stroke: #000000; stroke-width: 0.8"/>
      </g>
     </g>
     <g id="text_8">
      <!-- 0.75 -->
      <g transform="translate(548.09446 399.078438) scale(0.1 -0.1)">
       <use xlink:href="#DejaVuSans-30"/>
       <use xlink:href="#DejaVuSans-2e" x="63.623047"/>
       <use xlink:href="#DejaVuSans-37" x="95.410156"/>
       <use xlink:href="#DejaVuSans-35" x="159.033203"/>
      </g>
     </g>
    </g>
    <g id="xtick_9">
     <g id="line2d_17">
      <path d="M 622.636364 384.48 
L 622.636364 51.84 
" clip-path="url(#p6cfd814ac0)" style="fill: none; stroke: #b0b0b0; stroke-width: 0.8; stroke-linecap: square"/>
     </g>
     <g id="line2d_18">
      <g>
       <use xlink:href="#m081342dd4e" x="622.636364" y="384.48" style="stroke: #000000; stroke-width: 0.8"/>
      </g>
     </g>
     <g id="text_9">
      <!-- 1.00 -->
      <g transform="translate(611.503551 399.078438) scale(0.1 -0.1)">
       <use xlink:href="#DejaVuSans-31"/>
       <use xlink:href="#DejaVuSans-2e" x="63.623047"/>
       <use xlink:href="#DejaVuSans-30" x="95.410156"/>
       <use xlink:href="#DejaVuSans-30" x="159.033203"/>
      </g>
     </g>
    </g>
   </g>
   <g id="matplotlib.axis_2">
    <g id="ytick_1">
     <g id="line2d_19">
      <path d="M 90 323.958683 
L 648 323.958683 
" clip-path="url(#p6cfd814ac0)" style="fill: none; stroke: #b0b0b0; stroke-width: 0.8; stroke-linecap: square"/>
     </g>
     <g id="line2d_20">
      <defs>
       <path id="m2f464af0f2" d="M 0 0 
L -3.5 0 
" style="stroke: #000000; stroke-width: 0.8"/>
      </defs>
      <g>
       <use xlink:href="#m2f464af0f2" x="90" y="323.958683" style="stroke: #000000; stroke-width: 0.8"/>
      </g>
     </g>
     <g id="text_10">
      <!-- 0.2 -->
      <g transform="translate(67.096875 327.757902) scale(0.1 -0.1)">
       <use xlink:href="#DejaVuSans-30"/>
       <use xlink:href="#DejaVuSans-2e" x="63.623047"/>
       <use xlink:href="#DejaVuSans-32" x="95.410156"/>
      </g>
     </g>
    </g>
    <g id="ytick_2">
     <g id="line2d_21">
      <path d="M 90 259.709012 
L 648 259.709012 
" clip-path="url(#p6cfd814ac0)" style="fill: none; stroke: #b0b0b0; stroke-width: 0.8; stroke-linecap: square"/>
     </g>
     <g id="line2d_22">
      <g>
       <use xlink:href="#m2f464af0f2" x="90" y="259.709012" style="stroke: #000000; stroke-width: 0.8"/>
      </g>
     </g>
     <g id="text_11">
      <!-- 0.4 -->
      <g transform="translate(67.096875 263.508231) scale(0.1 -0.1)">
       <defs>
        <path id="DejaVuSans-34" d="M 2419 4116 
L 825 1625 
L 2419 1625 
L 2419 4116 
z
M 2253 4666 
L 3047 4666 
L 3047 1625 
L 3713 1625 
L 3713 1100 
L 3047 1100 
L 3047 0 
L 2419 0 
L 2419 1100 
L 313 1100 
L 313 1709 
L 2253 4666 
z
" transform="scale(0.015625)"/>
       </defs>
       <use xlink:href="#DejaVuSans-30"/>
       <use xlink:href="#DejaVuSans-2e" x="63.623047"/>
       <use xlink:href="#DejaVuSans-34" x="95.410156"/>
      </g>
     </g>
    </g>
    <g id="ytick_3">
     <g id="line2d_23">
      <path d="M 90 195.459341 
L 648 195.459341 
" clip-path="url(#p6cfd814ac0)" style="fill: none; stroke: #b0b0b0; stroke-width: 0.8; stroke-linecap: square"/>
     </g>
     <g id="line2d_24">
      <g>
       <use xlink:href="#m2f464af0f2" x="90" y="195.459341" style="stroke: #000000; stroke-width: 0.8"/>
      </g>
     </g>
     <g id="text_12">
      <!-- 0.6 -->
      <g transform="translate(67.096875 199.25856) scale(0.1 -0.1)">
       <defs>
        <path id="DejaVuSans-36" d="M 2113 2584 
Q 1688 2584 1439 2293 
Q 1191 2003 1191 1497 
Q 1191 994 1439 701 
Q 1688 409 2113 409 
Q 2538 409 2786 701 
Q 3034 994 3034 1497 
Q 3034 2003 2786 2293 
Q 2538 2584 2113 2584 
z
M 3366 4563 
L 3366 3988 
Q 3128 4100 2886 4159 
Q 2644 4219 2406 4219 
Q 1781 4219 1451 3797 
Q 1122 3375 1075 2522 
Q 1259 2794 1537 2939 
Q 1816 3084 2150 3084 
Q 2853 3084 3261 2657 
Q 3669 2231 3669 1497 
Q 3669 778 3244 343 
Q 2819 -91 2113 -91 
Q 1303 -91 875 529 
Q 447 1150 447 2328 
Q 447 3434 972 4092 
Q 1497 4750 2381 4750 
Q 2619 4750 2861 4703 
Q 3103 4656 3366 4563 
z
" transform="scale(0.015625)"/>
       </defs>
       <use xlink:href="#DejaVuSans-30"/>
       <use xlink:href="#DejaVuSans-2e" x="63.623047"/>
       <use xlink:href="#DejaVuSans-36" x="95.410156"/>
      </g>
     </g>
    </g>
    <g id="ytick_4">
     <g id="line2d_25">
      <path d="M 90 131.209671 
L 648 131.209671 
" clip-path="url(#p6cfd814ac0)" style="fill: none; stroke: #b0b0b0; stroke-width: 0.8; stroke-linecap: square"/>
     </g>
     <g id="line2d_26">
      <g>
       <use xlink:href="#m2f464af0f2" x="90" y="131.209671" style="stroke: #000000; stroke-width: 0.8"/>
      </g>
     </g>
     <g id="text_13">
      <!-- 0.8 -->
      <g transform="translate(67.096875 135.008889) scale(0.1 -0.1)">
       <defs>
        <path id="DejaVuSans-38" d="M 2034 2216 
Q 1584 2216 1326 1975 
Q 1069 1734 1069 1313 
Q 1069 891 1326 650 
Q 1584 409 2034 409 
Q 2484 409 2743 651 
Q 3003 894 3003 1313 
Q 3003 1734 2745 1975 
Q 2488 2216 2034 2216 
z
M 1403 2484 
Q 997 2584 770 2862 
Q 544 3141 544 3541 
Q 544 4100 942 4425 
Q 1341 4750 2034 4750 
Q 2731 4750 3128 4425 
Q 3525 4100 3525 3541 
Q 3525 3141 3298 2862 
Q 3072 2584 2669 2484 
Q 3125 2378 3379 2068 
Q 3634 1759 3634 1313 
Q 3634 634 3220 271 
Q 2806 -91 2034 -91 
Q 1263 -91 848 271 
Q 434 634 434 1313 
Q 434 1759 690 2068 
Q 947 2378 1403 2484 
z
M 1172 3481 
Q 1172 3119 1398 2916 
Q 1625 2713 2034 2713 
Q 2441 2713 2670 2916 
Q 2900 3119 2900 3481 
Q 2900 3844 2670 4047 
Q 2441 4250 2034 4250 
Q 1625 4250 1398 4047 
Q 1172 3844 1172 3481 
z
" transform="scale(0.015625)"/>
       </defs>
       <use xlink:href="#DejaVuSans-30"/>
       <use xlink:href="#DejaVuSans-2e" x="63.623047"/>
       <use xlink:href="#DejaVuSans-38" x="95.410156"/>
      </g>
     </g>
    </g>
    <g id="ytick_5">
     <g id="line2d_27">
      <path d="M 90 66.96 
L 648 66.96 
" clip-path="url(#p6cfd814ac0)" style="fill: none; stroke: #b0b0b0; stroke-width: 0.8; stroke-linecap: square"/>
     </g>
     <g id="line2d_28">
      <g>
       <use xlink:href="#m2f464af0f2" x="90" y="66.96" style="stroke: #000000; stroke-width: 0.8"/>
      </g>
     </g>
     <g id="text_14">
      <!-- 1.0 -->
      <g transform="translate(67.096875 70.759219) scale(0.1 -0.1)">
       <use xlink:href="#DejaVuSans-31"/>
       <use xlink:href="#DejaVuSans-2e" x="63.623047"/>
       <use xlink:href="#DejaVuSans-30" x="95.410156"/>
      </g>
     </g>
    </g>
   </g>
   <g id="line2d_29">
    <path d="M 115.363636 359.003958 
L 125.529422 356.758005 
L 134.67863 354.516672 
L 143.827837 352.037661 
L 151.960466 349.608002 
L 160.093095 346.937738 
L 167.209146 344.379766 
L 174.325196 341.590496 
L 181.441246 338.54325 
L 187.540718 335.703179 
L 193.640189 332.630027 
L 199.739661 329.299972 
L 205.839133 325.686489 
L 210.922026 322.437561 
L 216.004919 318.952596 
L 221.087812 315.211129 
L 226.170705 311.190913 
L 231.253598 306.867834 
L 236.336491 302.215862 
L 241.419384 297.207033 
L 245.485699 292.923042 
L 249.552013 288.375515 
L 253.618328 283.547745 
L 257.684642 278.422526 
L 261.750956 272.982347 
L 265.817271 267.209639 
L 269.883585 261.087123 
L 273.9499 254.598259 
L 278.016214 247.72782 
L 282.082529 240.462627 
L 286.148843 232.792461 
L 290.215158 224.711168 
L 294.281472 216.218009 
L 299.364365 205.032695 
L 304.447258 193.246336 
L 309.530151 180.918831 
L 315.629623 165.547425 
L 335.961195 113.561532 
L 340.02751 104.038837 
L 343.077245 97.343038 
L 346.126981 91.12065 
L 349.176717 85.453505 
L 351.209874 82.023262 
L 353.243032 78.897608 
L 355.276189 76.097662 
L 357.309346 73.64291 
L 359.342503 71.550879 
L 361.37566 69.836839 
L 363.408818 68.513531 
L 365.441975 67.590931 
L 367.475132 67.076071 
L 369.508289 66.972901 
L 371.541447 67.282214 
L 373.574604 68.001632 
L 375.607761 69.125653 
L 377.640918 70.645752 
L 379.674075 72.550544 
L 381.707233 74.825992 
L 383.74039 77.455661 
L 385.773547 80.421007 
L 387.806704 83.701685 
L 390.85644 89.165914 
L 393.906176 95.212242 
L 396.955912 101.759384 
L 401.022226 111.126071 
L 405.088541 121.046622 
L 411.188012 136.57757 
L 427.45327 178.396022 
L 433.552742 193.246336 
L 438.635635 205.032695 
L 443.718528 216.218009 
L 448.801421 226.770181 
L 452.867735 234.748386 
L 456.93405 242.316553 
L 461.000364 249.481966 
L 465.066679 256.255681 
L 469.132993 262.651469 
L 473.199308 268.684944 
L 477.265622 274.372882 
L 481.331937 279.732671 
L 485.398251 284.781894 
L 489.464565 289.538008 
L 494.547459 295.096959 
L 499.630352 300.256784 
L 504.713245 305.048036 
L 509.796138 309.499439 
L 514.879031 313.6378 
L 519.961924 317.487995 
L 525.044817 321.073007 
L 530.12771 324.414003 
L 536.227182 328.128362 
L 542.326653 331.549805 
L 548.426125 334.705817 
L 554.525597 337.62109 
L 561.641647 340.747431 
L 568.757697 343.607538 
L 575.873747 346.229062 
L 584.006376 348.964123 
L 592.139005 351.451274 
L 600.271634 353.71827 
L 609.420842 356.035466 
L 618.570049 358.134351 
L 622.636364 359.003958 
L 622.636364 359.003958 
" clip-path="url(#p6cfd814ac0)" style="fill: none; stroke: #000000; stroke-width: 2; stroke-linecap: square"/>
   </g>
   <g id="line2d_30">
    <path d="M 115.363636 359.003958 
L 133.662051 354.55261 
L 143.827837 351.857105 
L 151.960466 349.496688 
L 160.093095 346.897427 
L 167.209146 344.38543 
L 174.325196 341.617196 
L 180.424668 339.020986 
L 186.524139 336.202193 
L 192.623611 333.145345 
L 198.723083 329.834971 
L 204.822554 326.255597 
L 210.922026 322.391753 
L 217.021498 318.227966 
L 222.104391 314.511617 
L 227.187284 310.532655 
L 232.270177 306.248834 
L 237.35307 301.617911 
L 241.419384 297.634871 
L 245.485699 293.38102 
L 249.552013 288.83473 
L 253.618328 283.97437 
L 257.684642 278.778312 
L 261.750956 273.224927 
L 265.817271 267.292586 
L 269.883585 260.960795 
L 273.9499 254.227836 
L 278.016214 247.107432 
L 283.099107 237.683679 
L 288.182 227.704388 
L 293.264893 217.19725 
L 298.347786 206.189957 
L 303.43068 194.710202 
L 309.530151 180.349837 
L 315.629623 165.396856 
L 322.745673 147.301079 
L 331.894881 123.964247 
L 336.977774 111.610607 
L 341.044088 102.328657 
L 344.093824 95.829212 
L 347.14356 89.805391 
L 350.193296 84.328843 
L 352.226453 81.017235 
L 354.25961 78.001934 
L 356.292767 75.304168 
L 358.325925 72.945168 
L 360.359082 70.946162 
L 362.392239 69.328381 
L 364.425396 68.113054 
L 366.458553 67.321409 
L 368.491711 66.974678 
L 369.508289 66.974678 
L 370.524868 67.091102 
L 372.558025 67.662944 
L 374.591182 68.669084 
L 376.62434 70.088292 
L 378.657497 71.899339 
L 380.690654 74.080995 
L 382.723811 76.612032 
L 384.756968 79.471219 
L 386.790126 82.637328 
L 389.839862 87.915528 
L 392.889597 93.764886 
L 395.939333 100.113751 
L 400.005648 109.232078 
L 404.071962 118.941206 
L 409.154855 131.649697 
L 426.436692 175.428993 
L 432.536163 189.992214 
L 438.635635 203.930917 
L 443.718528 215.034917 
L 448.801421 225.644302 
L 453.884314 235.731378 
L 458.967207 245.268454 
L 463.033522 252.483505 
L 467.099836 259.314654 
L 471.16615 265.747754 
L 475.232465 271.778214 
L 479.298779 277.42431 
L 483.365094 282.707672 
L 487.431408 287.649928 
L 491.497723 292.272709 
L 495.564037 296.597642 
L 499.630352 300.646357 
L 504.713245 305.35177 
L 509.796138 309.701631 
L 514.879031 313.738186 
L 519.961924 317.503677 
L 526.061396 321.719036 
L 532.160867 325.631796 
L 538.260339 329.257507 
L 544.359811 332.61164 
L 550.459282 335.709668 
L 556.558754 338.567062 
L 562.658226 341.199295 
L 569.774276 344.006296 
L 576.890326 346.553083 
L 584.006376 348.871338 
L 592.139005 351.286489 
L 601.288213 353.768268 
L 613.487156 356.81607 
L 622.636364 359.003958 
L 622.636364 359.003958 
" clip-path="url(#p6cfd814ac0)" style="fill: none; stroke-dasharray: 5.55,2.4; stroke-dashoffset: 0; stroke: #0000ff; stroke-width: 1.5"/>
   </g>
   <g id="line2d_31">
    <path d="M 115.363636 359.003958 
L 117.396794 301.517062 
L 118.413372 277.513529 
L 119.429951 256.388342 
L 120.446529 237.942906 
L 121.463108 221.988279 
L 122.479687 208.34482 
L 123.496265 196.841854 
L 124.512844 187.31734 
L 125.529422 179.61755 
L 126.546001 173.596756 
L 127.56258 169.116929 
L 128.579158 166.047445 
L 129.595737 164.264793 
L 130.612316 163.652304 
L 131.628894 164.099873 
L 132.645473 165.503703 
L 133.662051 167.766047 
L 134.67863 170.794962 
L 135.695209 174.504066 
L 136.711787 178.812309 
L 138.744944 188.927312 
L 140.778102 200.58976 
L 143.827837 219.955792 
L 153.993624 286.768368 
L 157.043359 304.45415 
L 159.076517 315.189565 
L 161.109674 324.99094 
L 163.142831 333.80907 
L 165.175988 341.616153 
L 167.209146 348.402957 
L 169.242303 354.176216 
L 171.27546 358.956242 
L 173.308617 362.774745 
L 174.325196 364.335955 
L 175.341774 365.672835 
L 176.358353 366.791696 
L 177.374932 367.699221 
L 178.39151 368.402415 
L 179.408089 368.908563 
L 180.424668 369.225186 
L 181.441246 369.36 
L 182.457825 369.32088 
L 183.474403 369.115821 
L 184.490982 368.752908 
L 185.507561 368.24028 
L 186.524139 367.586104 
L 188.557296 365.885733 
L 190.590454 363.716625 
L 192.623611 361.142413 
L 194.656768 358.224881 
L 197.706504 353.333972 
L 200.75624 347.99138 
L 205.839133 338.538018 
L 213.971762 323.381341 
L 218.038076 316.297823 
L 221.087812 311.331086 
L 224.137548 306.702086 
L 227.187284 302.428504 
L 230.237019 298.511678 
L 233.286755 294.9383 
L 236.336491 291.682216 
L 239.386227 288.706313 
L 243.452541 285.093424 
L 248.535435 280.964241 
L 258.701221 272.911202 
L 262.767535 269.353708 
L 265.817271 266.428971 
L 268.867007 263.226194 
L 271.916743 259.699411 
L 274.966478 255.809402 
L 278.016214 251.524382 
L 281.06595 246.82054 
L 284.115686 241.682422 
L 287.165422 236.103162 
L 290.215158 230.084572 
L 293.264893 223.637087 
L 297.331208 214.407076 
L 301.397522 204.516136 
L 305.463837 194.055156 
L 310.54673 180.350271 
L 318.679359 157.598682 
L 326.811988 134.928017 
L 331.894881 121.396545 
L 335.961195 111.195074 
L 339.010931 104.015758 
L 342.060667 97.314228 
L 345.110403 91.152572 
L 348.160138 85.588387 
L 350.193296 82.236974 
L 352.226453 79.18863 
L 354.25961 76.456237 
L 356.292767 74.051381 
L 358.325925 71.984284 
L 360.359082 70.263755 
L 362.392239 68.897138 
L 364.425396 67.890278 
L 366.458553 67.247482 
L 368.491711 66.971505 
L 370.524868 67.063531 
L 372.558025 67.523163 
L 374.591182 68.348433 
L 376.62434 69.535807 
L 378.657497 71.080205 
L 380.690654 72.975028 
L 382.723811 75.212195 
L 384.756968 77.782184 
L 386.790126 80.674084 
L 388.823283 83.875651 
L 391.873019 89.228756 
L 394.922755 95.197413 
L 397.97249 101.725677 
L 401.022226 108.752876 
L 405.088541 118.78637 
L 409.154855 129.429886 
L 414.237748 143.335709 
L 432.536163 194.055156 
L 436.602478 204.516136 
L 440.668792 214.407076 
L 444.735107 223.637087 
L 447.784842 230.084572 
L 450.834578 236.103162 
L 453.884314 241.682422 
L 456.93405 246.82054 
L 459.983786 251.524382 
L 463.033522 255.809402 
L 466.083257 259.699411 
L 469.132993 263.226194 
L 472.182729 266.428971 
L 475.232465 269.353708 
L 479.298779 272.911202 
L 484.381672 277.00151 
L 493.53088 284.240425 
L 497.597194 287.768853 
L 500.64693 290.66123 
L 503.696666 293.819309 
L 506.746402 297.283436 
L 509.796138 301.083628 
L 512.845874 305.237681 
L 515.895609 309.749333 
L 518.945345 314.606528 
L 523.01166 321.566757 
L 528.094553 330.862156 
L 538.260339 349.81152 
L 541.310075 355.023407 
L 544.359811 359.722788 
L 546.392968 362.476245 
L 548.426125 364.855758 
L 550.459282 366.798543 
L 552.492439 368.24028 
L 553.509018 368.752908 
L 554.525597 369.115821 
L 555.542175 369.32088 
L 556.558754 369.36 
L 557.575332 369.225186 
L 558.591911 368.908563 
L 559.60849 368.402415 
L 560.625068 367.699221 
L 561.641647 366.791696 
L 562.658226 365.672835 
L 563.674804 364.335955 
L 564.691383 362.774745 
L 565.707961 360.983313 
L 567.741119 356.688644 
L 569.774276 351.415302 
L 571.807433 345.137015 
L 573.84059 337.839973 
L 575.873747 329.525115 
L 577.906905 320.210619 
L 579.940062 309.934619 
L 581.973219 298.758155 
L 585.022955 280.503692 
L 588.072691 260.848917 
L 597.221898 200.58976 
L 599.255056 188.927312 
L 601.288213 178.812309 
L 602.304791 174.504066 
L 603.32137 170.794962 
L 604.337949 167.766047 
L 605.354527 165.503703 
L 606.371106 164.099873 
L 607.387684 163.652304 
L 608.404263 164.264793 
L 609.420842 166.047445 
L 610.43742 169.116929 
L 611.453999 173.596756 
L 612.470578 179.61755 
L 613.487156 187.31734 
L 614.503735 196.841854 
L 615.520313 208.34482 
L 616.536892 221.988279 
L 617.553471 237.942906 
L 618.570049 256.388342 
L 619.586628 277.513529 
L 620.603206 301.517062 
L 621.619785 328.607544 
L 622.636364 359.003958 
L 622.636364 359.003958 
" clip-path="url(#p6cfd814ac0)" style="fill: none; stroke-dasharray: 5.55,2.4; stroke-dashoffset: 0; stroke: #008000; stroke-width: 1.5"/>
   </g>
   <g id="patch_3">
    <path d="M 90 384.48 
L 90 51.84 
" style="fill: none; stroke: #000000; stroke-width: 0.8; stroke-linejoin: miter; stroke-linecap: square"/>
   </g>
   <g id="patch_4">
    <path d="M 648 384.48 
L 648 51.84 
" style="fill: none; stroke: #000000; stroke-width: 0.8; stroke-linejoin: miter; stroke-linecap: square"/>
   </g>
   <g id="patch_5">
    <path d="M 90 384.48 
L 648 384.48 
" style="fill: none; stroke: #000000; stroke-width: 0.8; stroke-linejoin: miter; stroke-linecap: square"/>
   </g>
   <g id="patch_6">
    <path d="M 90 51.84 
L 648 51.84 
" style="fill: none; stroke: #000000; stroke-width: 0.8; stroke-linejoin: miter; stroke-linecap: square"/>
   </g>
   <g id="text_15">
    <!-- Porownanie interpolacji dla n=10 -->
    <g transform="translate(269.6025 45.84) scale(0.12 -0.12)">
     <defs>
      <path id="DejaVuSans-50" d="M 1259 4147 
L 1259 2394 
L 2053 2394 
Q 2494 2394 2734 2622 
Q 2975 2850 2975 3272 
Q 2975 3691 2734 3919 
Q 2494 4147 2053 4147 
L 1259 4147 
z
M 628 4666 
L 2053 4666 
Q 2838 4666 3239 4311 
Q 3641 3956 3641 3272 
Q 3641 2581 3239 2228 
Q 2838 1875 2053 1875 
L 1259 1875 
L 1259 0 
L 628 0 
L 628 4666 
z
" transform="scale(0.015625)"/>
      <path id="DejaVuSans-6f" d="M 1959 3097 
Q 1497 3097 1228 2736 
Q 959 2375 959 1747 
Q 959 1119 1226 758 
Q 1494 397 1959 397 
Q 2419 397 2687 759 
Q 2956 1122 2956 1747 
Q 2956 2369 2687 2733 
Q 2419 3097 1959 3097 
z
M 1959 3584 
Q 2709 3584 3137 3096 
Q 3566 2609 3566 1747 
Q 3566 888 3137 398 
Q 2709 -91 1959 -91 
Q 1206 -91 779 398 
Q 353 888 353 1747 
Q 353 2609 779 3096 
Q 1206 3584 1959 3584 
z
" transform="scale(0.015625)"/>
      <path id="DejaVuSans-72" d="M 2631 2963 
Q 2534 3019 2420 3045 
Q 2306 3072 2169 3072 
Q 1681 3072 1420 2755 
Q 1159 2438 1159 1844 
L 1159 0 
L 581 0 
L 581 3500 
L 1159 3500 
L 1159 2956 
Q 1341 3275 1631 3429 
Q 1922 3584 2338 3584 
Q 2397 3584 2469 3576 
Q 2541 3569 2628 3553 
L 2631 2963 
z
" transform="scale(0.015625)"/>
      <path id="DejaVuSans-77" d="M 269 3500 
L 844 3500 
L 1563 769 
L 2278 3500 
L 2956 3500 
L 3675 769 
L 4391 3500 
L 4966 3500 
L 4050 0 
L 3372 0 
L 2619 2869 
L 1863 0 
L 1184 0 
L 269 3500 
z
" transform="scale(0.015625)"/>
      <path id="DejaVuSans-6e" d="M 3513 2113 
L 3513 0 
L 2938 0 
L 2938 2094 
Q 2938 2591 2744 2837 
Q 2550 3084 2163 3084 
Q 1697 3084 1428 2787 
Q 1159 2491 1159 1978 
L 1159 0 
L 581 0 
L 581 3500 
L 1159 3500 
L 1159 2956 
Q 1366 3272 1645 3428 
Q 1925 3584 2291 3584 
Q 2894 3584 3203 3211 
Q 3513 2838 3513 2113 
z
" transform="scale(0.015625)"/>
      <path id="DejaVuSans-61" d="M 2194 1759 
Q 1497 1759 1228 1600 
Q 959 1441 959 1056 
Q 959 750 1161 570 
Q 1363 391 1709 391 
Q 2188 391 2477 730 
Q 2766 1069 2766 1631 
L 2766 1759 
L 2194 1759 
z
M 3341 1997 
L 3341 0 
L 2766 0 
L 2766 531 
Q 2569 213 2275 61 
Q 1981 -91 1556 -91 
Q 1019 -91 701 211 
Q 384 513 384 1019 
Q 384 1609 779 1909 
Q 1175 2209 1959 2209 
L 2766 2209 
L 2766 2266 
Q 2766 2663 2505 2880 
Q 2244 3097 1772 3097 
Q 1472 3097 1187 3025 
Q 903 2953 641 2809 
L 641 3341 
Q 956 3463 1253 3523 
Q 1550 3584 1831 3584 
Q 2591 3584 2966 3190 
Q 3341 2797 3341 1997 
z
" transform="scale(0.015625)"/>
      <path id="DejaVuSans-69" d="M 603 3500 
L 1178 3500 
L 1178 0 
L 603 0 
L 603 3500 
z
M 603 4863 
L 1178 4863 
L 1178 4134 
L 603 4134 
L 603 4863 
z
" transform="scale(0.015625)"/>
      <path id="DejaVuSans-65" d="M 3597 1894 
L 3597 1613 
L 953 1613 
Q 991 1019 1311 708 
Q 1631 397 2203 397 
Q 2534 397 2845 478 
Q 3156 559 3463 722 
L 3463 178 
Q 3153 47 2828 -22 
Q 2503 -91 2169 -91 
Q 1331 -91 842 396 
Q 353 884 353 1716 
Q 353 2575 817 3079 
Q 1281 3584 2069 3584 
Q 2775 3584 3186 3129 
Q 3597 2675 3597 1894 
z
M 3022 2063 
Q 3016 2534 2758 2815 
Q 2500 3097 2075 3097 
Q 1594 3097 1305 2825 
Q 1016 2553 972 2059 
L 3022 2063 
z
" transform="scale(0.015625)"/>
      <path id="DejaVuSans-20" transform="scale(0.015625)"/>
      <path id="DejaVuSans-74" d="M 1172 4494 
L 1172 3500 
L 2356 3500 
L 2356 3053 
L 1172 3053 
L 1172 1153 
Q 1172 725 1289 603 
Q 1406 481 1766 481 
L 2356 481 
L 2356 0 
L 1766 0 
Q 1100 0 847 248 
Q 594 497 594 1153 
L 594 3053 
L 172 3053 
L 172 3500 
L 594 3500 
L 594 4494 
L 1172 4494 
z
" transform="scale(0.015625)"/>
      <path id="DejaVuSans-70" d="M 1159 525 
L 1159 -1331 
L 581 -1331 
L 581 3500 
L 1159 3500 
L 1159 2969 
Q 1341 3281 1617 3432 
Q 1894 3584 2278 3584 
Q 2916 3584 3314 3078 
Q 3713 2572 3713 1747 
Q 3713 922 3314 415 
Q 2916 -91 2278 -91 
Q 1894 -91 1617 61 
Q 1341 213 1159 525 
z
M 3116 1747 
Q 3116 2381 2855 2742 
Q 2594 3103 2138 3103 
Q 1681 3103 1420 2742 
Q 1159 2381 1159 1747 
Q 1159 1113 1420 752 
Q 1681 391 2138 391 
Q 2594 391 2855 752 
Q 3116 1113 3116 1747 
z
" transform="scale(0.015625)"/>
      <path id="DejaVuSans-6c" d="M 603 4863 
L 1178 4863 
L 1178 0 
L 603 0 
L 603 4863 
z
" transform="scale(0.015625)"/>
      <path id="DejaVuSans-63" d="M 3122 3366 
L 3122 2828 
Q 2878 2963 2633 3030 
Q 2388 3097 2138 3097 
Q 1578 3097 1268 2742 
Q 959 2388 959 1747 
Q 959 1106 1268 751 
Q 1578 397 2138 397 
Q 2388 397 2633 464 
Q 2878 531 3122 666 
L 3122 134 
Q 2881 22 2623 -34 
Q 2366 -91 2075 -91 
Q 1284 -91 818 406 
Q 353 903 353 1747 
Q 353 2603 823 3093 
Q 1294 3584 2113 3584 
Q 2378 3584 2631 3529 
Q 2884 3475 3122 3366 
z
" transform="scale(0.015625)"/>
      <path id="DejaVuSans-6a" d="M 603 3500 
L 1178 3500 
L 1178 -63 
Q 1178 -731 923 -1031 
Q 669 -1331 103 -1331 
L -116 -1331 
L -116 -844 
L 38 -844 
Q 366 -844 484 -692 
Q 603 -541 603 -63 
L 603 3500 
z
M 603 4863 
L 1178 4863 
L 1178 4134 
L 603 4134 
L 603 4863 
z
" transform="scale(0.015625)"/>
      <path id="DejaVuSans-64" d="M 2906 2969 
L 2906 4863 
L 3481 4863 
L 3481 0 
L 2906 0 
L 2906 525 
Q 2725 213 2448 61 
Q 2172 -91 1784 -91 
Q 1150 -91 751 415 
Q 353 922 353 1747 
Q 353 2572 751 3078 
Q 1150 3584 1784 3584 
Q 2172 3584 2448 3432 
Q 2725 3281 2906 2969 
z
M 947 1747 
Q 947 1113 1208 752 
Q 1469 391 1925 391 
Q 2381 391 2643 752 
Q 2906 1113 2906 1747 
Q 2906 2381 2643 2742 
Q 2381 3103 1925 3103 
Q 1469 3103 1208 2742 
Q 947 2381 947 1747 
z
" transform="scale(0.015625)"/>
      <path id="DejaVuSans-3d" d="M 678 2906 
L 4684 2906 
L 4684 2381 
L 678 2381 
L 678 2906 
z
M 678 1631 
L 4684 1631 
L 4684 1100 
L 678 1100 
L 678 1631 
z
" transform="scale(0.015625)"/>
     </defs>
     <use xlink:href="#DejaVuSans-50"/>
     <use xlink:href="#DejaVuSans-6f" x="56.677734"/>
     <use xlink:href="#DejaVuSans-72" x="117.859375"/>
     <use xlink:href="#DejaVuSans-6f" x="156.722656"/>
     <use xlink:href="#DejaVuSans-77" x="217.904297"/>
     <use xlink:href="#DejaVuSans-6e" x="299.691406"/>
     <use xlink:href="#DejaVuSans-61" x="363.070312"/>
     <use xlink:href="#DejaVuSans-6e" x="424.349609"/>
     <use xlink:href="#DejaVuSans-69" x="487.728516"/>
     <use xlink:href="#DejaVuSans-65" x="515.511719"/>
     <use xlink:href="#DejaVuSans-20" x="577.035156"/>
     <use xlink:href="#DejaVuSans-69" x="608.822266"/>
     <use xlink:href="#DejaVuSans-6e" x="636.605469"/>
     <use xlink:href="#DejaVuSans-74" x="699.984375"/>
     <use xlink:href="#DejaVuSans-65" x="739.193359"/>
     <use xlink:href="#DejaVuSans-72" x="800.716797"/>
     <use xlink:href="#DejaVuSans-70" x="841.830078"/>
     <use xlink:href="#DejaVuSans-6f" x="905.306641"/>
     <use xlink:href="#DejaVuSans-6c" x="966.488281"/>
     <use xlink:href="#DejaVuSans-61" x="994.271484"/>
     <use xlink:href="#DejaVuSans-63" x="1055.550781"/>
     <use xlink:href="#DejaVuSans-6a" x="1110.53125"/>
     <use xlink:href="#DejaVuSans-69" x="1138.314453"/>
     <use xlink:href="#DejaVuSans-20" x="1166.097656"/>
     <use xlink:href="#DejaVuSans-64" x="1197.884766"/>
     <use xlink:href="#DejaVuSans-6c" x="1261.361328"/>
     <use xlink:href="#DejaVuSans-61" x="1289.144531"/>
     <use xlink:href="#DejaVuSans-20" x="1350.423828"/>
     <use xlink:href="#DejaVuSans-6e" x="1382.210938"/>
     <use xlink:href="#DejaVuSans-3d" x="1445.589844"/>
     <use xlink:href="#DejaVuSans-31" x="1529.378906"/>
     <use xlink:href="#DejaVuSans-30" x="1593.001953"/>
    </g>
   </g>
   <g id="legend_1">
    <g id="patch_7">
     <path d="M 443.6 118.618125 
L 641 118.618125 
Q 643 118.618125 643 116.618125 
L 643 58.84 
Q 643 56.84 641 56.84 
L 443.6 56.84 
Q 441.6 56.84 441.6 58.84 
L 441.6 116.618125 
Q 441.6 118.618125 443.6 118.618125 
z
" style="fill: #ffffff; opacity: 0.8; stroke: #cccccc; stroke-linejoin: miter"/>
    </g>
    <g id="line2d_32">
     <path d="M 445.6 64.94 
L 455.6 64.94 
L 465.6 64.94 
" style="fill: none; stroke: #000000; stroke-width: 2; stroke-linecap: square"/>
    </g>
    <g id="text_16">
     <!-- Funkcja $y(x)$ -->
     <g transform="translate(473.6 68.44) scale(0.1 -0.1)">
      <defs>
       <path id="DejaVuSans-46" d="M 628 4666 
L 3309 4666 
L 3309 4134 
L 1259 4134 
L 1259 2759 
L 3109 2759 
L 3109 2228 
L 1259 2228 
L 1259 0 
L 628 0 
L 628 4666 
z
" transform="scale(0.015625)"/>
       <path id="DejaVuSans-75" d="M 544 1381 
L 544 3500 
L 1119 3500 
L 1119 1403 
Q 1119 906 1312 657 
Q 1506 409 1894 409 
Q 2359 409 2629 706 
Q 2900 1003 2900 1516 
L 2900 3500 
L 3475 3500 
L 3475 0 
L 2900 0 
L 2900 538 
Q 2691 219 2414 64 
Q 2138 -91 1772 -91 
Q 1169 -91 856 284 
Q 544 659 544 1381 
z
M 1991 3584 
L 1991 3584 
z
" transform="scale(0.015625)"/>
       <path id="DejaVuSans-6b" d="M 581 4863 
L 1159 4863 
L 1159 1991 
L 2875 3500 
L 3609 3500 
L 1753 1863 
L 3688 0 
L 2938 0 
L 1159 1709 
L 1159 0 
L 581 0 
L 581 4863 
z
" transform="scale(0.015625)"/>
       <path id="DejaVuSans-Oblique-79" d="M 1588 -325 
Q 1188 -997 936 -1164 
Q 684 -1331 294 -1331 
L -159 -1331 
L -63 -850 
L 269 -850 
Q 509 -850 678 -719 
Q 847 -588 1056 -206 
L 1234 128 
L 459 3500 
L 1069 3500 
L 1650 819 
L 3256 3500 
L 3859 3500 
L 1588 -325 
z
" transform="scale(0.015625)"/>
       <path id="DejaVuSans-28" d="M 1984 4856 
Q 1566 4138 1362 3434 
Q 1159 2731 1159 2009 
Q 1159 1288 1364 580 
Q 1569 -128 1984 -844 
L 1484 -844 
Q 1016 -109 783 600 
Q 550 1309 550 2009 
Q 550 2706 781 3412 
Q 1013 4119 1484 4856 
L 1984 4856 
z
" transform="scale(0.015625)"/>
       <path id="DejaVuSans-Oblique-78" d="M 3841 3500 
L 2234 1784 
L 3219 0 
L 2559 0 
L 1819 1388 
L 531 0 
L -166 0 
L 1556 1844 
L 641 3500 
L 1300 3500 
L 1972 2234 
L 3144 3500 
L 3841 3500 
z
" transform="scale(0.015625)"/>
       <path id="DejaVuSans-29" d="M 513 4856 
L 1013 4856 
Q 1481 4119 1714 3412 
Q 1947 2706 1947 2009 
Q 1947 1309 1714 600 
Q 1481 -109 1013 -844 
L 513 -844 
Q 928 -128 1133 580 
Q 1338 1288 1338 2009 
Q 1338 2731 1133 3434 
Q 928 4138 513 4856 
z
" transform="scale(0.015625)"/>
      </defs>
      <use xlink:href="#DejaVuSans-46" transform="translate(0 0.015625)"/>
      <use xlink:href="#DejaVuSans-75" transform="translate(57.519531 0.015625)"/>
      <use xlink:href="#DejaVuSans-6e" transform="translate(120.898438 0.015625)"/>
      <use xlink:href="#DejaVuSans-6b" transform="translate(184.277344 0.015625)"/>
      <use xlink:href="#DejaVuSans-63" transform="translate(242.1875 0.015625)"/>
      <use xlink:href="#DejaVuSans-6a" transform="translate(297.167969 0.015625)"/>
      <use xlink:href="#DejaVuSans-61" transform="translate(324.951172 0.015625)"/>
      <use xlink:href="#DejaVuSans-20" transform="translate(386.230469 0.015625)"/>
      <use xlink:href="#DejaVuSans-Oblique-79" transform="translate(418.017578 0.015625)"/>
      <use xlink:href="#DejaVuSans-28" transform="translate(477.197266 0.015625)"/>
      <use xlink:href="#DejaVuSans-Oblique-78" transform="translate(516.210938 0.015625)"/>
      <use xlink:href="#DejaVuSans-29" transform="translate(575.390625 0.015625)"/>
     </g>
    </g>
    <g id="line2d_33">
     <path d="M 445.6 79.64 
L 455.6 79.64 
L 465.6 79.64 
" style="fill: none; stroke-dasharray: 5.55,2.4; stroke-dashoffset: 0; stroke: #0000ff; stroke-width: 1.5"/>
    </g>
    <g id="text_17">
     <!-- Interpolacja sklejana $s(x)$ -->
     <g transform="translate(473.6 83.14) scale(0.1 -0.1)">
      <defs>
       <path id="DejaVuSans-49" d="M 628 4666 
L 1259 4666 
L 1259 0 
L 628 0 
L 628 4666 
z
" transform="scale(0.015625)"/>
       <path id="DejaVuSans-73" d="M 2834 3397 
L 2834 2853 
Q 2591 2978 2328 3040 
Q 2066 3103 1784 3103 
Q 1356 3103 1142 2972 
Q 928 2841 928 2578 
Q 928 2378 1081 2264 
Q 1234 2150 1697 2047 
L 1894 2003 
Q 2506 1872 2764 1633 
Q 3022 1394 3022 966 
Q 3022 478 2636 193 
Q 2250 -91 1575 -91 
Q 1294 -91 989 -36 
Q 684 19 347 128 
L 347 722 
Q 666 556 975 473 
Q 1284 391 1588 391 
Q 1994 391 2212 530 
Q 2431 669 2431 922 
Q 2431 1156 2273 1281 
Q 2116 1406 1581 1522 
L 1381 1569 
Q 847 1681 609 1914 
Q 372 2147 372 2553 
Q 372 3047 722 3315 
Q 1072 3584 1716 3584 
Q 2034 3584 2315 3537 
Q 2597 3491 2834 3397 
z
" transform="scale(0.015625)"/>
       <path id="DejaVuSans-Oblique-73" d="M 3200 3397 
L 3091 2853 
Q 2863 2978 2609 3040 
Q 2356 3103 2088 3103 
Q 1634 3103 1373 2948 
Q 1113 2794 1113 2528 
Q 1113 2219 1719 2053 
Q 1766 2041 1788 2034 
L 1972 1978 
Q 2547 1819 2739 1644 
Q 2931 1469 2931 1166 
Q 2931 609 2489 259 
Q 2047 -91 1331 -91 
Q 1053 -91 747 -37 
Q 441 16 72 128 
L 184 722 
Q 500 559 806 475 
Q 1113 391 1394 391 
Q 1816 391 2080 572 
Q 2344 753 2344 1031 
Q 2344 1331 1650 1516 
L 1591 1531 
L 1394 1581 
Q 956 1697 753 1886 
Q 550 2075 550 2369 
Q 550 2928 970 3256 
Q 1391 3584 2113 3584 
Q 2397 3584 2667 3537 
Q 2938 3491 3200 3397 
z
" transform="scale(0.015625)"/>
      </defs>
      <use xlink:href="#DejaVuSans-49" transform="translate(0 0.015625)"/>
      <use xlink:href="#DejaVuSans-6e" transform="translate(29.492188 0.015625)"/>
      <use xlink:href="#DejaVuSans-74" transform="translate(92.871094 0.015625)"/>
      <use xlink:href="#DejaVuSans-65" transform="translate(132.080078 0.015625)"/>
      <use xlink:href="#DejaVuSans-72" transform="translate(193.603516 0.015625)"/>
      <use xlink:href="#DejaVuSans-70" transform="translate(234.716797 0.015625)"/>
      <use xlink:href="#DejaVuSans-6f" transform="translate(298.193359 0.015625)"/>
      <use xlink:href="#DejaVuSans-6c" transform="translate(359.375 0.015625)"/>
      <use xlink:href="#DejaVuSans-61" transform="translate(387.158203 0.015625)"/>
      <use xlink:href="#DejaVuSans-63" transform="translate(448.4375 0.015625)"/>
      <use xlink:href="#DejaVuSans-6a" transform="translate(503.417969 0.015625)"/>
      <use xlink:href="#DejaVuSans-61" transform="translate(531.201172 0.015625)"/>
      <use xlink:href="#DejaVuSans-20" transform="translate(592.480469 0.015625)"/>
      <use xlink:href="#DejaVuSans-73" transform="translate(624.267578 0.015625)"/>
      <use xlink:href="#DejaVuSans-6b" transform="translate(676.367188 0.015625)"/>
      <use xlink:href="#DejaVuSans-6c" transform="translate(734.277344 0.015625)"/>
      <use xlink:href="#DejaVuSans-65" transform="translate(762.060547 0.015625)"/>
      <use xlink:href="#DejaVuSans-6a" transform="translate(823.583984 0.015625)"/>
      <use xlink:href="#DejaVuSans-61" transform="translate(851.367188 0.015625)"/>
      <use xlink:href="#DejaVuSans-6e" transform="translate(912.646484 0.015625)"/>
      <use xlink:href="#DejaVuSans-61" transform="translate(976.025391 0.015625)"/>
      <use xlink:href="#DejaVuSans-20" transform="translate(1037.304688 0.015625)"/>
      <use xlink:href="#DejaVuSans-Oblique-73" transform="translate(1069.091797 0.015625)"/>
      <use xlink:href="#DejaVuSans-28" transform="translate(1121.191406 0.015625)"/>
      <use xlink:href="#DejaVuSans-Oblique-78" transform="translate(1160.205078 0.015625)"/>
      <use xlink:href="#DejaVuSans-29" transform="translate(1219.384766 0.015625)"/>
     </g>
    </g>
    <g id="line2d_34">
     <path d="M 445.6 94.34 
L 455.6 94.34 
L 465.6 94.34 
" style="fill: none; stroke-dasharray: 5.55,2.4; stroke-dashoffset: 0; stroke: #008000; stroke-width: 1.5"/>
    </g>
    <g id="text_18">
     <!-- Interpolacja wielomianowa $W_n(x)$ -->
     <g transform="translate(473.6 97.84) scale(0.1 -0.1)">
      <defs>
       <path id="DejaVuSans-6d" d="M 3328 2828 
Q 3544 3216 3844 3400 
Q 4144 3584 4550 3584 
Q 5097 3584 5394 3201 
Q 5691 2819 5691 2113 
L 5691 0 
L 5113 0 
L 5113 2094 
Q 5113 2597 4934 2840 
Q 4756 3084 4391 3084 
Q 3944 3084 3684 2787 
Q 3425 2491 3425 1978 
L 3425 0 
L 2847 0 
L 2847 2094 
Q 2847 2600 2669 2842 
Q 2491 3084 2119 3084 
Q 1678 3084 1418 2786 
Q 1159 2488 1159 1978 
L 1159 0 
L 581 0 
L 581 3500 
L 1159 3500 
L 1159 2956 
Q 1356 3278 1631 3431 
Q 1906 3584 2284 3584 
Q 2666 3584 2933 3390 
Q 3200 3197 3328 2828 
z
" transform="scale(0.015625)"/>
       <path id="DejaVuSans-Oblique-57" d="M 616 4666 
L 1228 4666 
L 1453 697 
L 3213 4666 
L 3916 4666 
L 4147 697 
L 5888 4666 
L 6528 4666 
L 4453 0 
L 3659 0 
L 3444 3891 
L 1697 0 
L 903 0 
L 616 4666 
z
" transform="scale(0.015625)"/>
       <path id="DejaVuSans-Oblique-6e" d="M 3566 2113 
L 3156 0 
L 2578 0 
L 2988 2091 
Q 3016 2238 3031 2350 
Q 3047 2463 3047 2528 
Q 3047 2791 2881 2937 
Q 2716 3084 2419 3084 
Q 1956 3084 1622 2776 
Q 1288 2469 1184 1941 
L 800 0 
L 225 0 
L 903 3500 
L 1478 3500 
L 1363 2950 
Q 1603 3253 1940 3418 
Q 2278 3584 2650 3584 
Q 3113 3584 3367 3334 
Q 3622 3084 3622 2631 
Q 3622 2519 3608 2391 
Q 3594 2263 3566 2113 
z
" transform="scale(0.015625)"/>
      </defs>
      <use xlink:href="#DejaVuSans-49" transform="translate(0 0.015625)"/>
      <use xlink:href="#DejaVuSans-6e" transform="translate(29.492188 0.015625)"/>
      <use xlink:href="#DejaVuSans-74" transform="translate(92.871094 0.015625)"/>
      <use xlink:href="#DejaVuSans-65" transform="translate(132.080078 0.015625)"/>
      <use xlink:href="#DejaVuSans-72" transform="translate(193.603516 0.015625)"/>
      <use xlink:href="#DejaVuSans-70" transform="translate(234.716797 0.015625)"/>
      <use xlink:href="#DejaVuSans-6f" transform="translate(298.193359 0.015625)"/>
      <use xlink:href="#DejaVuSans-6c" transform="translate(359.375 0.015625)"/>
      <use xlink:href="#DejaVuSans-61" transform="translate(387.158203 0.015625)"/>
      <use xlink:href="#DejaVuSans-63" transform="translate(448.4375 0.015625)"/>
      <use xlink:href="#DejaVuSans-6a" transform="translate(503.417969 0.015625)"/>
      <use xlink:href="#DejaVuSans-61" transform="translate(531.201172 0.015625)"/>
      <use xlink:href="#DejaVuSans-20" transform="translate(592.480469 0.015625)"/>
      <use xlink:href="#DejaVuSans-77" transform="translate(624.267578 0.015625)"/>
      <use xlink:href="#DejaVuSans-69" transform="translate(706.054688 0.015625)"/>
      <use xlink:href="#DejaVuSans-65" transform="translate(733.837891 0.015625)"/>
      <use xlink:href="#DejaVuSans-6c" transform="translate(795.361328 0.015625)"/>
      <use xlink:href="#DejaVuSans-6f" transform="translate(823.144531 0.015625)"/>
      <use xlink:href="#DejaVuSans-6d" transform="translate(884.326172 0.015625)"/>
      <use xlink:href="#DejaVuSans-69" transform="translate(981.738281 0.015625)"/>
      <use xlink:href="#DejaVuSans-61" transform="translate(1009.521484 0.015625)"/>
      <use xlink:href="#DejaVuSans-6e" transform="translate(1070.800781 0.015625)"/>
      <use xlink:href="#DejaVuSans-6f" transform="translate(1134.179688 0.015625)"/>
      <use xlink:href="#DejaVuSans-77" transform="translate(1195.361328 0.015625)"/>
      <use xlink:href="#DejaVuSans-61" transform="translate(1277.148438 0.015625)"/>
      <use xlink:href="#DejaVuSans-20" transform="translate(1338.427734 0.015625)"/>
      <use xlink:href="#DejaVuSans-Oblique-57" transform="translate(1370.214844 0.015625)"/>
      <use xlink:href="#DejaVuSans-Oblique-6e" transform="translate(1469.091797 -16.390625) scale(0.7)"/>
      <use xlink:href="#DejaVuSans-28" transform="translate(1516.191406 0.015625)"/>
      <use xlink:href="#DejaVuSans-Oblique-78" transform="translate(1555.205078 0.015625)"/>
      <use xlink:href="#DejaVuSans-29" transform="translate(1614.384766 0.015625)"/>
     </g>
    </g>
    <g id="PathCollection_2">
     <g>
      <use xlink:href="#m4b1381bdcf" x="455.6" y="109.913437" style="fill: #ff0000; stroke: #ff0000"/>
     </g>
    </g>
    <g id="text_19">
     <!-- Wezly interpolacji -->
     <g transform="translate(473.6 112.538437) scale(0.1 -0.1)">
      <defs>
       <path id="DejaVuSans-57" d="M 213 4666 
L 850 4666 
L 1831 722 
L 2809 4666 
L 3519 4666 
L 4500 722 
L 5478 4666 
L 6119 4666 
L 4947 0 
L 4153 0 
L 3169 4050 
L 2175 0 
L 1381 0 
L 213 4666 
z
" transform="scale(0.015625)"/>
       <path id="DejaVuSans-7a" d="M 353 3500 
L 3084 3500 
L 3084 2975 
L 922 459 
L 3084 459 
L 3084 0 
L 275 0 
L 275 525 
L 2438 3041 
L 353 3041 
L 353 3500 
z
" transform="scale(0.015625)"/>
       <path id="DejaVuSans-79" d="M 2059 -325 
Q 1816 -950 1584 -1140 
Q 1353 -1331 966 -1331 
L 506 -1331 
L 506 -850 
L 844 -850 
Q 1081 -850 1212 -737 
Q 1344 -625 1503 -206 
L 1606 56 
L 191 3500 
L 800 3500 
L 1894 763 
L 2988 3500 
L 3597 3500 
L 2059 -325 
z
" transform="scale(0.015625)"/>
      </defs>
      <use xlink:href="#DejaVuSans-57"/>
      <use xlink:href="#DejaVuSans-65" x="93.001953"/>
      <use xlink:href="#DejaVuSans-7a" x="154.525391"/>
      <use xlink:href="#DejaVuSans-6c" x="207.015625"/>
      <use xlink:href="#DejaVuSans-79" x="234.798828"/>
      <use xlink:href="#DejaVuSans-20" x="293.978516"/>
      <use xlink:href="#DejaVuSans-69" x="325.765625"/>
      <use xlink:href="#DejaVuSans-6e" x="353.548828"/>
      <use xlink:href="#DejaVuSans-74" x="416.927734"/>
      <use xlink:href="#DejaVuSans-65" x="456.136719"/>
      <use xlink:href="#DejaVuSans-72" x="517.660156"/>
      <use xlink:href="#DejaVuSans-70" x="558.773438"/>
      <use xlink:href="#DejaVuSans-6f" x="622.25"/>
      <use xlink:href="#DejaVuSans-6c" x="683.431641"/>
      <use xlink:href="#DejaVuSans-61" x="711.214844"/>
      <use xlink:href="#DejaVuSans-63" x="772.494141"/>
      <use xlink:href="#DejaVuSans-6a" x="827.474609"/>
      <use xlink:href="#DejaVuSans-69" x="855.257812"/>
     </g>
    </g>
   </g>
  </g>
 </g>
 <defs>
  <clipPath id="p6cfd814ac0">
   <rect x="90" y="51.84" width="558" height="332.64"/>
  </clipPath>
 </defs>
</svg>
