<?xml version="1.0" encoding="utf-8" standalone="no"?>
<!DOCTYPE svg PUBLIC "-//W3C//DTD SVG 1.1//EN"
  "http://www.w3.org/Graphics/SVG/1.1/DTD/svg11.dtd">
<svg xmlns:xlink="http://www.w3.org/1999/xlink" width="720pt" height="432pt" viewBox="0 0 720 432" xmlns="http://www.w3.org/2000/svg" version="1.1">
 <metadata>
  <rdf:RDF xmlns:dc="http://purl.org/dc/elements/1.1/" xmlns:cc="http://creativecommons.org/ns#" xmlns:rdf="http://www.w3.org/1999/02/22-rdf-syntax-ns#">
   <cc:Work>
    <dc:type rdf:resource="http://purl.org/dc/dcmitype/StillImage"/>
    <dc:date>2024-12-19T13:31:59.815712</dc:date>
    <dc:format>image/svg+xml</dc:format>
    <dc:creator>
     <cc:Agent>
      <dc:title>Matplotlib v3.9.2, https://matplotlib.org/</dc:title>
     </cc:Agent>
    </dc:creator>
   </cc:Work>
  </rdf:RDF>
 </metadata>
 <defs>
  <style type="text/css">*{stroke-linejoin: round; stroke-linecap: butt}</style>
 </defs>
 <g id="figure_1">
  <g id="patch_1">
   <path d="M 0 432 
L 720 432 
L 720 0 
L 0 0 
z
" style="fill: #ffffff"/>
  </g>
  <g id="axes_1">
   <g id="patch_2">
    <path d="M 90 384.48 
L 648 384.48 
L 648 51.84 
L 90 51.84 
z
" style="fill: #ffffff"/>
   </g>
   <g id="matplotlib.axis_1">
    <g id="xtick_1">
     <g id="line2d_1">
      <path d="M 115.363636 384.48 
L 115.363636 51.84 
" clip-path="url(#p2cd4131178)" style="fill: none; stroke: #b0b0b0; stroke-width: 0.8; stroke-linecap: square"/>
     </g>
     <g id="line2d_2">
      <defs>
       <path id="m3e2e5a681f" d="M 0 0 
L 0 3.5 
" style="stroke: #000000; stroke-width: 0.8"/>
      </defs>
      <g>
       <use xlink:href="#m3e2e5a681f" x="115.363636" y="384.48" style="stroke: #000000; stroke-width: 0.8"/>
      </g>
     </g>
     <g id="text_1">
      <!-- −1.00 -->
      <g transform="translate(100.04098 399.078438) scale(0.1 -0.1)">
       <defs>
        <path id="DejaVuSans-2212" d="M 678 2272 
L 4684 2272 
L 4684 1741 
L 678 1741 
L 678 2272 
z
" transform="scale(0.015625)"/>
        <path id="DejaVuSans-31" d="M 794 531 
L 1825 531 
L 1825 4091 
L 703 3866 
L 703 4441 
L 1819 4666 
L 2450 4666 
L 2450 531 
L 3481 531 
L 3481 0 
L 794 0 
L 794 531 
z
" transform="scale(0.015625)"/>
        <path id="DejaVuSans-2e" d="M 684 794 
L 1344 794 
L 1344 0 
L 684 0 
L 684 794 
z
" transform="scale(0.015625)"/>
        <path id="DejaVuSans-30" d="M 2034 4250 
Q 1547 4250 1301 3770 
Q 1056 3291 1056 2328 
Q 1056 1369 1301 889 
Q 1547 409 2034 409 
Q 2525 409 2770 889 
Q 3016 1369 3016 2328 
Q 3016 3291 2770 3770 
Q 2525 4250 2034 4250 
z
M 2034 4750 
Q 2819 4750 3233 4129 
Q 3647 3509 3647 2328 
Q 3647 1150 3233 529 
Q 2819 -91 2034 -91 
Q 1250 -91 836 529 
Q 422 1150 422 2328 
Q 422 3509 836 4129 
Q 1250 4750 2034 4750 
z
" transform="scale(0.015625)"/>
       </defs>
       <use xlink:href="#DejaVuSans-2212"/>
       <use xlink:href="#DejaVuSans-31" x="83.789062"/>
       <use xlink:href="#DejaVuSans-2e" x="147.412109"/>
       <use xlink:href="#DejaVuSans-30" x="179.199219"/>
       <use xlink:href="#DejaVuSans-30" x="242.822266"/>
      </g>
     </g>
    </g>
    <g id="xtick_2">
     <g id="line2d_3">
      <path d="M 178.772727 384.48 
L 178.772727 51.84 
" clip-path="url(#p2cd4131178)" style="fill: none; stroke: #b0b0b0; stroke-width: 0.8; stroke-linecap: square"/>
     </g>
     <g id="line2d_4">
      <g>
       <use xlink:href="#m3e2e5a681f" x="178.772727" y="384.48" style="stroke: #000000; stroke-width: 0.8"/>
      </g>
     </g>
     <g id="text_2">
      <!-- −0.75 -->
      <g transform="translate(163.450071 399.078438) scale(0.1 -0.1)">
       <defs>
        <path id="DejaVuSans-37" d="M 525 4666 
L 3525 4666 
L 3525 4397 
L 1831 0 
L 1172 0 
L 2766 4134 
L 525 4134 
L 525 4666 
z
" transform="scale(0.015625)"/>
        <path id="DejaVuSans-35" d="M 691 4666 
L 3169 4666 
L 3169 4134 
L 1269 4134 
L 1269 2991 
Q 1406 3038 1543 3061 
Q 1681 3084 1819 3084 
Q 2600 3084 3056 2656 
Q 3513 2228 3513 1497 
Q 3513 744 3044 326 
Q 2575 -91 1722 -91 
Q 1428 -91 1123 -41 
Q 819 9 494 109 
L 494 744 
Q 775 591 1075 516 
Q 1375 441 1709 441 
Q 2250 441 2565 725 
Q 2881 1009 2881 1497 
Q 2881 1984 2565 2268 
Q 2250 2553 1709 2553 
Q 1456 2553 1204 2497 
Q 953 2441 691 2322 
L 691 4666 
z
" transform="scale(0.015625)"/>
       </defs>
       <use xlink:href="#DejaVuSans-2212"/>
       <use xlink:href="#DejaVuSans-30" x="83.789062"/>
       <use xlink:href="#DejaVuSans-2e" x="147.412109"/>
       <use xlink:href="#DejaVuSans-37" x="179.199219"/>
       <use xlink:href="#DejaVuSans-35" x="242.822266"/>
      </g>
     </g>
    </g>
    <g id="xtick_3">
     <g id="line2d_5">
      <path d="M 242.181818 384.48 
L 242.181818 51.84 
" clip-path="url(#p2cd4131178)" style="fill: none; stroke: #b0b0b0; stroke-width: 0.8; stroke-linecap: square"/>
     </g>
     <g id="line2d_6">
      <g>
       <use xlink:href="#m3e2e5a681f" x="242.181818" y="384.48" style="stroke: #000000; stroke-width: 0.8"/>
      </g>
     </g>
     <g id="text_3">
      <!-- −0.50 -->
      <g transform="translate(226.859162 399.078438) scale(0.1 -0.1)">
       <use xlink:href="#DejaVuSans-2212"/>
       <use xlink:href="#DejaVuSans-30" x="83.789062"/>
       <use xlink:href="#DejaVuSans-2e" x="147.412109"/>
       <use xlink:href="#DejaVuSans-35" x="179.199219"/>
       <use xlink:href="#DejaVuSans-30" x="242.822266"/>
      </g>
     </g>
    </g>
    <g id="xtick_4">
     <g id="line2d_7">
      <path d="M 305.590909 384.48 
L 305.590909 51.84 
" clip-path="url(#p2cd4131178)" style="fill: none; stroke: #b0b0b0; stroke-width: 0.8; stroke-linecap: square"/>
     </g>
     <g id="line2d_8">
      <g>
       <use xlink:href="#m3e2e5a681f" x="305.590909" y="384.48" style="stroke: #000000; stroke-width: 0.8"/>
      </g>
     </g>
     <g id="text_4">
      <!-- −0.25 -->
      <g transform="translate(290.268253 399.078438) scale(0.1 -0.1)">
       <defs>
        <path id="DejaVuSans-32" d="M 1228 531 
L 3431 531 
L 3431 0 
L 469 0 
L 469 531 
Q 828 903 1448 1529 
Q 2069 2156 2228 2338 
Q 2531 2678 2651 2914 
Q 2772 3150 2772 3378 
Q 2772 3750 2511 3984 
Q 2250 4219 1831 4219 
Q 1534 4219 1204 4116 
Q 875 4013 500 3803 
L 500 4441 
Q 881 4594 1212 4672 
Q 1544 4750 1819 4750 
Q 2544 4750 2975 4387 
Q 3406 4025 3406 3419 
Q 3406 3131 3298 2873 
Q 3191 2616 2906 2266 
Q 2828 2175 2409 1742 
Q 1991 1309 1228 531 
z
" transform="scale(0.015625)"/>
       </defs>
       <use xlink:href="#DejaVuSans-2212"/>
       <use xlink:href="#DejaVuSans-30" x="83.789062"/>
       <use xlink:href="#DejaVuSans-2e" x="147.412109"/>
       <use xlink:href="#DejaVuSans-32" x="179.199219"/>
       <use xlink:href="#DejaVuSans-35" x="242.822266"/>
      </g>
     </g>
    </g>
    <g id="xtick_5">
     <g id="line2d_9">
      <path d="M 369 384.48 
L 369 51.84 
" clip-path="url(#p2cd4131178)" style="fill: none; stroke: #b0b0b0; stroke-width: 0.8; stroke-linecap: square"/>
     </g>
     <g id="line2d_10">
      <g>
       <use xlink:href="#m3e2e5a681f" x="369" y="384.48" style="stroke: #000000; stroke-width: 0.8"/>
      </g>
     </g>
     <g id="text_5">
      <!-- 0.00 -->
      <g transform="translate(357.867188 399.078438) scale(0.1 -0.1)">
       <use xlink:href="#DejaVuSans-30"/>
       <use xlink:href="#DejaVuSans-2e" x="63.623047"/>
       <use xlink:href="#DejaVuSans-30" x="95.410156"/>
       <use xlink:href="#DejaVuSans-30" x="159.033203"/>
      </g>
     </g>
    </g>
    <g id="xtick_6">
     <g id="line2d_11">
      <path d="M 432.409091 384.48 
L 432.409091 51.84 
" clip-path="url(#p2cd4131178)" style="fill: none; stroke: #b0b0b0; stroke-width: 0.8; stroke-linecap: square"/>
     </g>
     <g id="line2d_12">
      <g>
       <use xlink:href="#m3e2e5a681f" x="432.409091" y="384.48" style="stroke: #000000; stroke-width: 0.8"/>
      </g>
     </g>
     <g id="text_6">
      <!-- 0.25 -->
      <g transform="translate(421.276278 399.078438) scale(0.1 -0.1)">
       <use xlink:href="#DejaVuSans-30"/>
       <use xlink:href="#DejaVuSans-2e" x="63.623047"/>
       <use xlink:href="#DejaVuSans-32" x="95.410156"/>
       <use xlink:href="#DejaVuSans-35" x="159.033203"/>
      </g>
     </g>
    </g>
    <g id="xtick_7">
     <g id="line2d_13">
      <path d="M 495.818182 384.48 
L 495.818182 51.84 
" clip-path="url(#p2cd4131178)" style="fill: none; stroke: #b0b0b0; stroke-width: 0.8; stroke-linecap: square"/>
     </g>
     <g id="line2d_14">
      <g>
       <use xlink:href="#m3e2e5a681f" x="495.818182" y="384.48" style="stroke: #000000; stroke-width: 0.8"/>
      </g>
     </g>
     <g id="text_7">
      <!-- 0.50 -->
      <g transform="translate(484.685369 399.078438) scale(0.1 -0.1)">
       <use xlink:href="#DejaVuSans-30"/>
       <use xlink:href="#DejaVuSans-2e" x="63.623047"/>
       <use xlink:href="#DejaVuSans-35" x="95.410156"/>
       <use xlink:href="#DejaVuSans-30" x="159.033203"/>
      </g>
     </g>
    </g>
    <g id="xtick_8">
     <g id="line2d_15">
      <path d="M 559.227273 384.48 
L 559.227273 51.84 
" clip-path="url(#p2cd4131178)" style="fill: none; stroke: #b0b0b0; stroke-width: 0.8; stroke-linecap: square"/>
     </g>
     <g id="line2d_16">
      <g>
       <use xlink:href="#m3e2e5a681f" x="559.227273" y="384.48" style="stroke: #000000; stroke-width: 0.8"/>
      </g>
     </g>
     <g id="text_8">
      <!-- 0.75 -->
      <g transform="translate(548.09446 399.078438) scale(0.1 -0.1)">
       <use xlink:href="#DejaVuSans-30"/>
       <use xlink:href="#DejaVuSans-2e" x="63.623047"/>
       <use xlink:href="#DejaVuSans-37" x="95.410156"/>
       <use xlink:href="#DejaVuSans-35" x="159.033203"/>
      </g>
     </g>
    </g>
    <g id="xtick_9">
     <g id="line2d_17">
      <path d="M 622.636364 384.48 
L 622.636364 51.84 
" clip-path="url(#p2cd4131178)" style="fill: none; stroke: #b0b0b0; stroke-width: 0.8; stroke-linecap: square"/>
     </g>
     <g id="line2d_18">
      <g>
       <use xlink:href="#m3e2e5a681f" x="622.636364" y="384.48" style="stroke: #000000; stroke-width: 0.8"/>
      </g>
     </g>
     <g id="text_9">
      <!-- 1.00 -->
      <g transform="translate(611.503551 399.078438) scale(0.1 -0.1)">
       <use xlink:href="#DejaVuSans-31"/>
       <use xlink:href="#DejaVuSans-2e" x="63.623047"/>
       <use xlink:href="#DejaVuSans-30" x="95.410156"/>
       <use xlink:href="#DejaVuSans-30" x="159.033203"/>
      </g>
     </g>
    </g>
   </g>
   <g id="matplotlib.axis_2">
    <g id="ytick_1">
     <g id="line2d_19">
      <path d="M 90 375.915873 
L 648 375.915873 
" clip-path="url(#p2cd4131178)" style="fill: none; stroke: #b0b0b0; stroke-width: 0.8; stroke-linecap: square"/>
     </g>
     <g id="line2d_20">
      <defs>
       <path id="ma29ff0ec63" d="M 0 0 
L -3.5 0 
" style="stroke: #000000; stroke-width: 0.8"/>
      </defs>
      <g>
       <use xlink:href="#ma29ff0ec63" x="90" y="375.915873" style="stroke: #000000; stroke-width: 0.8"/>
      </g>
     </g>
     <g id="text_10">
      <!-- −0.06 -->
      <g transform="translate(52.354687 379.715092) scale(0.1 -0.1)">
       <defs>
        <path id="DejaVuSans-36" d="M 2113 2584 
Q 1688 2584 1439 2293 
Q 1191 2003 1191 1497 
Q 1191 994 1439 701 
Q 1688 409 2113 409 
Q 2538 409 2786 701 
Q 3034 994 3034 1497 
Q 3034 2003 2786 2293 
Q 2538 2584 2113 2584 
z
M 3366 4563 
L 3366 3988 
Q 3128 4100 2886 4159 
Q 2644 4219 2406 4219 
Q 1781 4219 1451 3797 
Q 1122 3375 1075 2522 
Q 1259 2794 1537 2939 
Q 1816 3084 2150 3084 
Q 2853 3084 3261 2657 
Q 3669 2231 3669 1497 
Q 3669 778 3244 343 
Q 2819 -91 2113 -91 
Q 1303 -91 875 529 
Q 447 1150 447 2328 
Q 447 3434 972 4092 
Q 1497 4750 2381 4750 
Q 2619 4750 2861 4703 
Q 3103 4656 3366 4563 
z
" transform="scale(0.015625)"/>
       </defs>
       <use xlink:href="#DejaVuSans-2212"/>
       <use xlink:href="#DejaVuSans-30" x="83.789062"/>
       <use xlink:href="#DejaVuSans-2e" x="147.412109"/>
       <use xlink:href="#DejaVuSans-30" x="179.199219"/>
       <use xlink:href="#DejaVuSans-36" x="242.822266"/>
      </g>
     </g>
    </g>
    <g id="ytick_2">
     <g id="line2d_21">
      <path d="M 90 323.330582 
L 648 323.330582 
" clip-path="url(#p2cd4131178)" style="fill: none; stroke: #b0b0b0; stroke-width: 0.8; stroke-linecap: square"/>
     </g>
     <g id="line2d_22">
      <g>
       <use xlink:href="#ma29ff0ec63" x="90" y="323.330582" style="stroke: #000000; stroke-width: 0.8"/>
      </g>
     </g>
     <g id="text_11">
      <!-- −0.04 -->
      <g transform="translate(52.354687 327.129801) scale(0.1 -0.1)">
       <defs>
        <path id="DejaVuSans-34" d="M 2419 4116 
L 825 1625 
L 2419 1625 
L 2419 4116 
z
M 2253 4666 
L 3047 4666 
L 3047 1625 
L 3713 1625 
L 3713 1100 
L 3047 1100 
L 3047 0 
L 2419 0 
L 2419 1100 
L 313 1100 
L 313 1709 
L 2253 4666 
z
" transform="scale(0.015625)"/>
       </defs>
       <use xlink:href="#DejaVuSans-2212"/>
       <use xlink:href="#DejaVuSans-30" x="83.789062"/>
       <use xlink:href="#DejaVuSans-2e" x="147.412109"/>
       <use xlink:href="#DejaVuSans-30" x="179.199219"/>
       <use xlink:href="#DejaVuSans-34" x="242.822266"/>
      </g>
     </g>
    </g>
    <g id="ytick_3">
     <g id="line2d_23">
      <path d="M 90 270.745291 
L 648 270.745291 
" clip-path="url(#p2cd4131178)" style="fill: none; stroke: #b0b0b0; stroke-width: 0.8; stroke-linecap: square"/>
     </g>
     <g id="line2d_24">
      <g>
       <use xlink:href="#ma29ff0ec63" x="90" y="270.745291" style="stroke: #000000; stroke-width: 0.8"/>
      </g>
     </g>
     <g id="text_12">
      <!-- −0.02 -->
      <g transform="translate(52.354687 274.54451) scale(0.1 -0.1)">
       <use xlink:href="#DejaVuSans-2212"/>
       <use xlink:href="#DejaVuSans-30" x="83.789062"/>
       <use xlink:href="#DejaVuSans-2e" x="147.412109"/>
       <use xlink:href="#DejaVuSans-30" x="179.199219"/>
       <use xlink:href="#DejaVuSans-32" x="242.822266"/>
      </g>
     </g>
    </g>
    <g id="ytick_4">
     <g id="line2d_25">
      <path d="M 90 218.16 
L 648 218.16 
" clip-path="url(#p2cd4131178)" style="fill: none; stroke: #b0b0b0; stroke-width: 0.8; stroke-linecap: square"/>
     </g>
     <g id="line2d_26">
      <g>
       <use xlink:href="#ma29ff0ec63" x="90" y="218.16" style="stroke: #000000; stroke-width: 0.8"/>
      </g>
     </g>
     <g id="text_13">
      <!-- 0.00 -->
      <g transform="translate(60.734375 221.959219) scale(0.1 -0.1)">
       <use xlink:href="#DejaVuSans-30"/>
       <use xlink:href="#DejaVuSans-2e" x="63.623047"/>
       <use xlink:href="#DejaVuSans-30" x="95.410156"/>
       <use xlink:href="#DejaVuSans-30" x="159.033203"/>
      </g>
     </g>
    </g>
    <g id="ytick_5">
     <g id="line2d_27">
      <path d="M 90 165.574709 
L 648 165.574709 
" clip-path="url(#p2cd4131178)" style="fill: none; stroke: #b0b0b0; stroke-width: 0.8; stroke-linecap: square"/>
     </g>
     <g id="line2d_28">
      <g>
       <use xlink:href="#ma29ff0ec63" x="90" y="165.574709" style="stroke: #000000; stroke-width: 0.8"/>
      </g>
     </g>
     <g id="text_14">
      <!-- 0.02 -->
      <g transform="translate(60.734375 169.373928) scale(0.1 -0.1)">
       <use xlink:href="#DejaVuSans-30"/>
       <use xlink:href="#DejaVuSans-2e" x="63.623047"/>
       <use xlink:href="#DejaVuSans-30" x="95.410156"/>
       <use xlink:href="#DejaVuSans-32" x="159.033203"/>
      </g>
     </g>
    </g>
    <g id="ytick_6">
     <g id="line2d_29">
      <path d="M 90 112.989418 
L 648 112.989418 
" clip-path="url(#p2cd4131178)" style="fill: none; stroke: #b0b0b0; stroke-width: 0.8; stroke-linecap: square"/>
     </g>
     <g id="line2d_30">
      <g>
       <use xlink:href="#ma29ff0ec63" x="90" y="112.989418" style="stroke: #000000; stroke-width: 0.8"/>
      </g>
     </g>
     <g id="text_15">
      <!-- 0.04 -->
      <g transform="translate(60.734375 116.788637) scale(0.1 -0.1)">
       <use xlink:href="#DejaVuSans-30"/>
       <use xlink:href="#DejaVuSans-2e" x="63.623047"/>
       <use xlink:href="#DejaVuSans-30" x="95.410156"/>
       <use xlink:href="#DejaVuSans-34" x="159.033203"/>
      </g>
     </g>
    </g>
    <g id="ytick_7">
     <g id="line2d_31">
      <path d="M 90 60.404127 
L 648 60.404127 
" clip-path="url(#p2cd4131178)" style="fill: none; stroke: #b0b0b0; stroke-width: 0.8; stroke-linecap: square"/>
     </g>
     <g id="line2d_32">
      <g>
       <use xlink:href="#ma29ff0ec63" x="90" y="60.404127" style="stroke: #000000; stroke-width: 0.8"/>
      </g>
     </g>
     <g id="text_16">
      <!-- 0.06 -->
      <g transform="translate(60.734375 64.203346) scale(0.1 -0.1)">
       <use xlink:href="#DejaVuSans-30"/>
       <use xlink:href="#DejaVuSans-2e" x="63.623047"/>
       <use xlink:href="#DejaVuSans-30" x="95.410156"/>
       <use xlink:href="#DejaVuSans-36" x="159.033203"/>
      </g>
     </g>
    </g>
   </g>
   <g id="line2d_33">
    <path d="M 115.363636 218.16 
L 120.446529 212.755934 
L 123.496265 209.81187 
L 125.529422 208.063143 
L 127.56258 206.530623 
L 129.595737 205.24825 
L 131.628894 204.244934 
L 133.662051 203.543742 
L 135.695209 203.161111 
L 137.728366 203.106071 
L 139.761523 203.37949 
L 141.79468 203.973336 
L 143.827837 204.869969 
L 145.860995 206.041448 
L 147.894152 207.448871 
L 150.943888 209.888615 
L 157.043359 215.055213 
L 159.076517 216.517447 
L 161.109674 217.654674 
L 162.126253 218.058514 
L 163.142831 218.327726 
L 164.15941 218.442517 
L 165.175988 218.382116 
L 166.192567 218.124769 
L 167.209146 217.658772 
L 168.225724 217.00423 
L 170.258881 215.229121 
L 172.292039 212.988414 
L 175.341774 209.126991 
L 180.424668 202.567184 
L 182.457825 200.249608 
L 184.490982 198.248947 
L 186.524139 196.636594 
L 188.557296 195.467199 
L 189.573875 195.061145 
L 190.590454 194.778812 
L 191.607032 194.622391 
L 192.623611 194.593063 
L 193.640189 194.691002 
L 194.656768 194.915389 
L 195.673347 195.264416 
L 197.706504 196.324294 
L 199.739661 197.836844 
L 201.772818 199.753188 
L 203.805976 202.009767 
L 206.855711 205.858608 
L 213.971762 215.202432 
L 216.004919 217.403513 
L 218.038076 219.139159 
L 220.071233 220.388996 
L 222.104391 221.225514 
L 224.137548 221.715026 
L 226.170705 221.915778 
L 228.203862 221.878705 
L 230.237019 221.648207 
L 233.286755 221.022991 
L 236.336491 220.158943 
L 241.419384 218.431777 
L 248.535435 216.004548 
L 251.58517 215.173501 
L 254.634906 214.598239 
L 256.668063 214.412263 
L 258.701221 214.430241 
L 260.734378 214.698136 
L 262.767535 215.268637 
L 264.800692 216.201936 
L 266.83385 217.566481 
L 268.867007 219.428408 
L 270.900164 221.7239 
L 273.9499 225.659596 
L 279.032793 232.4408 
L 281.06595 234.902259 
L 283.099107 237.080525 
L 285.132265 238.901313 
L 287.165422 240.304694 
L 289.198579 241.245526 
L 290.215158 241.532521 
L 291.231736 241.693848 
L 292.248315 241.728194 
L 293.264893 241.635235 
L 294.281472 241.415647 
L 295.298051 241.071116 
L 297.331208 240.019051 
L 299.364365 238.512966 
L 301.397522 236.603344 
L 303.43068 234.357384 
L 306.480415 230.546214 
L 311.563308 223.94394 
L 313.596466 221.614425 
L 315.629623 219.705844 
L 316.646201 218.966527 
L 317.66278 218.403049 
L 318.679359 218.040544 
L 319.695937 217.884448 
L 320.712516 217.9143 
L 321.729095 218.108837 
L 322.745673 218.447776 
L 324.77883 219.482599 
L 326.811988 220.875805 
L 329.861723 223.361754 
L 335.961195 228.488062 
L 337.994352 229.947047 
L 340.02751 231.181601 
L 342.060667 232.149982 
L 344.093824 232.821569 
L 346.126981 233.176211 
L 348.160138 233.20354 
L 350.193296 232.902266 
L 352.226453 232.27945 
L 354.25961 231.349747 
L 356.292767 230.134643 
L 358.325925 228.66166 
L 360.359082 226.963558 
L 363.408818 224.076643 
L 367.475132 219.814322 
L 374.591182 212.243357 
L 377.640918 209.356442 
L 379.674075 207.65834 
L 381.707233 206.185357 
L 383.74039 204.970253 
L 385.773547 204.04055 
L 387.806704 203.417734 
L 389.839862 203.11646 
L 391.873019 203.143789 
L 393.906176 203.498431 
L 395.939333 204.170018 
L 397.97249 205.138399 
L 400.005648 206.372953 
L 402.038805 207.831938 
L 405.088541 210.320848 
L 411.188012 215.444195 
L 413.22117 216.837401 
L 415.254327 217.872224 
L 416.270905 218.211163 
L 417.287484 218.4057 
L 418.304063 218.435552 
L 419.320641 218.279456 
L 420.33722 217.916951 
L 421.353799 217.353473 
L 422.370377 216.614156 
L 424.403534 214.705575 
L 426.436692 212.37606 
L 429.486427 208.456064 
L 433.552742 203.186127 
L 435.585899 200.802449 
L 437.619056 198.71521 
L 439.652214 197.000004 
L 441.685371 195.715657 
L 443.718528 194.904353 
L 444.735107 194.684765 
L 445.751685 194.591806 
L 446.768264 194.626152 
L 447.784842 194.787479 
L 448.801421 195.074474 
L 449.818 195.484838 
L 451.851157 196.661648 
L 453.884314 198.280309 
L 455.917471 200.288235 
L 457.950629 202.618262 
L 461.000364 206.535683 
L 467.099836 214.5961 
L 469.132993 216.891592 
L 471.16615 218.753519 
L 473.199308 220.118064 
L 475.232465 221.051363 
L 477.265622 221.621864 
L 479.298779 221.889759 
L 481.331937 221.907737 
L 483.365094 221.721761 
L 486.41483 221.146499 
L 489.464565 220.315452 
L 493.53088 218.970805 
L 502.680087 215.852489 
L 505.729823 215.057053 
L 508.779559 214.534907 
L 510.812716 214.395949 
L 512.845874 214.471848 
L 514.879031 214.810175 
L 516.912188 215.465422 
L 518.945345 216.499777 
L 520.978502 217.983867 
L 523.01166 219.967487 
L 525.044817 222.348049 
L 528.094553 226.3454 
L 533.177446 233.078125 
L 535.210603 235.476518 
L 537.24376 237.571825 
L 539.276917 239.293309 
L 541.310075 240.584699 
L 543.343232 241.404611 
L 544.359811 241.628998 
L 545.376389 241.726937 
L 546.392968 241.697609 
L 547.409546 241.541188 
L 548.426125 241.258855 
L 549.442704 240.852801 
L 551.475861 239.683406 
L 553.509018 238.071053 
L 555.542175 236.070392 
L 557.575332 233.752816 
L 560.625068 229.879872 
L 565.707961 223.331586 
L 567.741119 221.090879 
L 569.774276 219.31577 
L 570.790854 218.661228 
L 571.807433 218.195231 
L 572.824012 217.937884 
L 573.84059 217.877483 
L 574.857169 217.992274 
L 575.873747 218.261486 
L 577.906905 219.18497 
L 579.940062 220.501154 
L 582.989798 222.927799 
L 589.089269 228.09425 
L 591.122427 229.601457 
L 593.155584 230.896481 
L 595.188741 231.934699 
L 597.221898 232.682771 
L 599.255056 233.117992 
L 601.288213 233.227612 
L 603.32137 233.00814 
L 605.354527 232.464619 
L 607.387684 231.609878 
L 609.420842 230.463766 
L 611.453999 229.052373 
L 613.487156 227.407223 
L 616.536892 224.581352 
L 620.603206 220.362351 
L 622.636364 218.16 
L 622.636364 218.16 
" clip-path="url(#p2cd4131178)" style="fill: none; stroke: #800080; stroke-width: 1.5; stroke-linecap: square"/>
   </g>
   <g id="line2d_34">
    <path d="M 115.363636 218.16 
L 116.380215 242.386091 
L 117.396794 263.900625 
L 118.413372 282.887878 
L 119.429951 299.52315 
L 120.446529 313.973086 
L 121.463108 326.39599 
L 122.479687 336.942136 
L 123.496265 345.754064 
L 124.512844 352.966875 
L 125.529422 358.708509 
L 126.546001 363.100026 
L 127.56258 366.255869 
L 128.579158 368.28413 
L 129.595737 369.286796 
L 130.612316 369.36 
L 131.628894 368.594259 
L 132.645473 367.074704 
L 133.662051 364.881307 
L 134.67863 362.089097 
L 135.695209 358.768373 
L 137.728366 350.800162 
L 139.761523 341.452122 
L 142.811259 325.728859 
L 153.993624 265.413272 
L 157.043359 251.045256 
L 159.076517 242.328222 
L 161.109674 234.361031 
L 163.142831 227.173517 
L 165.175988 220.77881 
L 167.209146 215.175736 
L 169.242303 210.350999 
L 171.27546 206.28118 
L 173.308617 202.934543 
L 175.341774 200.272668 
L 177.374932 198.251931 
L 178.39151 197.467259 
L 179.408089 196.824815 
L 180.424668 196.318246 
L 181.441246 195.941094 
L 182.457825 195.686828 
L 184.490982 195.520622 
L 186.524139 195.766909 
L 188.557296 196.373376 
L 190.590454 197.288759 
L 192.623611 198.463388 
L 194.656768 199.849645 
L 197.706504 202.227719 
L 201.772818 205.740906 
L 209.905447 212.912192 
L 213.971762 216.146282 
L 217.021498 218.294814 
L 220.071233 220.161337 
L 223.120969 221.721007 
L 226.170705 222.961681 
L 229.220441 223.882496 
L 232.270177 224.49237 
L 235.319913 224.808478 
L 238.369648 224.854725 
L 241.419384 224.660259 
L 244.46912 224.258047 
L 248.535435 223.460065 
L 253.618328 222.164416 
L 271.916743 217.084737 
L 275.983057 216.257287 
L 280.049371 215.626075 
L 284.115686 215.206737 
L 288.182 215.002485 
L 292.248315 215.005209 
L 297.331208 215.271511 
L 302.414101 215.780157 
L 308.513573 216.616439 
L 327.828566 219.48918 
L 333.928038 220.0651 
L 339.010931 220.328092 
L 344.093824 220.377975 
L 349.176717 220.218378 
L 355.276189 219.780014 
L 362.392239 219.00991 
L 383.74039 216.450383 
L 389.839862 216.053692 
L 394.922755 215.934878 
L 400.005648 216.02765 
L 405.088541 216.332151 
L 411.188012 216.951079 
L 418.304063 217.939738 
L 436.602478 220.657928 
L 441.685371 221.123052 
L 446.768264 221.334047 
L 450.834578 221.286354 
L 454.900893 221.02867 
L 458.967207 220.555594 
L 463.033522 219.873353 
L 468.116415 218.756404 
L 474.215886 217.119724 
L 488.447987 213.097104 
L 492.514301 212.23611 
L 495.564037 211.77244 
L 498.613773 211.504914 
L 501.663509 211.467467 
L 504.713245 211.690676 
L 507.762981 212.200357 
L 510.812716 213.016094 
L 513.862452 214.149731 
L 516.912188 215.603831 
L 519.961924 217.370174 
L 523.01166 219.428303 
L 526.061396 221.744173 
L 530.12771 225.146302 
L 542.326653 235.712091 
L 545.376389 237.856612 
L 547.409546 239.031241 
L 549.442704 239.946624 
L 551.475861 240.553091 
L 553.509018 240.799378 
L 555.542175 240.633172 
L 556.558754 240.378906 
L 557.575332 240.001754 
L 558.591911 239.495185 
L 559.60849 238.852741 
L 560.625068 238.068069 
L 561.641647 237.13495 
L 563.674804 234.799369 
L 565.707961 231.800273 
L 567.741119 228.096466 
L 569.774276 223.652676 
L 571.807433 218.44111 
L 573.84059 212.443173 
L 575.873747 205.651368 
L 577.906905 198.071389 
L 579.940062 189.724405 
L 581.973219 180.649565 
L 585.022955 165.809901 
L 588.072691 149.778053 
L 598.238477 94.867878 
L 600.271634 85.519838 
L 602.304791 77.551627 
L 603.32137 74.230903 
L 604.337949 71.438693 
L 605.354527 69.245296 
L 606.371106 67.725741 
L 607.387684 66.96 
L 608.404263 67.033204 
L 609.420842 68.03587 
L 610.43742 70.064131 
L 611.453999 73.219974 
L 612.470578 77.611491 
L 613.487156 83.353125 
L 614.503735 90.565936 
L 615.520313 99.377864 
L 616.536892 109.92401 
L 617.553471 122.346914 
L 618.570049 136.79685 
L 619.586628 153.432122 
L 620.603206 172.419375 
L 621.619785 193.933909 
L 622.636364 218.16 
L 622.636364 218.16 
" clip-path="url(#p2cd4131178)" style="fill: none; stroke: #ffa500; stroke-width: 1.5; stroke-linecap: square"/>
   </g>
   <g id="patch_3">
    <path d="M 90 384.48 
L 90 51.84 
" style="fill: none; stroke: #000000; stroke-width: 0.8; stroke-linejoin: miter; stroke-linecap: square"/>
   </g>
   <g id="patch_4">
    <path d="M 648 384.48 
L 648 51.84 
" style="fill: none; stroke: #000000; stroke-width: 0.8; stroke-linejoin: miter; stroke-linecap: square"/>
   </g>
   <g id="patch_5">
    <path d="M 90 384.48 
L 648 384.48 
" style="fill: none; stroke: #000000; stroke-width: 0.8; stroke-linejoin: miter; stroke-linecap: square"/>
   </g>
   <g id="patch_6">
    <path d="M 90 51.84 
L 648 51.84 
" style="fill: none; stroke: #000000; stroke-width: 0.8; stroke-linejoin: miter; stroke-linecap: square"/>
   </g>
   <g id="text_17">
    <!-- Roznice interpolacji dla n=10 -->
    <g transform="translate(281.044688 45.84) scale(0.12 -0.12)">
     <defs>
      <path id="DejaVuSans-52" d="M 2841 2188 
Q 3044 2119 3236 1894 
Q 3428 1669 3622 1275 
L 4263 0 
L 3584 0 
L 2988 1197 
Q 2756 1666 2539 1819 
Q 2322 1972 1947 1972 
L 1259 1972 
L 1259 0 
L 628 0 
L 628 4666 
L 2053 4666 
Q 2853 4666 3247 4331 
Q 3641 3997 3641 3322 
Q 3641 2881 3436 2590 
Q 3231 2300 2841 2188 
z
M 1259 4147 
L 1259 2491 
L 2053 2491 
Q 2509 2491 2742 2702 
Q 2975 2913 2975 3322 
Q 2975 3731 2742 3939 
Q 2509 4147 2053 4147 
L 1259 4147 
z
" transform="scale(0.015625)"/>
      <path id="DejaVuSans-6f" d="M 1959 3097 
Q 1497 3097 1228 2736 
Q 959 2375 959 1747 
Q 959 1119 1226 758 
Q 1494 397 1959 397 
Q 2419 397 2687 759 
Q 2956 1122 2956 1747 
Q 2956 2369 2687 2733 
Q 2419 3097 1959 3097 
z
M 1959 3584 
Q 2709 3584 3137 3096 
Q 3566 2609 3566 1747 
Q 3566 888 3137 398 
Q 2709 -91 1959 -91 
Q 1206 -91 779 398 
Q 353 888 353 1747 
Q 353 2609 779 3096 
Q 1206 3584 1959 3584 
z
" transform="scale(0.015625)"/>
      <path id="DejaVuSans-7a" d="M 353 3500 
L 3084 3500 
L 3084 2975 
L 922 459 
L 3084 459 
L 3084 0 
L 275 0 
L 275 525 
L 2438 3041 
L 353 3041 
L 353 3500 
z
" transform="scale(0.015625)"/>
      <path id="DejaVuSans-6e" d="M 3513 2113 
L 3513 0 
L 2938 0 
L 2938 2094 
Q 2938 2591 2744 2837 
Q 2550 3084 2163 3084 
Q 1697 3084 1428 2787 
Q 1159 2491 1159 1978 
L 1159 0 
L 581 0 
L 581 3500 
L 1159 3500 
L 1159 2956 
Q 1366 3272 1645 3428 
Q 1925 3584 2291 3584 
Q 2894 3584 3203 3211 
Q 3513 2838 3513 2113 
z
" transform="scale(0.015625)"/>
      <path id="DejaVuSans-69" d="M 603 3500 
L 1178 3500 
L 1178 0 
L 603 0 
L 603 3500 
z
M 603 4863 
L 1178 4863 
L 1178 4134 
L 603 4134 
L 603 4863 
z
" transform="scale(0.015625)"/>
      <path id="DejaVuSans-63" d="M 3122 3366 
L 3122 2828 
Q 2878 2963 2633 3030 
Q 2388 3097 2138 3097 
Q 1578 3097 1268 2742 
Q 959 2388 959 1747 
Q 959 1106 1268 751 
Q 1578 397 2138 397 
Q 2388 397 2633 464 
Q 2878 531 3122 666 
L 3122 134 
Q 2881 22 2623 -34 
Q 2366 -91 2075 -91 
Q 1284 -91 818 406 
Q 353 903 353 1747 
Q 353 2603 823 3093 
Q 1294 3584 2113 3584 
Q 2378 3584 2631 3529 
Q 2884 3475 3122 3366 
z
" transform="scale(0.015625)"/>
      <path id="DejaVuSans-65" d="M 3597 1894 
L 3597 1613 
L 953 1613 
Q 991 1019 1311 708 
Q 1631 397 2203 397 
Q 2534 397 2845 478 
Q 3156 559 3463 722 
L 3463 178 
Q 3153 47 2828 -22 
Q 2503 -91 2169 -91 
Q 1331 -91 842 396 
Q 353 884 353 1716 
Q 353 2575 817 3079 
Q 1281 3584 2069 3584 
Q 2775 3584 3186 3129 
Q 3597 2675 3597 1894 
z
M 3022 2063 
Q 3016 2534 2758 2815 
Q 2500 3097 2075 3097 
Q 1594 3097 1305 2825 
Q 1016 2553 972 2059 
L 3022 2063 
z
" transform="scale(0.015625)"/>
      <path id="DejaVuSans-20" transform="scale(0.015625)"/>
      <path id="DejaVuSans-74" d="M 1172 4494 
L 1172 3500 
L 2356 3500 
L 2356 3053 
L 1172 3053 
L 1172 1153 
Q 1172 725 1289 603 
Q 1406 481 1766 481 
L 2356 481 
L 2356 0 
L 1766 0 
Q 1100 0 847 248 
Q 594 497 594 1153 
L 594 3053 
L 172 3053 
L 172 3500 
L 594 3500 
L 594 4494 
L 1172 4494 
z
" transform="scale(0.015625)"/>
      <path id="DejaVuSans-72" d="M 2631 2963 
Q 2534 3019 2420 3045 
Q 2306 3072 2169 3072 
Q 1681 3072 1420 2755 
Q 1159 2438 1159 1844 
L 1159 0 
L 581 0 
L 581 3500 
L 1159 3500 
L 1159 2956 
Q 1341 3275 1631 3429 
Q 1922 3584 2338 3584 
Q 2397 3584 2469 3576 
Q 2541 3569 2628 3553 
L 2631 2963 
z
" transform="scale(0.015625)"/>
      <path id="DejaVuSans-70" d="M 1159 525 
L 1159 -1331 
L 581 -1331 
L 581 3500 
L 1159 3500 
L 1159 2969 
Q 1341 3281 1617 3432 
Q 1894 3584 2278 3584 
Q 2916 3584 3314 3078 
Q 3713 2572 3713 1747 
Q 3713 922 3314 415 
Q 2916 -91 2278 -91 
Q 1894 -91 1617 61 
Q 1341 213 1159 525 
z
M 3116 1747 
Q 3116 2381 2855 2742 
Q 2594 3103 2138 3103 
Q 1681 3103 1420 2742 
Q 1159 2381 1159 1747 
Q 1159 1113 1420 752 
Q 1681 391 2138 391 
Q 2594 391 2855 752 
Q 3116 1113 3116 1747 
z
" transform="scale(0.015625)"/>
      <path id="DejaVuSans-6c" d="M 603 4863 
L 1178 4863 
L 1178 0 
L 603 0 
L 603 4863 
z
" transform="scale(0.015625)"/>
      <path id="DejaVuSans-61" d="M 2194 1759 
Q 1497 1759 1228 1600 
Q 959 1441 959 1056 
Q 959 750 1161 570 
Q 1363 391 1709 391 
Q 2188 391 2477 730 
Q 2766 1069 2766 1631 
L 2766 1759 
L 2194 1759 
z
M 3341 1997 
L 3341 0 
L 2766 0 
L 2766 531 
Q 2569 213 2275 61 
Q 1981 -91 1556 -91 
Q 1019 -91 701 211 
Q 384 513 384 1019 
Q 384 1609 779 1909 
Q 1175 2209 1959 2209 
L 2766 2209 
L 2766 2266 
Q 2766 2663 2505 2880 
Q 2244 3097 1772 3097 
Q 1472 3097 1187 3025 
Q 903 2953 641 2809 
L 641 3341 
Q 956 3463 1253 3523 
Q 1550 3584 1831 3584 
Q 2591 3584 2966 3190 
Q 3341 2797 3341 1997 
z
" transform="scale(0.015625)"/>
      <path id="DejaVuSans-6a" d="M 603 3500 
L 1178 3500 
L 1178 -63 
Q 1178 -731 923 -1031 
Q 669 -1331 103 -1331 
L -116 -1331 
L -116 -844 
L 38 -844 
Q 366 -844 484 -692 
Q 603 -541 603 -63 
L 603 3500 
z
M 603 4863 
L 1178 4863 
L 1178 4134 
L 603 4134 
L 603 4863 
z
" transform="scale(0.015625)"/>
      <path id="DejaVuSans-64" d="M 2906 2969 
L 2906 4863 
L 3481 4863 
L 3481 0 
L 2906 0 
L 2906 525 
Q 2725 213 2448 61 
Q 2172 -91 1784 -91 
Q 1150 -91 751 415 
Q 353 922 353 1747 
Q 353 2572 751 3078 
Q 1150 3584 1784 3584 
Q 2172 3584 2448 3432 
Q 2725 3281 2906 2969 
z
M 947 1747 
Q 947 1113 1208 752 
Q 1469 391 1925 391 
Q 2381 391 2643 752 
Q 2906 1113 2906 1747 
Q 2906 2381 2643 2742 
Q 2381 3103 1925 3103 
Q 1469 3103 1208 2742 
Q 947 2381 947 1747 
z
" transform="scale(0.015625)"/>
      <path id="DejaVuSans-3d" d="M 678 2906 
L 4684 2906 
L 4684 2381 
L 678 2381 
L 678 2906 
z
M 678 1631 
L 4684 1631 
L 4684 1100 
L 678 1100 
L 678 1631 
z
" transform="scale(0.015625)"/>
     </defs>
     <use xlink:href="#DejaVuSans-52"/>
     <use xlink:href="#DejaVuSans-6f" x="64.982422"/>
     <use xlink:href="#DejaVuSans-7a" x="126.164062"/>
     <use xlink:href="#DejaVuSans-6e" x="178.654297"/>
     <use xlink:href="#DejaVuSans-69" x="242.033203"/>
     <use xlink:href="#DejaVuSans-63" x="269.816406"/>
     <use xlink:href="#DejaVuSans-65" x="324.796875"/>
     <use xlink:href="#DejaVuSans-20" x="386.320312"/>
     <use xlink:href="#DejaVuSans-69" x="418.107422"/>
     <use xlink:href="#DejaVuSans-6e" x="445.890625"/>
     <use xlink:href="#DejaVuSans-74" x="509.269531"/>
     <use xlink:href="#DejaVuSans-65" x="548.478516"/>
     <use xlink:href="#DejaVuSans-72" x="610.001953"/>
     <use xlink:href="#DejaVuSans-70" x="651.115234"/>
     <use xlink:href="#DejaVuSans-6f" x="714.591797"/>
     <use xlink:href="#DejaVuSans-6c" x="775.773438"/>
     <use xlink:href="#DejaVuSans-61" x="803.556641"/>
     <use xlink:href="#DejaVuSans-63" x="864.835938"/>
     <use xlink:href="#DejaVuSans-6a" x="919.816406"/>
     <use xlink:href="#DejaVuSans-69" x="947.599609"/>
     <use xlink:href="#DejaVuSans-20" x="975.382812"/>
     <use xlink:href="#DejaVuSans-64" x="1007.169922"/>
     <use xlink:href="#DejaVuSans-6c" x="1070.646484"/>
     <use xlink:href="#DejaVuSans-61" x="1098.429688"/>
     <use xlink:href="#DejaVuSans-20" x="1159.708984"/>
     <use xlink:href="#DejaVuSans-6e" x="1191.496094"/>
     <use xlink:href="#DejaVuSans-3d" x="1254.875"/>
     <use xlink:href="#DejaVuSans-31" x="1338.664062"/>
     <use xlink:href="#DejaVuSans-30" x="1402.287109"/>
    </g>
   </g>
   <g id="legend_1">
    <g id="patch_7">
     <path d="M 97 89.24 
L 189.3 89.24 
Q 191.3 89.24 191.3 87.24 
L 191.3 58.84 
Q 191.3 56.84 189.3 56.84 
L 97 56.84 
Q 95 56.84 95 58.84 
L 95 87.24 
Q 95 89.24 97 89.24 
z
" style="fill: #ffffff; opacity: 0.8; stroke: #cccccc; stroke-linejoin: miter"/>
    </g>
    <g id="line2d_35">
     <path d="M 99 64.94 
L 109 64.94 
L 119 64.94 
" style="fill: none; stroke: #800080; stroke-width: 1.5; stroke-linecap: square"/>
    </g>
    <g id="text_18">
     <!-- $y(x) - s(x)$ -->
     <g transform="translate(127 68.44) scale(0.1 -0.1)">
      <defs>
       <path id="DejaVuSans-Oblique-79" d="M 1588 -325 
Q 1188 -997 936 -1164 
Q 684 -1331 294 -1331 
L -159 -1331 
L -63 -850 
L 269 -850 
Q 509 -850 678 -719 
Q 847 -588 1056 -206 
L 1234 128 
L 459 3500 
L 1069 3500 
L 1650 819 
L 3256 3500 
L 3859 3500 
L 1588 -325 
z
" transform="scale(0.015625)"/>
       <path id="DejaVuSans-28" d="M 1984 4856 
Q 1566 4138 1362 3434 
Q 1159 2731 1159 2009 
Q 1159 1288 1364 580 
Q 1569 -128 1984 -844 
L 1484 -844 
Q 1016 -109 783 600 
Q 550 1309 550 2009 
Q 550 2706 781 3412 
Q 1013 4119 1484 4856 
L 1984 4856 
z
" transform="scale(0.015625)"/>
       <path id="DejaVuSans-Oblique-78" d="M 3841 3500 
L 2234 1784 
L 3219 0 
L 2559 0 
L 1819 1388 
L 531 0 
L -166 0 
L 1556 1844 
L 641 3500 
L 1300 3500 
L 1972 2234 
L 3144 3500 
L 3841 3500 
z
" transform="scale(0.015625)"/>
       <path id="DejaVuSans-29" d="M 513 4856 
L 1013 4856 
Q 1481 4119 1714 3412 
Q 1947 2706 1947 2009 
Q 1947 1309 1714 600 
Q 1481 -109 1013 -844 
L 513 -844 
Q 928 -128 1133 580 
Q 1338 1288 1338 2009 
Q 1338 2731 1133 3434 
Q 928 4138 513 4856 
z
" transform="scale(0.015625)"/>
       <path id="DejaVuSans-Oblique-73" d="M 3200 3397 
L 3091 2853 
Q 2863 2978 2609 3040 
Q 2356 3103 2088 3103 
Q 1634 3103 1373 2948 
Q 1113 2794 1113 2528 
Q 1113 2219 1719 2053 
Q 1766 2041 1788 2034 
L 1972 1978 
Q 2547 1819 2739 1644 
Q 2931 1469 2931 1166 
Q 2931 609 2489 259 
Q 2047 -91 1331 -91 
Q 1053 -91 747 -37 
Q 441 16 72 128 
L 184 722 
Q 500 559 806 475 
Q 1113 391 1394 391 
Q 1816 391 2080 572 
Q 2344 753 2344 1031 
Q 2344 1331 1650 1516 
L 1591 1531 
L 1394 1581 
Q 956 1697 753 1886 
Q 550 2075 550 2369 
Q 550 2928 970 3256 
Q 1391 3584 2113 3584 
Q 2397 3584 2667 3537 
Q 2938 3491 3200 3397 
z
" transform="scale(0.015625)"/>
      </defs>
      <use xlink:href="#DejaVuSans-Oblique-79" transform="translate(0 0.125)"/>
      <use xlink:href="#DejaVuSans-28" transform="translate(59.179688 0.125)"/>
      <use xlink:href="#DejaVuSans-Oblique-78" transform="translate(98.193359 0.125)"/>
      <use xlink:href="#DejaVuSans-29" transform="translate(157.373047 0.125)"/>
      <use xlink:href="#DejaVuSans-2212" transform="translate(215.869141 0.125)"/>
      <use xlink:href="#DejaVuSans-Oblique-73" transform="translate(319.140625 0.125)"/>
      <use xlink:href="#DejaVuSans-28" transform="translate(371.240234 0.125)"/>
      <use xlink:href="#DejaVuSans-Oblique-78" transform="translate(410.253906 0.125)"/>
      <use xlink:href="#DejaVuSans-29" transform="translate(469.433594 0.125)"/>
     </g>
    </g>
    <g id="line2d_36">
     <path d="M 99 79.64 
L 109 79.64 
L 119 79.64 
" style="fill: none; stroke: #ffa500; stroke-width: 1.5; stroke-linecap: square"/>
    </g>
    <g id="text_19">
     <!-- $y(x) - W_n(x)$ -->
     <g transform="translate(127 83.14) scale(0.1 -0.1)">
      <defs>
       <path id="DejaVuSans-Oblique-57" d="M 616 4666 
L 1228 4666 
L 1453 697 
L 3213 4666 
L 3916 4666 
L 4147 697 
L 5888 4666 
L 6528 4666 
L 4453 0 
L 3659 0 
L 3444 3891 
L 1697 0 
L 903 0 
L 616 4666 
z
" transform="scale(0.015625)"/>
       <path id="DejaVuSans-Oblique-6e" d="M 3566 2113 
L 3156 0 
L 2578 0 
L 2988 2091 
Q 3016 2238 3031 2350 
Q 3047 2463 3047 2528 
Q 3047 2791 2881 2937 
Q 2716 3084 2419 3084 
Q 1956 3084 1622 2776 
Q 1288 2469 1184 1941 
L 800 0 
L 225 0 
L 903 3500 
L 1478 3500 
L 1363 2950 
Q 1603 3253 1940 3418 
Q 2278 3584 2650 3584 
Q 3113 3584 3367 3334 
Q 3622 3084 3622 2631 
Q 3622 2519 3608 2391 
Q 3594 2263 3566 2113 
z
" transform="scale(0.015625)"/>
      </defs>
      <use xlink:href="#DejaVuSans-Oblique-79" transform="translate(0 0.125)"/>
      <use xlink:href="#DejaVuSans-28" transform="translate(59.179688 0.125)"/>
      <use xlink:href="#DejaVuSans-Oblique-78" transform="translate(98.193359 0.125)"/>
      <use xlink:href="#DejaVuSans-29" transform="translate(157.373047 0.125)"/>
      <use xlink:href="#DejaVuSans-2212" transform="translate(215.869141 0.125)"/>
      <use xlink:href="#DejaVuSans-Oblique-57" transform="translate(319.140625 0.125)"/>
      <use xlink:href="#DejaVuSans-Oblique-6e" transform="translate(418.017578 -16.28125) scale(0.7)"/>
      <use xlink:href="#DejaVuSans-28" transform="translate(465.117188 0.125)"/>
      <use xlink:href="#DejaVuSans-Oblique-78" transform="translate(504.130859 0.125)"/>
      <use xlink:href="#DejaVuSans-29" transform="translate(563.310547 0.125)"/>
     </g>
    </g>
   </g>
  </g>
 </g>
 <defs>
  <clipPath id="p2cd4131178">
   <rect x="90" y="51.84" width="558" height="332.64"/>
  </clipPath>
 </defs>
</svg>
