<?xml version="1.0" encoding="utf-8" standalone="no"?>
<!DOCTYPE svg PUBLIC "-//W3C//DTD SVG 1.1//EN"
  "http://www.w3.org/Graphics/SVG/1.1/DTD/svg11.dtd">
<svg xmlns:xlink="http://www.w3.org/1999/xlink" width="864pt" height="576pt" viewBox="0 0 864 576" xmlns="http://www.w3.org/2000/svg" version="1.1">
 <metadata>
  <rdf:RDF xmlns:dc="http://purl.org/dc/elements/1.1/" xmlns:cc="http://creativecommons.org/ns#" xmlns:rdf="http://www.w3.org/1999/02/22-rdf-syntax-ns#">
   <cc:Work>
    <dc:type rdf:resource="http://purl.org/dc/dcmitype/StillImage"/>
    <dc:date>2024-11-21T23:38:40.057489</dc:date>
    <dc:format>image/svg+xml</dc:format>
    <dc:creator>
     <cc:Agent>
      <dc:title>Matplotlib v3.9.0, https://matplotlib.org/</dc:title>
     </cc:Agent>
    </dc:creator>
   </cc:Work>
  </rdf:RDF>
 </metadata>
 <defs>
  <style type="text/css">*{stroke-linejoin: round; stroke-linecap: butt}</style>
 </defs>
 <g id="figure_1">
  <g id="patch_1">
   <path d="M 0 576 
L 864 576 
L 864 0 
L 0 0 
z
" style="fill: #ffffff"/>
  </g>
  <g id="axes_1">
   <g id="patch_2">
    <path d="M 108 512.64 
L 777.6 512.64 
L 777.6 69.12 
L 108 69.12 
z
" style="fill: #ffffff"/>
   </g>
   <g id="matplotlib.axis_1">
    <g id="xtick_1">
     <g id="line2d_1">
      <path d="M 194.282902 512.64 
L 194.282902 69.12 
" clip-path="url(#p0616b678cf)" style="fill: none; stroke-dasharray: 2.59,1.12; stroke-dashoffset: 0; stroke: #b0b0b0; stroke-opacity: 0.7; stroke-width: 0.7"/>
     </g>
     <g id="line2d_2">
      <defs>
       <path id="m92cf038273" d="M 0 0 
L 0 3.5 
" style="stroke: #000000; stroke-width: 0.8"/>
      </defs>
      <g>
       <use xlink:href="#m92cf038273" x="194.282902" y="512.64" style="stroke: #000000; stroke-width: 0.8"/>
      </g>
     </g>
     <g id="text_1">
      <!-- 20 -->
      <g transform="translate(187.920402 527.238438) scale(0.1 -0.1)">
       <defs>
        <path id="DejaVuSans-32" d="M 1228 531 
L 3431 531 
L 3431 0 
L 469 0 
L 469 531 
Q 828 903 1448 1529 
Q 2069 2156 2228 2338 
Q 2531 2678 2651 2914 
Q 2772 3150 2772 3378 
Q 2772 3750 2511 3984 
Q 2250 4219 1831 4219 
Q 1534 4219 1204 4116 
Q 875 4013 500 3803 
L 500 4441 
Q 881 4594 1212 4672 
Q 1544 4750 1819 4750 
Q 2544 4750 2975 4387 
Q 3406 4025 3406 3419 
Q 3406 3131 3298 2873 
Q 3191 2616 2906 2266 
Q 2828 2175 2409 1742 
Q 1991 1309 1228 531 
z
" transform="scale(0.015625)"/>
        <path id="DejaVuSans-30" d="M 2034 4250 
Q 1547 4250 1301 3770 
Q 1056 3291 1056 2328 
Q 1056 1369 1301 889 
Q 1547 409 2034 409 
Q 2525 409 2770 889 
Q 3016 1369 3016 2328 
Q 3016 3291 2770 3770 
Q 2525 4250 2034 4250 
z
M 2034 4750 
Q 2819 4750 3233 4129 
Q 3647 3509 3647 2328 
Q 3647 1150 3233 529 
Q 2819 -91 2034 -91 
Q 1250 -91 836 529 
Q 422 1150 422 2328 
Q 422 3509 836 4129 
Q 1250 4750 2034 4750 
z
" transform="scale(0.015625)"/>
       </defs>
       <use xlink:href="#DejaVuSans-32"/>
       <use xlink:href="#DejaVuSans-30" x="63.623047"/>
      </g>
     </g>
    </g>
    <g id="xtick_2">
     <g id="line2d_3">
      <path d="M 305.97598 512.64 
L 305.97598 69.12 
" clip-path="url(#p0616b678cf)" style="fill: none; stroke-dasharray: 2.59,1.12; stroke-dashoffset: 0; stroke: #b0b0b0; stroke-opacity: 0.7; stroke-width: 0.7"/>
     </g>
     <g id="line2d_4">
      <g>
       <use xlink:href="#m92cf038273" x="305.97598" y="512.64" style="stroke: #000000; stroke-width: 0.8"/>
      </g>
     </g>
     <g id="text_2">
      <!-- 40 -->
      <g transform="translate(299.61348 527.238438) scale(0.1 -0.1)">
       <defs>
        <path id="DejaVuSans-34" d="M 2419 4116 
L 825 1625 
L 2419 1625 
L 2419 4116 
z
M 2253 4666 
L 3047 4666 
L 3047 1625 
L 3713 1625 
L 3713 1100 
L 3047 1100 
L 3047 0 
L 2419 0 
L 2419 1100 
L 313 1100 
L 313 1709 
L 2253 4666 
z
" transform="scale(0.015625)"/>
       </defs>
       <use xlink:href="#DejaVuSans-34"/>
       <use xlink:href="#DejaVuSans-30" x="63.623047"/>
      </g>
     </g>
    </g>
    <g id="xtick_3">
     <g id="line2d_5">
      <path d="M 417.669058 512.64 
L 417.669058 69.12 
" clip-path="url(#p0616b678cf)" style="fill: none; stroke-dasharray: 2.59,1.12; stroke-dashoffset: 0; stroke: #b0b0b0; stroke-opacity: 0.7; stroke-width: 0.7"/>
     </g>
     <g id="line2d_6">
      <g>
       <use xlink:href="#m92cf038273" x="417.669058" y="512.64" style="stroke: #000000; stroke-width: 0.8"/>
      </g>
     </g>
     <g id="text_3">
      <!-- 60 -->
      <g transform="translate(411.306558 527.238438) scale(0.1 -0.1)">
       <defs>
        <path id="DejaVuSans-36" d="M 2113 2584 
Q 1688 2584 1439 2293 
Q 1191 2003 1191 1497 
Q 1191 994 1439 701 
Q 1688 409 2113 409 
Q 2538 409 2786 701 
Q 3034 994 3034 1497 
Q 3034 2003 2786 2293 
Q 2538 2584 2113 2584 
z
M 3366 4563 
L 3366 3988 
Q 3128 4100 2886 4159 
Q 2644 4219 2406 4219 
Q 1781 4219 1451 3797 
Q 1122 3375 1075 2522 
Q 1259 2794 1537 2939 
Q 1816 3084 2150 3084 
Q 2853 3084 3261 2657 
Q 3669 2231 3669 1497 
Q 3669 778 3244 343 
Q 2819 -91 2113 -91 
Q 1303 -91 875 529 
Q 447 1150 447 2328 
Q 447 3434 972 4092 
Q 1497 4750 2381 4750 
Q 2619 4750 2861 4703 
Q 3103 4656 3366 4563 
z
" transform="scale(0.015625)"/>
       </defs>
       <use xlink:href="#DejaVuSans-36"/>
       <use xlink:href="#DejaVuSans-30" x="63.623047"/>
      </g>
     </g>
    </g>
    <g id="xtick_4">
     <g id="line2d_7">
      <path d="M 529.362135 512.64 
L 529.362135 69.12 
" clip-path="url(#p0616b678cf)" style="fill: none; stroke-dasharray: 2.59,1.12; stroke-dashoffset: 0; stroke: #b0b0b0; stroke-opacity: 0.7; stroke-width: 0.7"/>
     </g>
     <g id="line2d_8">
      <g>
       <use xlink:href="#m92cf038273" x="529.362135" y="512.64" style="stroke: #000000; stroke-width: 0.8"/>
      </g>
     </g>
     <g id="text_4">
      <!-- 80 -->
      <g transform="translate(522.999635 527.238438) scale(0.1 -0.1)">
       <defs>
        <path id="DejaVuSans-38" d="M 2034 2216 
Q 1584 2216 1326 1975 
Q 1069 1734 1069 1313 
Q 1069 891 1326 650 
Q 1584 409 2034 409 
Q 2484 409 2743 651 
Q 3003 894 3003 1313 
Q 3003 1734 2745 1975 
Q 2488 2216 2034 2216 
z
M 1403 2484 
Q 997 2584 770 2862 
Q 544 3141 544 3541 
Q 544 4100 942 4425 
Q 1341 4750 2034 4750 
Q 2731 4750 3128 4425 
Q 3525 4100 3525 3541 
Q 3525 3141 3298 2862 
Q 3072 2584 2669 2484 
Q 3125 2378 3379 2068 
Q 3634 1759 3634 1313 
Q 3634 634 3220 271 
Q 2806 -91 2034 -91 
Q 1263 -91 848 271 
Q 434 634 434 1313 
Q 434 1759 690 2068 
Q 947 2378 1403 2484 
z
M 1172 3481 
Q 1172 3119 1398 2916 
Q 1625 2713 2034 2713 
Q 2441 2713 2670 2916 
Q 2900 3119 2900 3481 
Q 2900 3844 2670 4047 
Q 2441 4250 2034 4250 
Q 1625 4250 1398 4047 
Q 1172 3844 1172 3481 
z
" transform="scale(0.015625)"/>
       </defs>
       <use xlink:href="#DejaVuSans-38"/>
       <use xlink:href="#DejaVuSans-30" x="63.623047"/>
      </g>
     </g>
    </g>
    <g id="xtick_5">
     <g id="line2d_9">
      <path d="M 641.055213 512.64 
L 641.055213 69.12 
" clip-path="url(#p0616b678cf)" style="fill: none; stroke-dasharray: 2.59,1.12; stroke-dashoffset: 0; stroke: #b0b0b0; stroke-opacity: 0.7; stroke-width: 0.7"/>
     </g>
     <g id="line2d_10">
      <g>
       <use xlink:href="#m92cf038273" x="641.055213" y="512.64" style="stroke: #000000; stroke-width: 0.8"/>
      </g>
     </g>
     <g id="text_5">
      <!-- 100 -->
      <g transform="translate(631.511463 527.238438) scale(0.1 -0.1)">
       <defs>
        <path id="DejaVuSans-31" d="M 794 531 
L 1825 531 
L 1825 4091 
L 703 3866 
L 703 4441 
L 1819 4666 
L 2450 4666 
L 2450 531 
L 3481 531 
L 3481 0 
L 794 0 
L 794 531 
z
" transform="scale(0.015625)"/>
       </defs>
       <use xlink:href="#DejaVuSans-31"/>
       <use xlink:href="#DejaVuSans-30" x="63.623047"/>
       <use xlink:href="#DejaVuSans-30" x="127.246094"/>
      </g>
     </g>
    </g>
    <g id="xtick_6">
     <g id="line2d_11">
      <path d="M 752.74829 512.64 
L 752.74829 69.12 
" clip-path="url(#p0616b678cf)" style="fill: none; stroke-dasharray: 2.59,1.12; stroke-dashoffset: 0; stroke: #b0b0b0; stroke-opacity: 0.7; stroke-width: 0.7"/>
     </g>
     <g id="line2d_12">
      <g>
       <use xlink:href="#m92cf038273" x="752.74829" y="512.64" style="stroke: #000000; stroke-width: 0.8"/>
      </g>
     </g>
     <g id="text_6">
      <!-- 120 -->
      <g transform="translate(743.20454 527.238438) scale(0.1 -0.1)">
       <use xlink:href="#DejaVuSans-31"/>
       <use xlink:href="#DejaVuSans-32" x="63.623047"/>
       <use xlink:href="#DejaVuSans-30" x="127.246094"/>
      </g>
     </g>
    </g>
    <g id="text_7">
     <!-- Matrix Size (N) -->
     <g transform="translate(391.242813 543.955938) scale(0.14 -0.14)">
      <defs>
       <path id="DejaVuSans-4d" d="M 628 4666 
L 1569 4666 
L 2759 1491 
L 3956 4666 
L 4897 4666 
L 4897 0 
L 4281 0 
L 4281 4097 
L 3078 897 
L 2444 897 
L 1241 4097 
L 1241 0 
L 628 0 
L 628 4666 
z
" transform="scale(0.015625)"/>
       <path id="DejaVuSans-61" d="M 2194 1759 
Q 1497 1759 1228 1600 
Q 959 1441 959 1056 
Q 959 750 1161 570 
Q 1363 391 1709 391 
Q 2188 391 2477 730 
Q 2766 1069 2766 1631 
L 2766 1759 
L 2194 1759 
z
M 3341 1997 
L 3341 0 
L 2766 0 
L 2766 531 
Q 2569 213 2275 61 
Q 1981 -91 1556 -91 
Q 1019 -91 701 211 
Q 384 513 384 1019 
Q 384 1609 779 1909 
Q 1175 2209 1959 2209 
L 2766 2209 
L 2766 2266 
Q 2766 2663 2505 2880 
Q 2244 3097 1772 3097 
Q 1472 3097 1187 3025 
Q 903 2953 641 2809 
L 641 3341 
Q 956 3463 1253 3523 
Q 1550 3584 1831 3584 
Q 2591 3584 2966 3190 
Q 3341 2797 3341 1997 
z
" transform="scale(0.015625)"/>
       <path id="DejaVuSans-74" d="M 1172 4494 
L 1172 3500 
L 2356 3500 
L 2356 3053 
L 1172 3053 
L 1172 1153 
Q 1172 725 1289 603 
Q 1406 481 1766 481 
L 2356 481 
L 2356 0 
L 1766 0 
Q 1100 0 847 248 
Q 594 497 594 1153 
L 594 3053 
L 172 3053 
L 172 3500 
L 594 3500 
L 594 4494 
L 1172 4494 
z
" transform="scale(0.015625)"/>
       <path id="DejaVuSans-72" d="M 2631 2963 
Q 2534 3019 2420 3045 
Q 2306 3072 2169 3072 
Q 1681 3072 1420 2755 
Q 1159 2438 1159 1844 
L 1159 0 
L 581 0 
L 581 3500 
L 1159 3500 
L 1159 2956 
Q 1341 3275 1631 3429 
Q 1922 3584 2338 3584 
Q 2397 3584 2469 3576 
Q 2541 3569 2628 3553 
L 2631 2963 
z
" transform="scale(0.015625)"/>
       <path id="DejaVuSans-69" d="M 603 3500 
L 1178 3500 
L 1178 0 
L 603 0 
L 603 3500 
z
M 603 4863 
L 1178 4863 
L 1178 4134 
L 603 4134 
L 603 4863 
z
" transform="scale(0.015625)"/>
       <path id="DejaVuSans-78" d="M 3513 3500 
L 2247 1797 
L 3578 0 
L 2900 0 
L 1881 1375 
L 863 0 
L 184 0 
L 1544 1831 
L 300 3500 
L 978 3500 
L 1906 2253 
L 2834 3500 
L 3513 3500 
z
" transform="scale(0.015625)"/>
       <path id="DejaVuSans-20" transform="scale(0.015625)"/>
       <path id="DejaVuSans-53" d="M 3425 4513 
L 3425 3897 
Q 3066 4069 2747 4153 
Q 2428 4238 2131 4238 
Q 1616 4238 1336 4038 
Q 1056 3838 1056 3469 
Q 1056 3159 1242 3001 
Q 1428 2844 1947 2747 
L 2328 2669 
Q 3034 2534 3370 2195 
Q 3706 1856 3706 1288 
Q 3706 609 3251 259 
Q 2797 -91 1919 -91 
Q 1588 -91 1214 -16 
Q 841 59 441 206 
L 441 856 
Q 825 641 1194 531 
Q 1563 422 1919 422 
Q 2459 422 2753 634 
Q 3047 847 3047 1241 
Q 3047 1584 2836 1778 
Q 2625 1972 2144 2069 
L 1759 2144 
Q 1053 2284 737 2584 
Q 422 2884 422 3419 
Q 422 4038 858 4394 
Q 1294 4750 2059 4750 
Q 2388 4750 2728 4690 
Q 3069 4631 3425 4513 
z
" transform="scale(0.015625)"/>
       <path id="DejaVuSans-7a" d="M 353 3500 
L 3084 3500 
L 3084 2975 
L 922 459 
L 3084 459 
L 3084 0 
L 275 0 
L 275 525 
L 2438 3041 
L 353 3041 
L 353 3500 
z
" transform="scale(0.015625)"/>
       <path id="DejaVuSans-65" d="M 3597 1894 
L 3597 1613 
L 953 1613 
Q 991 1019 1311 708 
Q 1631 397 2203 397 
Q 2534 397 2845 478 
Q 3156 559 3463 722 
L 3463 178 
Q 3153 47 2828 -22 
Q 2503 -91 2169 -91 
Q 1331 -91 842 396 
Q 353 884 353 1716 
Q 353 2575 817 3079 
Q 1281 3584 2069 3584 
Q 2775 3584 3186 3129 
Q 3597 2675 3597 1894 
z
M 3022 2063 
Q 3016 2534 2758 2815 
Q 2500 3097 2075 3097 
Q 1594 3097 1305 2825 
Q 1016 2553 972 2059 
L 3022 2063 
z
" transform="scale(0.015625)"/>
       <path id="DejaVuSans-28" d="M 1984 4856 
Q 1566 4138 1362 3434 
Q 1159 2731 1159 2009 
Q 1159 1288 1364 580 
Q 1569 -128 1984 -844 
L 1484 -844 
Q 1016 -109 783 600 
Q 550 1309 550 2009 
Q 550 2706 781 3412 
Q 1013 4119 1484 4856 
L 1984 4856 
z
" transform="scale(0.015625)"/>
       <path id="DejaVuSans-4e" d="M 628 4666 
L 1478 4666 
L 3547 763 
L 3547 4666 
L 4159 4666 
L 4159 0 
L 3309 0 
L 1241 3903 
L 1241 0 
L 628 0 
L 628 4666 
z
" transform="scale(0.015625)"/>
       <path id="DejaVuSans-29" d="M 513 4856 
L 1013 4856 
Q 1481 4119 1714 3412 
Q 1947 2706 1947 2009 
Q 1947 1309 1714 600 
Q 1481 -109 1013 -844 
L 513 -844 
Q 928 -128 1133 580 
Q 1338 1288 1338 2009 
Q 1338 2731 1133 3434 
Q 928 4138 513 4856 
z
" transform="scale(0.015625)"/>
      </defs>
      <use xlink:href="#DejaVuSans-4d"/>
      <use xlink:href="#DejaVuSans-61" x="86.279297"/>
      <use xlink:href="#DejaVuSans-74" x="147.558594"/>
      <use xlink:href="#DejaVuSans-72" x="186.767578"/>
      <use xlink:href="#DejaVuSans-69" x="227.880859"/>
      <use xlink:href="#DejaVuSans-78" x="255.664062"/>
      <use xlink:href="#DejaVuSans-20" x="314.84375"/>
      <use xlink:href="#DejaVuSans-53" x="346.630859"/>
      <use xlink:href="#DejaVuSans-69" x="410.107422"/>
      <use xlink:href="#DejaVuSans-7a" x="437.890625"/>
      <use xlink:href="#DejaVuSans-65" x="490.380859"/>
      <use xlink:href="#DejaVuSans-20" x="551.904297"/>
      <use xlink:href="#DejaVuSans-28" x="583.691406"/>
      <use xlink:href="#DejaVuSans-4e" x="622.705078"/>
      <use xlink:href="#DejaVuSans-29" x="697.509766"/>
     </g>
    </g>
   </g>
   <g id="matplotlib.axis_2">
    <g id="ytick_1">
     <g id="line2d_13">
      <path d="M 108 493.729754 
L 777.6 493.729754 
" clip-path="url(#p0616b678cf)" style="fill: none; stroke-dasharray: 2.59,1.12; stroke-dashoffset: 0; stroke: #b0b0b0; stroke-opacity: 0.7; stroke-width: 0.7"/>
     </g>
     <g id="line2d_14">
      <defs>
       <path id="md4ae43f7f4" d="M 0 0 
L -3.5 0 
" style="stroke: #000000; stroke-width: 0.8"/>
      </defs>
      <g>
       <use xlink:href="#md4ae43f7f4" x="108" y="493.729754" style="stroke: #000000; stroke-width: 0.8"/>
      </g>
     </g>
     <g id="text_8">
      <!-- 1 -->
      <g transform="translate(94.6375 497.528973) scale(0.1 -0.1)">
       <use xlink:href="#DejaVuSans-31"/>
      </g>
     </g>
    </g>
    <g id="ytick_2">
     <g id="line2d_15">
      <path d="M 108 444.136107 
L 777.6 444.136107 
" clip-path="url(#p0616b678cf)" style="fill: none; stroke-dasharray: 2.59,1.12; stroke-dashoffset: 0; stroke: #b0b0b0; stroke-opacity: 0.7; stroke-width: 0.7"/>
     </g>
     <g id="line2d_16">
      <g>
       <use xlink:href="#md4ae43f7f4" x="108" y="444.136107" style="stroke: #000000; stroke-width: 0.8"/>
      </g>
     </g>
     <g id="text_9">
      <!-- 2 -->
      <g transform="translate(94.6375 447.935326) scale(0.1 -0.1)">
       <use xlink:href="#DejaVuSans-32"/>
      </g>
     </g>
    </g>
    <g id="ytick_3">
     <g id="line2d_17">
      <path d="M 108 394.54246 
L 777.6 394.54246 
" clip-path="url(#p0616b678cf)" style="fill: none; stroke-dasharray: 2.59,1.12; stroke-dashoffset: 0; stroke: #b0b0b0; stroke-opacity: 0.7; stroke-width: 0.7"/>
     </g>
     <g id="line2d_18">
      <g>
       <use xlink:href="#md4ae43f7f4" x="108" y="394.54246" style="stroke: #000000; stroke-width: 0.8"/>
      </g>
     </g>
     <g id="text_10">
      <!-- 3 -->
      <g transform="translate(94.6375 398.341679) scale(0.1 -0.1)">
       <defs>
        <path id="DejaVuSans-33" d="M 2597 2516 
Q 3050 2419 3304 2112 
Q 3559 1806 3559 1356 
Q 3559 666 3084 287 
Q 2609 -91 1734 -91 
Q 1441 -91 1130 -33 
Q 819 25 488 141 
L 488 750 
Q 750 597 1062 519 
Q 1375 441 1716 441 
Q 2309 441 2620 675 
Q 2931 909 2931 1356 
Q 2931 1769 2642 2001 
Q 2353 2234 1838 2234 
L 1294 2234 
L 1294 2753 
L 1863 2753 
Q 2328 2753 2575 2939 
Q 2822 3125 2822 3475 
Q 2822 3834 2567 4026 
Q 2313 4219 1838 4219 
Q 1578 4219 1281 4162 
Q 984 4106 628 3988 
L 628 4550 
Q 988 4650 1302 4700 
Q 1616 4750 1894 4750 
Q 2613 4750 3031 4423 
Q 3450 4097 3450 3541 
Q 3450 3153 3228 2886 
Q 3006 2619 2597 2516 
z
" transform="scale(0.015625)"/>
       </defs>
       <use xlink:href="#DejaVuSans-33"/>
      </g>
     </g>
    </g>
    <g id="ytick_4">
     <g id="line2d_19">
      <path d="M 108 344.948813 
L 777.6 344.948813 
" clip-path="url(#p0616b678cf)" style="fill: none; stroke-dasharray: 2.59,1.12; stroke-dashoffset: 0; stroke: #b0b0b0; stroke-opacity: 0.7; stroke-width: 0.7"/>
     </g>
     <g id="line2d_20">
      <g>
       <use xlink:href="#md4ae43f7f4" x="108" y="344.948813" style="stroke: #000000; stroke-width: 0.8"/>
      </g>
     </g>
     <g id="text_11">
      <!-- 4 -->
      <g transform="translate(94.6375 348.748031) scale(0.1 -0.1)">
       <use xlink:href="#DejaVuSans-34"/>
      </g>
     </g>
    </g>
    <g id="ytick_5">
     <g id="line2d_21">
      <path d="M 108 295.355165 
L 777.6 295.355165 
" clip-path="url(#p0616b678cf)" style="fill: none; stroke-dasharray: 2.59,1.12; stroke-dashoffset: 0; stroke: #b0b0b0; stroke-opacity: 0.7; stroke-width: 0.7"/>
     </g>
     <g id="line2d_22">
      <g>
       <use xlink:href="#md4ae43f7f4" x="108" y="295.355165" style="stroke: #000000; stroke-width: 0.8"/>
      </g>
     </g>
     <g id="text_12">
      <!-- 5 -->
      <g transform="translate(94.6375 299.154384) scale(0.1 -0.1)">
       <defs>
        <path id="DejaVuSans-35" d="M 691 4666 
L 3169 4666 
L 3169 4134 
L 1269 4134 
L 1269 2991 
Q 1406 3038 1543 3061 
Q 1681 3084 1819 3084 
Q 2600 3084 3056 2656 
Q 3513 2228 3513 1497 
Q 3513 744 3044 326 
Q 2575 -91 1722 -91 
Q 1428 -91 1123 -41 
Q 819 9 494 109 
L 494 744 
Q 775 591 1075 516 
Q 1375 441 1709 441 
Q 2250 441 2565 725 
Q 2881 1009 2881 1497 
Q 2881 1984 2565 2268 
Q 2250 2553 1709 2553 
Q 1456 2553 1204 2497 
Q 953 2441 691 2322 
L 691 4666 
z
" transform="scale(0.015625)"/>
       </defs>
       <use xlink:href="#DejaVuSans-35"/>
      </g>
     </g>
    </g>
    <g id="ytick_6">
     <g id="line2d_23">
      <path d="M 108 245.761518 
L 777.6 245.761518 
" clip-path="url(#p0616b678cf)" style="fill: none; stroke-dasharray: 2.59,1.12; stroke-dashoffset: 0; stroke: #b0b0b0; stroke-opacity: 0.7; stroke-width: 0.7"/>
     </g>
     <g id="line2d_24">
      <g>
       <use xlink:href="#md4ae43f7f4" x="108" y="245.761518" style="stroke: #000000; stroke-width: 0.8"/>
      </g>
     </g>
     <g id="text_13">
      <!-- 6 -->
      <g transform="translate(94.6375 249.560737) scale(0.1 -0.1)">
       <use xlink:href="#DejaVuSans-36"/>
      </g>
     </g>
    </g>
    <g id="ytick_7">
     <g id="line2d_25">
      <path d="M 108 196.167871 
L 777.6 196.167871 
" clip-path="url(#p0616b678cf)" style="fill: none; stroke-dasharray: 2.59,1.12; stroke-dashoffset: 0; stroke: #b0b0b0; stroke-opacity: 0.7; stroke-width: 0.7"/>
     </g>
     <g id="line2d_26">
      <g>
       <use xlink:href="#md4ae43f7f4" x="108" y="196.167871" style="stroke: #000000; stroke-width: 0.8"/>
      </g>
     </g>
     <g id="text_14">
      <!-- 7 -->
      <g transform="translate(94.6375 199.967089) scale(0.1 -0.1)">
       <defs>
        <path id="DejaVuSans-37" d="M 525 4666 
L 3525 4666 
L 3525 4397 
L 1831 0 
L 1172 0 
L 2766 4134 
L 525 4134 
L 525 4666 
z
" transform="scale(0.015625)"/>
       </defs>
       <use xlink:href="#DejaVuSans-37"/>
      </g>
     </g>
    </g>
    <g id="ytick_8">
     <g id="line2d_27">
      <path d="M 108 146.574223 
L 777.6 146.574223 
" clip-path="url(#p0616b678cf)" style="fill: none; stroke-dasharray: 2.59,1.12; stroke-dashoffset: 0; stroke: #b0b0b0; stroke-opacity: 0.7; stroke-width: 0.7"/>
     </g>
     <g id="line2d_28">
      <g>
       <use xlink:href="#md4ae43f7f4" x="108" y="146.574223" style="stroke: #000000; stroke-width: 0.8"/>
      </g>
     </g>
     <g id="text_15">
      <!-- 8 -->
      <g transform="translate(94.6375 150.373442) scale(0.1 -0.1)">
       <use xlink:href="#DejaVuSans-38"/>
      </g>
     </g>
    </g>
    <g id="ytick_9">
     <g id="line2d_29">
      <path d="M 108 96.980576 
L 777.6 96.980576 
" clip-path="url(#p0616b678cf)" style="fill: none; stroke-dasharray: 2.59,1.12; stroke-dashoffset: 0; stroke: #b0b0b0; stroke-opacity: 0.7; stroke-width: 0.7"/>
     </g>
     <g id="line2d_30">
      <g>
       <use xlink:href="#md4ae43f7f4" x="108" y="96.980576" style="stroke: #000000; stroke-width: 0.8"/>
      </g>
     </g>
     <g id="text_16">
      <!-- 9 -->
      <g transform="translate(94.6375 100.779795) scale(0.1 -0.1)">
       <defs>
        <path id="DejaVuSans-39" d="M 703 97 
L 703 672 
Q 941 559 1184 500 
Q 1428 441 1663 441 
Q 2288 441 2617 861 
Q 2947 1281 2994 2138 
Q 2813 1869 2534 1725 
Q 2256 1581 1919 1581 
Q 1219 1581 811 2004 
Q 403 2428 403 3163 
Q 403 3881 828 4315 
Q 1253 4750 1959 4750 
Q 2769 4750 3195 4129 
Q 3622 3509 3622 2328 
Q 3622 1225 3098 567 
Q 2575 -91 1691 -91 
Q 1453 -91 1209 -44 
Q 966 3 703 97 
z
M 1959 2075 
Q 2384 2075 2632 2365 
Q 2881 2656 2881 3163 
Q 2881 3666 2632 3958 
Q 2384 4250 1959 4250 
Q 1534 4250 1286 3958 
Q 1038 3666 1038 3163 
Q 1038 2656 1286 2365 
Q 1534 2075 1959 2075 
z
" transform="scale(0.015625)"/>
       </defs>
       <use xlink:href="#DejaVuSans-39"/>
      </g>
     </g>
    </g>
    <g id="text_17">
     <!-- Execution Time [s] -->
     <g transform="translate(87.725938 355.913281) rotate(-90) scale(0.14 -0.14)">
      <defs>
       <path id="DejaVuSans-45" d="M 628 4666 
L 3578 4666 
L 3578 4134 
L 1259 4134 
L 1259 2753 
L 3481 2753 
L 3481 2222 
L 1259 2222 
L 1259 531 
L 3634 531 
L 3634 0 
L 628 0 
L 628 4666 
z
" transform="scale(0.015625)"/>
       <path id="DejaVuSans-63" d="M 3122 3366 
L 3122 2828 
Q 2878 2963 2633 3030 
Q 2388 3097 2138 3097 
Q 1578 3097 1268 2742 
Q 959 2388 959 1747 
Q 959 1106 1268 751 
Q 1578 397 2138 397 
Q 2388 397 2633 464 
Q 2878 531 3122 666 
L 3122 134 
Q 2881 22 2623 -34 
Q 2366 -91 2075 -91 
Q 1284 -91 818 406 
Q 353 903 353 1747 
Q 353 2603 823 3093 
Q 1294 3584 2113 3584 
Q 2378 3584 2631 3529 
Q 2884 3475 3122 3366 
z
" transform="scale(0.015625)"/>
       <path id="DejaVuSans-75" d="M 544 1381 
L 544 3500 
L 1119 3500 
L 1119 1403 
Q 1119 906 1312 657 
Q 1506 409 1894 409 
Q 2359 409 2629 706 
Q 2900 1003 2900 1516 
L 2900 3500 
L 3475 3500 
L 3475 0 
L 2900 0 
L 2900 538 
Q 2691 219 2414 64 
Q 2138 -91 1772 -91 
Q 1169 -91 856 284 
Q 544 659 544 1381 
z
M 1991 3584 
L 1991 3584 
z
" transform="scale(0.015625)"/>
       <path id="DejaVuSans-6f" d="M 1959 3097 
Q 1497 3097 1228 2736 
Q 959 2375 959 1747 
Q 959 1119 1226 758 
Q 1494 397 1959 397 
Q 2419 397 2687 759 
Q 2956 1122 2956 1747 
Q 2956 2369 2687 2733 
Q 2419 3097 1959 3097 
z
M 1959 3584 
Q 2709 3584 3137 3096 
Q 3566 2609 3566 1747 
Q 3566 888 3137 398 
Q 2709 -91 1959 -91 
Q 1206 -91 779 398 
Q 353 888 353 1747 
Q 353 2609 779 3096 
Q 1206 3584 1959 3584 
z
" transform="scale(0.015625)"/>
       <path id="DejaVuSans-6e" d="M 3513 2113 
L 3513 0 
L 2938 0 
L 2938 2094 
Q 2938 2591 2744 2837 
Q 2550 3084 2163 3084 
Q 1697 3084 1428 2787 
Q 1159 2491 1159 1978 
L 1159 0 
L 581 0 
L 581 3500 
L 1159 3500 
L 1159 2956 
Q 1366 3272 1645 3428 
Q 1925 3584 2291 3584 
Q 2894 3584 3203 3211 
Q 3513 2838 3513 2113 
z
" transform="scale(0.015625)"/>
       <path id="DejaVuSans-54" d="M -19 4666 
L 3928 4666 
L 3928 4134 
L 2272 4134 
L 2272 0 
L 1638 0 
L 1638 4134 
L -19 4134 
L -19 4666 
z
" transform="scale(0.015625)"/>
       <path id="DejaVuSans-6d" d="M 3328 2828 
Q 3544 3216 3844 3400 
Q 4144 3584 4550 3584 
Q 5097 3584 5394 3201 
Q 5691 2819 5691 2113 
L 5691 0 
L 5113 0 
L 5113 2094 
Q 5113 2597 4934 2840 
Q 4756 3084 4391 3084 
Q 3944 3084 3684 2787 
Q 3425 2491 3425 1978 
L 3425 0 
L 2847 0 
L 2847 2094 
Q 2847 2600 2669 2842 
Q 2491 3084 2119 3084 
Q 1678 3084 1418 2786 
Q 1159 2488 1159 1978 
L 1159 0 
L 581 0 
L 581 3500 
L 1159 3500 
L 1159 2956 
Q 1356 3278 1631 3431 
Q 1906 3584 2284 3584 
Q 2666 3584 2933 3390 
Q 3200 3197 3328 2828 
z
" transform="scale(0.015625)"/>
       <path id="DejaVuSans-5b" d="M 550 4863 
L 1875 4863 
L 1875 4416 
L 1125 4416 
L 1125 -397 
L 1875 -397 
L 1875 -844 
L 550 -844 
L 550 4863 
z
" transform="scale(0.015625)"/>
       <path id="DejaVuSans-73" d="M 2834 3397 
L 2834 2853 
Q 2591 2978 2328 3040 
Q 2066 3103 1784 3103 
Q 1356 3103 1142 2972 
Q 928 2841 928 2578 
Q 928 2378 1081 2264 
Q 1234 2150 1697 2047 
L 1894 2003 
Q 2506 1872 2764 1633 
Q 3022 1394 3022 966 
Q 3022 478 2636 193 
Q 2250 -91 1575 -91 
Q 1294 -91 989 -36 
Q 684 19 347 128 
L 347 722 
Q 666 556 975 473 
Q 1284 391 1588 391 
Q 1994 391 2212 530 
Q 2431 669 2431 922 
Q 2431 1156 2273 1281 
Q 2116 1406 1581 1522 
L 1381 1569 
Q 847 1681 609 1914 
Q 372 2147 372 2553 
Q 372 3047 722 3315 
Q 1072 3584 1716 3584 
Q 2034 3584 2315 3537 
Q 2597 3491 2834 3397 
z
" transform="scale(0.015625)"/>
       <path id="DejaVuSans-5d" d="M 1947 4863 
L 1947 -844 
L 622 -844 
L 622 -397 
L 1369 -397 
L 1369 4416 
L 622 4416 
L 622 4863 
L 1947 4863 
z
" transform="scale(0.015625)"/>
      </defs>
      <use xlink:href="#DejaVuSans-45"/>
      <use xlink:href="#DejaVuSans-78" x="63.183594"/>
      <use xlink:href="#DejaVuSans-65" x="119.238281"/>
      <use xlink:href="#DejaVuSans-63" x="180.761719"/>
      <use xlink:href="#DejaVuSans-75" x="235.742188"/>
      <use xlink:href="#DejaVuSans-74" x="299.121094"/>
      <use xlink:href="#DejaVuSans-69" x="338.330078"/>
      <use xlink:href="#DejaVuSans-6f" x="366.113281"/>
      <use xlink:href="#DejaVuSans-6e" x="427.294922"/>
      <use xlink:href="#DejaVuSans-20" x="490.673828"/>
      <use xlink:href="#DejaVuSans-54" x="522.460938"/>
      <use xlink:href="#DejaVuSans-69" x="580.419922"/>
      <use xlink:href="#DejaVuSans-6d" x="608.203125"/>
      <use xlink:href="#DejaVuSans-65" x="705.615234"/>
      <use xlink:href="#DejaVuSans-20" x="767.138672"/>
      <use xlink:href="#DejaVuSans-5b" x="798.925781"/>
      <use xlink:href="#DejaVuSans-73" x="837.939453"/>
      <use xlink:href="#DejaVuSans-5d" x="890.039062"/>
     </g>
    </g>
    <g id="text_18">
     <!-- 1e−5 -->
     <g transform="translate(108 66.12) scale(0.1 -0.1)">
      <defs>
       <path id="DejaVuSans-2212" d="M 678 2272 
L 4684 2272 
L 4684 1741 
L 678 1741 
L 678 2272 
z
" transform="scale(0.015625)"/>
      </defs>
      <use xlink:href="#DejaVuSans-31"/>
      <use xlink:href="#DejaVuSans-65" x="63.623047"/>
      <use xlink:href="#DejaVuSans-2212" x="125.146484"/>
      <use xlink:href="#DejaVuSans-35" x="208.935547"/>
     </g>
    </g>
   </g>
   <g id="line2d_31">
    <path d="M 138.436364 380.151554 
L 144.021018 453.460645 
L 149.605671 461.737478 
L 155.190325 464.102287 
L 160.774979 462.919883 
L 166.359633 458.190264 
L 171.944287 453.460645 
L 177.528941 451.095836 
L 183.113595 449.913431 
L 188.698249 445.183812 
L 194.282902 446.366217 
L 199.867556 442.819003 
L 205.45221 441.636598 
L 211.036864 433.359765 
L 216.621518 434.54217 
L 222.206172 430.994956 
L 227.790826 425.082933 
L 233.37548 428.630147 
L 238.960133 421.535718 
L 244.544787 417.988504 
L 250.129441 416.8061 
L 255.714095 414.44129 
L 261.298749 412.076481 
L 266.883403 409.711672 
L 272.468057 394.340411 
L 278.052711 399.070029 
L 283.637364 399.070029 
L 289.222018 393.158006 
L 294.806672 394.340411 
L 300.391326 386.063578 
L 305.97598 386.063578 
L 311.560634 381.333959 
L 317.145288 377.786745 
L 322.729942 375.421935 
L 328.314595 370.692317 
L 333.899249 371.874721 
L 339.483903 369.509912 
L 345.068557 364.780293 
L 350.653211 300.93044 
L 356.237865 318.66651 
L 361.822519 354.138651 
L 367.407173 335.220176 
L 372.991827 350.591437 
L 378.57648 344.679413 
L 384.161134 344.679413 
L 389.745788 339.949795 
L 395.330442 293.836012 
L 400.915096 227.621349 
L 406.49975 325.760938 
L 412.084404 310.389677 
L 417.669058 324.578534 
L 423.253711 322.213724 
L 428.838365 313.936891 
L 434.423019 313.936891 
L 440.007673 274.917537 
L 445.592327 267.823109 
L 451.176981 305.660059 
L 456.761635 310.389677 
L 462.346289 304.477654 
L 467.930942 302.112845 
L 473.515596 298.56563 
L 479.10025 297.383226 
L 484.684904 246.539824 
L 490.269558 260.72868 
L 495.854212 285.559179 
L 501.438866 284.376774 
L 507.02352 283.19437 
L 512.608173 277.282346 
L 518.192827 274.917537 
L 523.777481 273.735132 
L 529.362135 219.344516 
L 534.946789 241.810205 
L 540.531443 252.451848 
L 546.116097 264.275894 
L 551.700751 260.72868 
L 557.285405 257.181466 
L 562.870058 254.816657 
L 568.454712 246.539824 
L 574.039366 216.979707 
L 579.62402 205.15566 
L 585.208674 240.627801 
L 590.793328 138.940997 
L 596.377982 214.614897 
L 601.962636 227.621349 
L 607.547289 225.25654 
L 613.131943 224.074135 
L 618.716597 175.595543 
L 624.301251 183.872375 
L 629.885905 89.28 
L 635.470559 208.702874 
L 641.055213 207.520469 
L 646.639867 205.15566 
L 652.22452 200.426041 
L 657.809174 195.696422 
L 663.393828 150.765044 
L 668.978482 147.21783 
L 674.563136 185.05478 
L 680.14779 185.05478 
L 685.732444 176.777947 
L 691.317098 180.325161 
L 696.901751 173.230733 
L 702.486405 174.413138 
L 708.071059 130.664164 
L 713.655713 122.387331 
L 719.240367 160.224282 
L 724.825021 161.406686 
L 730.409675 156.677067 
L 735.994329 157.859472 
L 741.578982 153.129853 
L 747.163636 149.582639 
" clip-path="url(#p0616b678cf)" style="fill: none; stroke: #0000ff; stroke-width: 1.5; stroke-linecap: square"/>
    <defs>
     <path id="m532418ecfa" d="M 0 3 
C 0.795609 3 1.55874 2.683901 2.12132 2.12132 
C 2.683901 1.55874 3 0.795609 3 0 
C 3 -0.795609 2.683901 -1.55874 2.12132 -2.12132 
C 1.55874 -2.683901 0.795609 -3 0 -3 
C -0.795609 -3 -1.55874 -2.683901 -2.12132 -2.12132 
C -2.683901 -1.55874 -3 -0.795609 -3 0 
C -3 0.795609 -2.683901 1.55874 -2.12132 2.12132 
C -1.55874 2.683901 -0.795609 3 0 3 
z
" style="stroke: #0000ff"/>
    </defs>
    <g clip-path="url(#p0616b678cf)">
     <use xlink:href="#m532418ecfa" x="138.436364" y="380.151554" style="fill: #0000ff; stroke: #0000ff"/>
     <use xlink:href="#m532418ecfa" x="144.021018" y="453.460645" style="fill: #0000ff; stroke: #0000ff"/>
     <use xlink:href="#m532418ecfa" x="149.605671" y="461.737478" style="fill: #0000ff; stroke: #0000ff"/>
     <use xlink:href="#m532418ecfa" x="155.190325" y="464.102287" style="fill: #0000ff; stroke: #0000ff"/>
     <use xlink:href="#m532418ecfa" x="160.774979" y="462.919883" style="fill: #0000ff; stroke: #0000ff"/>
     <use xlink:href="#m532418ecfa" x="166.359633" y="458.190264" style="fill: #0000ff; stroke: #0000ff"/>
     <use xlink:href="#m532418ecfa" x="171.944287" y="453.460645" style="fill: #0000ff; stroke: #0000ff"/>
     <use xlink:href="#m532418ecfa" x="177.528941" y="451.095836" style="fill: #0000ff; stroke: #0000ff"/>
     <use xlink:href="#m532418ecfa" x="183.113595" y="449.913431" style="fill: #0000ff; stroke: #0000ff"/>
     <use xlink:href="#m532418ecfa" x="188.698249" y="445.183812" style="fill: #0000ff; stroke: #0000ff"/>
     <use xlink:href="#m532418ecfa" x="194.282902" y="446.366217" style="fill: #0000ff; stroke: #0000ff"/>
     <use xlink:href="#m532418ecfa" x="199.867556" y="442.819003" style="fill: #0000ff; stroke: #0000ff"/>
     <use xlink:href="#m532418ecfa" x="205.45221" y="441.636598" style="fill: #0000ff; stroke: #0000ff"/>
     <use xlink:href="#m532418ecfa" x="211.036864" y="433.359765" style="fill: #0000ff; stroke: #0000ff"/>
     <use xlink:href="#m532418ecfa" x="216.621518" y="434.54217" style="fill: #0000ff; stroke: #0000ff"/>
     <use xlink:href="#m532418ecfa" x="222.206172" y="430.994956" style="fill: #0000ff; stroke: #0000ff"/>
     <use xlink:href="#m532418ecfa" x="227.790826" y="425.082933" style="fill: #0000ff; stroke: #0000ff"/>
     <use xlink:href="#m532418ecfa" x="233.37548" y="428.630147" style="fill: #0000ff; stroke: #0000ff"/>
     <use xlink:href="#m532418ecfa" x="238.960133" y="421.535718" style="fill: #0000ff; stroke: #0000ff"/>
     <use xlink:href="#m532418ecfa" x="244.544787" y="417.988504" style="fill: #0000ff; stroke: #0000ff"/>
     <use xlink:href="#m532418ecfa" x="250.129441" y="416.8061" style="fill: #0000ff; stroke: #0000ff"/>
     <use xlink:href="#m532418ecfa" x="255.714095" y="414.44129" style="fill: #0000ff; stroke: #0000ff"/>
     <use xlink:href="#m532418ecfa" x="261.298749" y="412.076481" style="fill: #0000ff; stroke: #0000ff"/>
     <use xlink:href="#m532418ecfa" x="266.883403" y="409.711672" style="fill: #0000ff; stroke: #0000ff"/>
     <use xlink:href="#m532418ecfa" x="272.468057" y="394.340411" style="fill: #0000ff; stroke: #0000ff"/>
     <use xlink:href="#m532418ecfa" x="278.052711" y="399.070029" style="fill: #0000ff; stroke: #0000ff"/>
     <use xlink:href="#m532418ecfa" x="283.637364" y="399.070029" style="fill: #0000ff; stroke: #0000ff"/>
     <use xlink:href="#m532418ecfa" x="289.222018" y="393.158006" style="fill: #0000ff; stroke: #0000ff"/>
     <use xlink:href="#m532418ecfa" x="294.806672" y="394.340411" style="fill: #0000ff; stroke: #0000ff"/>
     <use xlink:href="#m532418ecfa" x="300.391326" y="386.063578" style="fill: #0000ff; stroke: #0000ff"/>
     <use xlink:href="#m532418ecfa" x="305.97598" y="386.063578" style="fill: #0000ff; stroke: #0000ff"/>
     <use xlink:href="#m532418ecfa" x="311.560634" y="381.333959" style="fill: #0000ff; stroke: #0000ff"/>
     <use xlink:href="#m532418ecfa" x="317.145288" y="377.786745" style="fill: #0000ff; stroke: #0000ff"/>
     <use xlink:href="#m532418ecfa" x="322.729942" y="375.421935" style="fill: #0000ff; stroke: #0000ff"/>
     <use xlink:href="#m532418ecfa" x="328.314595" y="370.692317" style="fill: #0000ff; stroke: #0000ff"/>
     <use xlink:href="#m532418ecfa" x="333.899249" y="371.874721" style="fill: #0000ff; stroke: #0000ff"/>
     <use xlink:href="#m532418ecfa" x="339.483903" y="369.509912" style="fill: #0000ff; stroke: #0000ff"/>
     <use xlink:href="#m532418ecfa" x="345.068557" y="364.780293" style="fill: #0000ff; stroke: #0000ff"/>
     <use xlink:href="#m532418ecfa" x="350.653211" y="300.93044" style="fill: #0000ff; stroke: #0000ff"/>
     <use xlink:href="#m532418ecfa" x="356.237865" y="318.66651" style="fill: #0000ff; stroke: #0000ff"/>
     <use xlink:href="#m532418ecfa" x="361.822519" y="354.138651" style="fill: #0000ff; stroke: #0000ff"/>
     <use xlink:href="#m532418ecfa" x="367.407173" y="335.220176" style="fill: #0000ff; stroke: #0000ff"/>
     <use xlink:href="#m532418ecfa" x="372.991827" y="350.591437" style="fill: #0000ff; stroke: #0000ff"/>
     <use xlink:href="#m532418ecfa" x="378.57648" y="344.679413" style="fill: #0000ff; stroke: #0000ff"/>
     <use xlink:href="#m532418ecfa" x="384.161134" y="344.679413" style="fill: #0000ff; stroke: #0000ff"/>
     <use xlink:href="#m532418ecfa" x="389.745788" y="339.949795" style="fill: #0000ff; stroke: #0000ff"/>
     <use xlink:href="#m532418ecfa" x="395.330442" y="293.836012" style="fill: #0000ff; stroke: #0000ff"/>
     <use xlink:href="#m532418ecfa" x="400.915096" y="227.621349" style="fill: #0000ff; stroke: #0000ff"/>
     <use xlink:href="#m532418ecfa" x="406.49975" y="325.760938" style="fill: #0000ff; stroke: #0000ff"/>
     <use xlink:href="#m532418ecfa" x="412.084404" y="310.389677" style="fill: #0000ff; stroke: #0000ff"/>
     <use xlink:href="#m532418ecfa" x="417.669058" y="324.578534" style="fill: #0000ff; stroke: #0000ff"/>
     <use xlink:href="#m532418ecfa" x="423.253711" y="322.213724" style="fill: #0000ff; stroke: #0000ff"/>
     <use xlink:href="#m532418ecfa" x="428.838365" y="313.936891" style="fill: #0000ff; stroke: #0000ff"/>
     <use xlink:href="#m532418ecfa" x="434.423019" y="313.936891" style="fill: #0000ff; stroke: #0000ff"/>
     <use xlink:href="#m532418ecfa" x="440.007673" y="274.917537" style="fill: #0000ff; stroke: #0000ff"/>
     <use xlink:href="#m532418ecfa" x="445.592327" y="267.823109" style="fill: #0000ff; stroke: #0000ff"/>
     <use xlink:href="#m532418ecfa" x="451.176981" y="305.660059" style="fill: #0000ff; stroke: #0000ff"/>
     <use xlink:href="#m532418ecfa" x="456.761635" y="310.389677" style="fill: #0000ff; stroke: #0000ff"/>
     <use xlink:href="#m532418ecfa" x="462.346289" y="304.477654" style="fill: #0000ff; stroke: #0000ff"/>
     <use xlink:href="#m532418ecfa" x="467.930942" y="302.112845" style="fill: #0000ff; stroke: #0000ff"/>
     <use xlink:href="#m532418ecfa" x="473.515596" y="298.56563" style="fill: #0000ff; stroke: #0000ff"/>
     <use xlink:href="#m532418ecfa" x="479.10025" y="297.383226" style="fill: #0000ff; stroke: #0000ff"/>
     <use xlink:href="#m532418ecfa" x="484.684904" y="246.539824" style="fill: #0000ff; stroke: #0000ff"/>
     <use xlink:href="#m532418ecfa" x="490.269558" y="260.72868" style="fill: #0000ff; stroke: #0000ff"/>
     <use xlink:href="#m532418ecfa" x="495.854212" y="285.559179" style="fill: #0000ff; stroke: #0000ff"/>
     <use xlink:href="#m532418ecfa" x="501.438866" y="284.376774" style="fill: #0000ff; stroke: #0000ff"/>
     <use xlink:href="#m532418ecfa" x="507.02352" y="283.19437" style="fill: #0000ff; stroke: #0000ff"/>
     <use xlink:href="#m532418ecfa" x="512.608173" y="277.282346" style="fill: #0000ff; stroke: #0000ff"/>
     <use xlink:href="#m532418ecfa" x="518.192827" y="274.917537" style="fill: #0000ff; stroke: #0000ff"/>
     <use xlink:href="#m532418ecfa" x="523.777481" y="273.735132" style="fill: #0000ff; stroke: #0000ff"/>
     <use xlink:href="#m532418ecfa" x="529.362135" y="219.344516" style="fill: #0000ff; stroke: #0000ff"/>
     <use xlink:href="#m532418ecfa" x="534.946789" y="241.810205" style="fill: #0000ff; stroke: #0000ff"/>
     <use xlink:href="#m532418ecfa" x="540.531443" y="252.451848" style="fill: #0000ff; stroke: #0000ff"/>
     <use xlink:href="#m532418ecfa" x="546.116097" y="264.275894" style="fill: #0000ff; stroke: #0000ff"/>
     <use xlink:href="#m532418ecfa" x="551.700751" y="260.72868" style="fill: #0000ff; stroke: #0000ff"/>
     <use xlink:href="#m532418ecfa" x="557.285405" y="257.181466" style="fill: #0000ff; stroke: #0000ff"/>
     <use xlink:href="#m532418ecfa" x="562.870058" y="254.816657" style="fill: #0000ff; stroke: #0000ff"/>
     <use xlink:href="#m532418ecfa" x="568.454712" y="246.539824" style="fill: #0000ff; stroke: #0000ff"/>
     <use xlink:href="#m532418ecfa" x="574.039366" y="216.979707" style="fill: #0000ff; stroke: #0000ff"/>
     <use xlink:href="#m532418ecfa" x="579.62402" y="205.15566" style="fill: #0000ff; stroke: #0000ff"/>
     <use xlink:href="#m532418ecfa" x="585.208674" y="240.627801" style="fill: #0000ff; stroke: #0000ff"/>
     <use xlink:href="#m532418ecfa" x="590.793328" y="138.940997" style="fill: #0000ff; stroke: #0000ff"/>
     <use xlink:href="#m532418ecfa" x="596.377982" y="214.614897" style="fill: #0000ff; stroke: #0000ff"/>
     <use xlink:href="#m532418ecfa" x="601.962636" y="227.621349" style="fill: #0000ff; stroke: #0000ff"/>
     <use xlink:href="#m532418ecfa" x="607.547289" y="225.25654" style="fill: #0000ff; stroke: #0000ff"/>
     <use xlink:href="#m532418ecfa" x="613.131943" y="224.074135" style="fill: #0000ff; stroke: #0000ff"/>
     <use xlink:href="#m532418ecfa" x="618.716597" y="175.595543" style="fill: #0000ff; stroke: #0000ff"/>
     <use xlink:href="#m532418ecfa" x="624.301251" y="183.872375" style="fill: #0000ff; stroke: #0000ff"/>
     <use xlink:href="#m532418ecfa" x="629.885905" y="89.28" style="fill: #0000ff; stroke: #0000ff"/>
     <use xlink:href="#m532418ecfa" x="635.470559" y="208.702874" style="fill: #0000ff; stroke: #0000ff"/>
     <use xlink:href="#m532418ecfa" x="641.055213" y="207.520469" style="fill: #0000ff; stroke: #0000ff"/>
     <use xlink:href="#m532418ecfa" x="646.639867" y="205.15566" style="fill: #0000ff; stroke: #0000ff"/>
     <use xlink:href="#m532418ecfa" x="652.22452" y="200.426041" style="fill: #0000ff; stroke: #0000ff"/>
     <use xlink:href="#m532418ecfa" x="657.809174" y="195.696422" style="fill: #0000ff; stroke: #0000ff"/>
     <use xlink:href="#m532418ecfa" x="663.393828" y="150.765044" style="fill: #0000ff; stroke: #0000ff"/>
     <use xlink:href="#m532418ecfa" x="668.978482" y="147.21783" style="fill: #0000ff; stroke: #0000ff"/>
     <use xlink:href="#m532418ecfa" x="674.563136" y="185.05478" style="fill: #0000ff; stroke: #0000ff"/>
     <use xlink:href="#m532418ecfa" x="680.14779" y="185.05478" style="fill: #0000ff; stroke: #0000ff"/>
     <use xlink:href="#m532418ecfa" x="685.732444" y="176.777947" style="fill: #0000ff; stroke: #0000ff"/>
     <use xlink:href="#m532418ecfa" x="691.317098" y="180.325161" style="fill: #0000ff; stroke: #0000ff"/>
     <use xlink:href="#m532418ecfa" x="696.901751" y="173.230733" style="fill: #0000ff; stroke: #0000ff"/>
     <use xlink:href="#m532418ecfa" x="702.486405" y="174.413138" style="fill: #0000ff; stroke: #0000ff"/>
     <use xlink:href="#m532418ecfa" x="708.071059" y="130.664164" style="fill: #0000ff; stroke: #0000ff"/>
     <use xlink:href="#m532418ecfa" x="713.655713" y="122.387331" style="fill: #0000ff; stroke: #0000ff"/>
     <use xlink:href="#m532418ecfa" x="719.240367" y="160.224282" style="fill: #0000ff; stroke: #0000ff"/>
     <use xlink:href="#m532418ecfa" x="724.825021" y="161.406686" style="fill: #0000ff; stroke: #0000ff"/>
     <use xlink:href="#m532418ecfa" x="730.409675" y="156.677067" style="fill: #0000ff; stroke: #0000ff"/>
     <use xlink:href="#m532418ecfa" x="735.994329" y="157.859472" style="fill: #0000ff; stroke: #0000ff"/>
     <use xlink:href="#m532418ecfa" x="741.578982" y="153.129853" style="fill: #0000ff; stroke: #0000ff"/>
     <use xlink:href="#m532418ecfa" x="747.163636" y="149.582639" style="fill: #0000ff; stroke: #0000ff"/>
    </g>
   </g>
   <g id="line2d_32">
    <path d="M 138.436364 311.572082 
L 144.021018 471.196716 
L 149.605671 486.567977 
L 155.190325 490.115191 
L 160.774979 490.115191 
L 166.359633 484.203167 
L 171.944287 492.48 
L 177.528941 488.932786 
L 183.113595 487.750381 
L 188.698249 486.567977 
L 194.282902 488.932786 
L 199.867556 483.020762 
L 205.45221 484.203167 
L 211.036864 480.655953 
L 216.621518 481.838358 
L 222.206172 480.655953 
L 227.790826 477.108739 
L 233.37548 475.926334 
L 238.960133 471.196716 
L 244.544787 471.196716 
L 250.129441 468.831906 
L 255.714095 465.284692 
L 261.298749 462.919883 
L 266.883403 462.919883 
L 272.468057 290.288798 
L 278.052711 429.812551 
L 283.637364 447.548622 
L 289.222018 417.988504 
L 294.806672 445.183812 
L 300.391326 449.913431 
L 305.97598 436.906979 
L 311.560634 447.548622 
L 317.145288 446.366217 
L 322.729942 389.610792 
L 328.314595 438.089384 
L 333.899249 436.906979 
L 339.483903 426.265337 
L 345.068557 371.874721 
L 350.653211 342.314604 
L 356.237865 384.881173 
L 361.822519 416.8061 
L 367.407173 413.258886 
L 372.991827 409.711672 
L 378.57648 409.711672 
L 384.161134 415.623695 
L 389.745788 395.522815 
L 395.330442 408.529267 
L 400.915096 407.346862 
L 406.49975 375.421935 
L 412.084404 394.340411 
L 417.669058 396.70522 
L 423.253711 382.516364 
L 428.838365 386.063578 
L 434.423019 383.698768 
L 440.007673 374.239531 
L 445.592327 375.421935 
L 451.176981 376.60434 
L 456.761635 360.050674 
L 462.346289 376.60434 
L 467.930942 371.874721 
L 473.515596 354.138651 
L 479.10025 358.86827 
L 484.684904 368.327507 
L 490.269558 349.409032 
L 495.854212 358.86827 
L 501.438866 351.773842 
L 507.02352 342.314604 
L 512.608173 347.044223 
L 518.192827 343.497009 
L 523.777481 318.66651 
L 529.362135 342.314604 
L 534.946789 335.220176 
L 540.531443 313.936891 
L 546.116097 317.484106 
L 551.700751 326.943343 
L 557.285405 296.200821 
L 562.870058 306.842463 
L 568.454712 299.748035 
L 574.039366 179.142757 
L 579.62402 276.099941 
L 585.208674 290.288798 
L 590.793328 254.816657 
L 596.377982 287.923988 
L 601.962636 282.011965 
L 607.547289 258.363871 
L 613.131943 264.275894 
L 618.716597 272.552727 
L 624.301251 250.087038 
L 629.885905 250.087038 
L 635.470559 247.722229 
L 641.055213 225.25654 
L 646.639867 234.715777 
L 652.22452 232.350968 
L 657.809174 196.878827 
L 663.393828 128.299355 
L 668.978482 211.067683 
L 674.563136 207.520469 
L 680.14779 172.048328 
L 685.732444 205.15566 
L 691.317098 192.149208 
L 696.901751 168.501114 
L 702.486405 173.230733 
L 708.071059 183.872375 
L 713.655713 154.312258 
L 719.240367 161.406686 
L 724.825021 143.670616 
L 730.409675 125.934545 
L 735.994329 142.488211 
L 741.578982 135.393783 
L 747.163636 92.827214 
" clip-path="url(#p0616b678cf)" style="fill: none; stroke: #ff0000; stroke-width: 1.5; stroke-linecap: square"/>
    <defs>
     <path id="m27f0034a5c" d="M -3 3 
L 3 3 
L 3 -3 
L -3 -3 
z
" style="stroke: #ff0000; stroke-linejoin: miter"/>
    </defs>
    <g clip-path="url(#p0616b678cf)">
     <use xlink:href="#m27f0034a5c" x="138.436364" y="311.572082" style="fill: #ff0000; stroke: #ff0000; stroke-linejoin: miter"/>
     <use xlink:href="#m27f0034a5c" x="144.021018" y="471.196716" style="fill: #ff0000; stroke: #ff0000; stroke-linejoin: miter"/>
     <use xlink:href="#m27f0034a5c" x="149.605671" y="486.567977" style="fill: #ff0000; stroke: #ff0000; stroke-linejoin: miter"/>
     <use xlink:href="#m27f0034a5c" x="155.190325" y="490.115191" style="fill: #ff0000; stroke: #ff0000; stroke-linejoin: miter"/>
     <use xlink:href="#m27f0034a5c" x="160.774979" y="490.115191" style="fill: #ff0000; stroke: #ff0000; stroke-linejoin: miter"/>
     <use xlink:href="#m27f0034a5c" x="166.359633" y="484.203167" style="fill: #ff0000; stroke: #ff0000; stroke-linejoin: miter"/>
     <use xlink:href="#m27f0034a5c" x="171.944287" y="492.48" style="fill: #ff0000; stroke: #ff0000; stroke-linejoin: miter"/>
     <use xlink:href="#m27f0034a5c" x="177.528941" y="488.932786" style="fill: #ff0000; stroke: #ff0000; stroke-linejoin: miter"/>
     <use xlink:href="#m27f0034a5c" x="183.113595" y="487.750381" style="fill: #ff0000; stroke: #ff0000; stroke-linejoin: miter"/>
     <use xlink:href="#m27f0034a5c" x="188.698249" y="486.567977" style="fill: #ff0000; stroke: #ff0000; stroke-linejoin: miter"/>
     <use xlink:href="#m27f0034a5c" x="194.282902" y="488.932786" style="fill: #ff0000; stroke: #ff0000; stroke-linejoin: miter"/>
     <use xlink:href="#m27f0034a5c" x="199.867556" y="483.020762" style="fill: #ff0000; stroke: #ff0000; stroke-linejoin: miter"/>
     <use xlink:href="#m27f0034a5c" x="205.45221" y="484.203167" style="fill: #ff0000; stroke: #ff0000; stroke-linejoin: miter"/>
     <use xlink:href="#m27f0034a5c" x="211.036864" y="480.655953" style="fill: #ff0000; stroke: #ff0000; stroke-linejoin: miter"/>
     <use xlink:href="#m27f0034a5c" x="216.621518" y="481.838358" style="fill: #ff0000; stroke: #ff0000; stroke-linejoin: miter"/>
     <use xlink:href="#m27f0034a5c" x="222.206172" y="480.655953" style="fill: #ff0000; stroke: #ff0000; stroke-linejoin: miter"/>
     <use xlink:href="#m27f0034a5c" x="227.790826" y="477.108739" style="fill: #ff0000; stroke: #ff0000; stroke-linejoin: miter"/>
     <use xlink:href="#m27f0034a5c" x="233.37548" y="475.926334" style="fill: #ff0000; stroke: #ff0000; stroke-linejoin: miter"/>
     <use xlink:href="#m27f0034a5c" x="238.960133" y="471.196716" style="fill: #ff0000; stroke: #ff0000; stroke-linejoin: miter"/>
     <use xlink:href="#m27f0034a5c" x="244.544787" y="471.196716" style="fill: #ff0000; stroke: #ff0000; stroke-linejoin: miter"/>
     <use xlink:href="#m27f0034a5c" x="250.129441" y="468.831906" style="fill: #ff0000; stroke: #ff0000; stroke-linejoin: miter"/>
     <use xlink:href="#m27f0034a5c" x="255.714095" y="465.284692" style="fill: #ff0000; stroke: #ff0000; stroke-linejoin: miter"/>
     <use xlink:href="#m27f0034a5c" x="261.298749" y="462.919883" style="fill: #ff0000; stroke: #ff0000; stroke-linejoin: miter"/>
     <use xlink:href="#m27f0034a5c" x="266.883403" y="462.919883" style="fill: #ff0000; stroke: #ff0000; stroke-linejoin: miter"/>
     <use xlink:href="#m27f0034a5c" x="272.468057" y="290.288798" style="fill: #ff0000; stroke: #ff0000; stroke-linejoin: miter"/>
     <use xlink:href="#m27f0034a5c" x="278.052711" y="429.812551" style="fill: #ff0000; stroke: #ff0000; stroke-linejoin: miter"/>
     <use xlink:href="#m27f0034a5c" x="283.637364" y="447.548622" style="fill: #ff0000; stroke: #ff0000; stroke-linejoin: miter"/>
     <use xlink:href="#m27f0034a5c" x="289.222018" y="417.988504" style="fill: #ff0000; stroke: #ff0000; stroke-linejoin: miter"/>
     <use xlink:href="#m27f0034a5c" x="294.806672" y="445.183812" style="fill: #ff0000; stroke: #ff0000; stroke-linejoin: miter"/>
     <use xlink:href="#m27f0034a5c" x="300.391326" y="449.913431" style="fill: #ff0000; stroke: #ff0000; stroke-linejoin: miter"/>
     <use xlink:href="#m27f0034a5c" x="305.97598" y="436.906979" style="fill: #ff0000; stroke: #ff0000; stroke-linejoin: miter"/>
     <use xlink:href="#m27f0034a5c" x="311.560634" y="447.548622" style="fill: #ff0000; stroke: #ff0000; stroke-linejoin: miter"/>
     <use xlink:href="#m27f0034a5c" x="317.145288" y="446.366217" style="fill: #ff0000; stroke: #ff0000; stroke-linejoin: miter"/>
     <use xlink:href="#m27f0034a5c" x="322.729942" y="389.610792" style="fill: #ff0000; stroke: #ff0000; stroke-linejoin: miter"/>
     <use xlink:href="#m27f0034a5c" x="328.314595" y="438.089384" style="fill: #ff0000; stroke: #ff0000; stroke-linejoin: miter"/>
     <use xlink:href="#m27f0034a5c" x="333.899249" y="436.906979" style="fill: #ff0000; stroke: #ff0000; stroke-linejoin: miter"/>
     <use xlink:href="#m27f0034a5c" x="339.483903" y="426.265337" style="fill: #ff0000; stroke: #ff0000; stroke-linejoin: miter"/>
     <use xlink:href="#m27f0034a5c" x="345.068557" y="371.874721" style="fill: #ff0000; stroke: #ff0000; stroke-linejoin: miter"/>
     <use xlink:href="#m27f0034a5c" x="350.653211" y="342.314604" style="fill: #ff0000; stroke: #ff0000; stroke-linejoin: miter"/>
     <use xlink:href="#m27f0034a5c" x="356.237865" y="384.881173" style="fill: #ff0000; stroke: #ff0000; stroke-linejoin: miter"/>
     <use xlink:href="#m27f0034a5c" x="361.822519" y="416.8061" style="fill: #ff0000; stroke: #ff0000; stroke-linejoin: miter"/>
     <use xlink:href="#m27f0034a5c" x="367.407173" y="413.258886" style="fill: #ff0000; stroke: #ff0000; stroke-linejoin: miter"/>
     <use xlink:href="#m27f0034a5c" x="372.991827" y="409.711672" style="fill: #ff0000; stroke: #ff0000; stroke-linejoin: miter"/>
     <use xlink:href="#m27f0034a5c" x="378.57648" y="409.711672" style="fill: #ff0000; stroke: #ff0000; stroke-linejoin: miter"/>
     <use xlink:href="#m27f0034a5c" x="384.161134" y="415.623695" style="fill: #ff0000; stroke: #ff0000; stroke-linejoin: miter"/>
     <use xlink:href="#m27f0034a5c" x="389.745788" y="395.522815" style="fill: #ff0000; stroke: #ff0000; stroke-linejoin: miter"/>
     <use xlink:href="#m27f0034a5c" x="395.330442" y="408.529267" style="fill: #ff0000; stroke: #ff0000; stroke-linejoin: miter"/>
     <use xlink:href="#m27f0034a5c" x="400.915096" y="407.346862" style="fill: #ff0000; stroke: #ff0000; stroke-linejoin: miter"/>
     <use xlink:href="#m27f0034a5c" x="406.49975" y="375.421935" style="fill: #ff0000; stroke: #ff0000; stroke-linejoin: miter"/>
     <use xlink:href="#m27f0034a5c" x="412.084404" y="394.340411" style="fill: #ff0000; stroke: #ff0000; stroke-linejoin: miter"/>
     <use xlink:href="#m27f0034a5c" x="417.669058" y="396.70522" style="fill: #ff0000; stroke: #ff0000; stroke-linejoin: miter"/>
     <use xlink:href="#m27f0034a5c" x="423.253711" y="382.516364" style="fill: #ff0000; stroke: #ff0000; stroke-linejoin: miter"/>
     <use xlink:href="#m27f0034a5c" x="428.838365" y="386.063578" style="fill: #ff0000; stroke: #ff0000; stroke-linejoin: miter"/>
     <use xlink:href="#m27f0034a5c" x="434.423019" y="383.698768" style="fill: #ff0000; stroke: #ff0000; stroke-linejoin: miter"/>
     <use xlink:href="#m27f0034a5c" x="440.007673" y="374.239531" style="fill: #ff0000; stroke: #ff0000; stroke-linejoin: miter"/>
     <use xlink:href="#m27f0034a5c" x="445.592327" y="375.421935" style="fill: #ff0000; stroke: #ff0000; stroke-linejoin: miter"/>
     <use xlink:href="#m27f0034a5c" x="451.176981" y="376.60434" style="fill: #ff0000; stroke: #ff0000; stroke-linejoin: miter"/>
     <use xlink:href="#m27f0034a5c" x="456.761635" y="360.050674" style="fill: #ff0000; stroke: #ff0000; stroke-linejoin: miter"/>
     <use xlink:href="#m27f0034a5c" x="462.346289" y="376.60434" style="fill: #ff0000; stroke: #ff0000; stroke-linejoin: miter"/>
     <use xlink:href="#m27f0034a5c" x="467.930942" y="371.874721" style="fill: #ff0000; stroke: #ff0000; stroke-linejoin: miter"/>
     <use xlink:href="#m27f0034a5c" x="473.515596" y="354.138651" style="fill: #ff0000; stroke: #ff0000; stroke-linejoin: miter"/>
     <use xlink:href="#m27f0034a5c" x="479.10025" y="358.86827" style="fill: #ff0000; stroke: #ff0000; stroke-linejoin: miter"/>
     <use xlink:href="#m27f0034a5c" x="484.684904" y="368.327507" style="fill: #ff0000; stroke: #ff0000; stroke-linejoin: miter"/>
     <use xlink:href="#m27f0034a5c" x="490.269558" y="349.409032" style="fill: #ff0000; stroke: #ff0000; stroke-linejoin: miter"/>
     <use xlink:href="#m27f0034a5c" x="495.854212" y="358.86827" style="fill: #ff0000; stroke: #ff0000; stroke-linejoin: miter"/>
     <use xlink:href="#m27f0034a5c" x="501.438866" y="351.773842" style="fill: #ff0000; stroke: #ff0000; stroke-linejoin: miter"/>
     <use xlink:href="#m27f0034a5c" x="507.02352" y="342.314604" style="fill: #ff0000; stroke: #ff0000; stroke-linejoin: miter"/>
     <use xlink:href="#m27f0034a5c" x="512.608173" y="347.044223" style="fill: #ff0000; stroke: #ff0000; stroke-linejoin: miter"/>
     <use xlink:href="#m27f0034a5c" x="518.192827" y="343.497009" style="fill: #ff0000; stroke: #ff0000; stroke-linejoin: miter"/>
     <use xlink:href="#m27f0034a5c" x="523.777481" y="318.66651" style="fill: #ff0000; stroke: #ff0000; stroke-linejoin: miter"/>
     <use xlink:href="#m27f0034a5c" x="529.362135" y="342.314604" style="fill: #ff0000; stroke: #ff0000; stroke-linejoin: miter"/>
     <use xlink:href="#m27f0034a5c" x="534.946789" y="335.220176" style="fill: #ff0000; stroke: #ff0000; stroke-linejoin: miter"/>
     <use xlink:href="#m27f0034a5c" x="540.531443" y="313.936891" style="fill: #ff0000; stroke: #ff0000; stroke-linejoin: miter"/>
     <use xlink:href="#m27f0034a5c" x="546.116097" y="317.484106" style="fill: #ff0000; stroke: #ff0000; stroke-linejoin: miter"/>
     <use xlink:href="#m27f0034a5c" x="551.700751" y="326.943343" style="fill: #ff0000; stroke: #ff0000; stroke-linejoin: miter"/>
     <use xlink:href="#m27f0034a5c" x="557.285405" y="296.200821" style="fill: #ff0000; stroke: #ff0000; stroke-linejoin: miter"/>
     <use xlink:href="#m27f0034a5c" x="562.870058" y="306.842463" style="fill: #ff0000; stroke: #ff0000; stroke-linejoin: miter"/>
     <use xlink:href="#m27f0034a5c" x="568.454712" y="299.748035" style="fill: #ff0000; stroke: #ff0000; stroke-linejoin: miter"/>
     <use xlink:href="#m27f0034a5c" x="574.039366" y="179.142757" style="fill: #ff0000; stroke: #ff0000; stroke-linejoin: miter"/>
     <use xlink:href="#m27f0034a5c" x="579.62402" y="276.099941" style="fill: #ff0000; stroke: #ff0000; stroke-linejoin: miter"/>
     <use xlink:href="#m27f0034a5c" x="585.208674" y="290.288798" style="fill: #ff0000; stroke: #ff0000; stroke-linejoin: miter"/>
     <use xlink:href="#m27f0034a5c" x="590.793328" y="254.816657" style="fill: #ff0000; stroke: #ff0000; stroke-linejoin: miter"/>
     <use xlink:href="#m27f0034a5c" x="596.377982" y="287.923988" style="fill: #ff0000; stroke: #ff0000; stroke-linejoin: miter"/>
     <use xlink:href="#m27f0034a5c" x="601.962636" y="282.011965" style="fill: #ff0000; stroke: #ff0000; stroke-linejoin: miter"/>
     <use xlink:href="#m27f0034a5c" x="607.547289" y="258.363871" style="fill: #ff0000; stroke: #ff0000; stroke-linejoin: miter"/>
     <use xlink:href="#m27f0034a5c" x="613.131943" y="264.275894" style="fill: #ff0000; stroke: #ff0000; stroke-linejoin: miter"/>
     <use xlink:href="#m27f0034a5c" x="618.716597" y="272.552727" style="fill: #ff0000; stroke: #ff0000; stroke-linejoin: miter"/>
     <use xlink:href="#m27f0034a5c" x="624.301251" y="250.087038" style="fill: #ff0000; stroke: #ff0000; stroke-linejoin: miter"/>
     <use xlink:href="#m27f0034a5c" x="629.885905" y="250.087038" style="fill: #ff0000; stroke: #ff0000; stroke-linejoin: miter"/>
     <use xlink:href="#m27f0034a5c" x="635.470559" y="247.722229" style="fill: #ff0000; stroke: #ff0000; stroke-linejoin: miter"/>
     <use xlink:href="#m27f0034a5c" x="641.055213" y="225.25654" style="fill: #ff0000; stroke: #ff0000; stroke-linejoin: miter"/>
     <use xlink:href="#m27f0034a5c" x="646.639867" y="234.715777" style="fill: #ff0000; stroke: #ff0000; stroke-linejoin: miter"/>
     <use xlink:href="#m27f0034a5c" x="652.22452" y="232.350968" style="fill: #ff0000; stroke: #ff0000; stroke-linejoin: miter"/>
     <use xlink:href="#m27f0034a5c" x="657.809174" y="196.878827" style="fill: #ff0000; stroke: #ff0000; stroke-linejoin: miter"/>
     <use xlink:href="#m27f0034a5c" x="663.393828" y="128.299355" style="fill: #ff0000; stroke: #ff0000; stroke-linejoin: miter"/>
     <use xlink:href="#m27f0034a5c" x="668.978482" y="211.067683" style="fill: #ff0000; stroke: #ff0000; stroke-linejoin: miter"/>
     <use xlink:href="#m27f0034a5c" x="674.563136" y="207.520469" style="fill: #ff0000; stroke: #ff0000; stroke-linejoin: miter"/>
     <use xlink:href="#m27f0034a5c" x="680.14779" y="172.048328" style="fill: #ff0000; stroke: #ff0000; stroke-linejoin: miter"/>
     <use xlink:href="#m27f0034a5c" x="685.732444" y="205.15566" style="fill: #ff0000; stroke: #ff0000; stroke-linejoin: miter"/>
     <use xlink:href="#m27f0034a5c" x="691.317098" y="192.149208" style="fill: #ff0000; stroke: #ff0000; stroke-linejoin: miter"/>
     <use xlink:href="#m27f0034a5c" x="696.901751" y="168.501114" style="fill: #ff0000; stroke: #ff0000; stroke-linejoin: miter"/>
     <use xlink:href="#m27f0034a5c" x="702.486405" y="173.230733" style="fill: #ff0000; stroke: #ff0000; stroke-linejoin: miter"/>
     <use xlink:href="#m27f0034a5c" x="708.071059" y="183.872375" style="fill: #ff0000; stroke: #ff0000; stroke-linejoin: miter"/>
     <use xlink:href="#m27f0034a5c" x="713.655713" y="154.312258" style="fill: #ff0000; stroke: #ff0000; stroke-linejoin: miter"/>
     <use xlink:href="#m27f0034a5c" x="719.240367" y="161.406686" style="fill: #ff0000; stroke: #ff0000; stroke-linejoin: miter"/>
     <use xlink:href="#m27f0034a5c" x="724.825021" y="143.670616" style="fill: #ff0000; stroke: #ff0000; stroke-linejoin: miter"/>
     <use xlink:href="#m27f0034a5c" x="730.409675" y="125.934545" style="fill: #ff0000; stroke: #ff0000; stroke-linejoin: miter"/>
     <use xlink:href="#m27f0034a5c" x="735.994329" y="142.488211" style="fill: #ff0000; stroke: #ff0000; stroke-linejoin: miter"/>
     <use xlink:href="#m27f0034a5c" x="741.578982" y="135.393783" style="fill: #ff0000; stroke: #ff0000; stroke-linejoin: miter"/>
     <use xlink:href="#m27f0034a5c" x="747.163636" y="92.827214" style="fill: #ff0000; stroke: #ff0000; stroke-linejoin: miter"/>
    </g>
   </g>
   <g id="patch_3">
    <path d="M 108 512.64 
L 108 69.12 
" style="fill: none; stroke: #000000; stroke-width: 0.8; stroke-linejoin: miter; stroke-linecap: square"/>
   </g>
   <g id="patch_4">
    <path d="M 777.6 512.64 
L 777.6 69.12 
" style="fill: none; stroke: #000000; stroke-width: 0.8; stroke-linejoin: miter; stroke-linecap: square"/>
   </g>
   <g id="patch_5">
    <path d="M 108 512.64 
L 777.6 512.64 
" style="fill: none; stroke: #000000; stroke-width: 0.8; stroke-linejoin: miter; stroke-linecap: square"/>
   </g>
   <g id="patch_6">
    <path d="M 108 69.12 
L 777.6 69.12 
" style="fill: none; stroke: #000000; stroke-width: 0.8; stroke-linejoin: miter; stroke-linecap: square"/>
   </g>
   <g id="text_19">
    <!-- Comparison of Execution Time: Custom vs Numpy Methods -->
    <g transform="translate(205.485 63.12) scale(0.16 -0.16)">
     <defs>
      <path id="DejaVuSans-43" d="M 4122 4306 
L 4122 3641 
Q 3803 3938 3442 4084 
Q 3081 4231 2675 4231 
Q 1875 4231 1450 3742 
Q 1025 3253 1025 2328 
Q 1025 1406 1450 917 
Q 1875 428 2675 428 
Q 3081 428 3442 575 
Q 3803 722 4122 1019 
L 4122 359 
Q 3791 134 3420 21 
Q 3050 -91 2638 -91 
Q 1578 -91 968 557 
Q 359 1206 359 2328 
Q 359 3453 968 4101 
Q 1578 4750 2638 4750 
Q 3056 4750 3426 4639 
Q 3797 4528 4122 4306 
z
" transform="scale(0.015625)"/>
      <path id="DejaVuSans-70" d="M 1159 525 
L 1159 -1331 
L 581 -1331 
L 581 3500 
L 1159 3500 
L 1159 2969 
Q 1341 3281 1617 3432 
Q 1894 3584 2278 3584 
Q 2916 3584 3314 3078 
Q 3713 2572 3713 1747 
Q 3713 922 3314 415 
Q 2916 -91 2278 -91 
Q 1894 -91 1617 61 
Q 1341 213 1159 525 
z
M 3116 1747 
Q 3116 2381 2855 2742 
Q 2594 3103 2138 3103 
Q 1681 3103 1420 2742 
Q 1159 2381 1159 1747 
Q 1159 1113 1420 752 
Q 1681 391 2138 391 
Q 2594 391 2855 752 
Q 3116 1113 3116 1747 
z
" transform="scale(0.015625)"/>
      <path id="DejaVuSans-66" d="M 2375 4863 
L 2375 4384 
L 1825 4384 
Q 1516 4384 1395 4259 
Q 1275 4134 1275 3809 
L 1275 3500 
L 2222 3500 
L 2222 3053 
L 1275 3053 
L 1275 0 
L 697 0 
L 697 3053 
L 147 3053 
L 147 3500 
L 697 3500 
L 697 3744 
Q 697 4328 969 4595 
Q 1241 4863 1831 4863 
L 2375 4863 
z
" transform="scale(0.015625)"/>
      <path id="DejaVuSans-3a" d="M 750 794 
L 1409 794 
L 1409 0 
L 750 0 
L 750 794 
z
M 750 3309 
L 1409 3309 
L 1409 2516 
L 750 2516 
L 750 3309 
z
" transform="scale(0.015625)"/>
      <path id="DejaVuSans-76" d="M 191 3500 
L 800 3500 
L 1894 563 
L 2988 3500 
L 3597 3500 
L 2284 0 
L 1503 0 
L 191 3500 
z
" transform="scale(0.015625)"/>
      <path id="DejaVuSans-79" d="M 2059 -325 
Q 1816 -950 1584 -1140 
Q 1353 -1331 966 -1331 
L 506 -1331 
L 506 -850 
L 844 -850 
Q 1081 -850 1212 -737 
Q 1344 -625 1503 -206 
L 1606 56 
L 191 3500 
L 800 3500 
L 1894 763 
L 2988 3500 
L 3597 3500 
L 2059 -325 
z
" transform="scale(0.015625)"/>
      <path id="DejaVuSans-68" d="M 3513 2113 
L 3513 0 
L 2938 0 
L 2938 2094 
Q 2938 2591 2744 2837 
Q 2550 3084 2163 3084 
Q 1697 3084 1428 2787 
Q 1159 2491 1159 1978 
L 1159 0 
L 581 0 
L 581 4863 
L 1159 4863 
L 1159 2956 
Q 1366 3272 1645 3428 
Q 1925 3584 2291 3584 
Q 2894 3584 3203 3211 
Q 3513 2838 3513 2113 
z
" transform="scale(0.015625)"/>
      <path id="DejaVuSans-64" d="M 2906 2969 
L 2906 4863 
L 3481 4863 
L 3481 0 
L 2906 0 
L 2906 525 
Q 2725 213 2448 61 
Q 2172 -91 1784 -91 
Q 1150 -91 751 415 
Q 353 922 353 1747 
Q 353 2572 751 3078 
Q 1150 3584 1784 3584 
Q 2172 3584 2448 3432 
Q 2725 3281 2906 2969 
z
M 947 1747 
Q 947 1113 1208 752 
Q 1469 391 1925 391 
Q 2381 391 2643 752 
Q 2906 1113 2906 1747 
Q 2906 2381 2643 2742 
Q 2381 3103 1925 3103 
Q 1469 3103 1208 2742 
Q 947 2381 947 1747 
z
" transform="scale(0.015625)"/>
     </defs>
     <use xlink:href="#DejaVuSans-43"/>
     <use xlink:href="#DejaVuSans-6f" x="69.824219"/>
     <use xlink:href="#DejaVuSans-6d" x="131.005859"/>
     <use xlink:href="#DejaVuSans-70" x="228.417969"/>
     <use xlink:href="#DejaVuSans-61" x="291.894531"/>
     <use xlink:href="#DejaVuSans-72" x="353.173828"/>
     <use xlink:href="#DejaVuSans-69" x="394.287109"/>
     <use xlink:href="#DejaVuSans-73" x="422.070312"/>
     <use xlink:href="#DejaVuSans-6f" x="474.169922"/>
     <use xlink:href="#DejaVuSans-6e" x="535.351562"/>
     <use xlink:href="#DejaVuSans-20" x="598.730469"/>
     <use xlink:href="#DejaVuSans-6f" x="630.517578"/>
     <use xlink:href="#DejaVuSans-66" x="691.699219"/>
     <use xlink:href="#DejaVuSans-20" x="726.904297"/>
     <use xlink:href="#DejaVuSans-45" x="758.691406"/>
     <use xlink:href="#DejaVuSans-78" x="821.875"/>
     <use xlink:href="#DejaVuSans-65" x="877.929688"/>
     <use xlink:href="#DejaVuSans-63" x="939.453125"/>
     <use xlink:href="#DejaVuSans-75" x="994.433594"/>
     <use xlink:href="#DejaVuSans-74" x="1057.8125"/>
     <use xlink:href="#DejaVuSans-69" x="1097.021484"/>
     <use xlink:href="#DejaVuSans-6f" x="1124.804688"/>
     <use xlink:href="#DejaVuSans-6e" x="1185.986328"/>
     <use xlink:href="#DejaVuSans-20" x="1249.365234"/>
     <use xlink:href="#DejaVuSans-54" x="1281.152344"/>
     <use xlink:href="#DejaVuSans-69" x="1339.111328"/>
     <use xlink:href="#DejaVuSans-6d" x="1366.894531"/>
     <use xlink:href="#DejaVuSans-65" x="1464.306641"/>
     <use xlink:href="#DejaVuSans-3a" x="1525.830078"/>
     <use xlink:href="#DejaVuSans-20" x="1559.521484"/>
     <use xlink:href="#DejaVuSans-43" x="1591.308594"/>
     <use xlink:href="#DejaVuSans-75" x="1661.132812"/>
     <use xlink:href="#DejaVuSans-73" x="1724.511719"/>
     <use xlink:href="#DejaVuSans-74" x="1776.611328"/>
     <use xlink:href="#DejaVuSans-6f" x="1815.820312"/>
     <use xlink:href="#DejaVuSans-6d" x="1877.001953"/>
     <use xlink:href="#DejaVuSans-20" x="1974.414062"/>
     <use xlink:href="#DejaVuSans-76" x="2006.201172"/>
     <use xlink:href="#DejaVuSans-73" x="2065.380859"/>
     <use xlink:href="#DejaVuSans-20" x="2117.480469"/>
     <use xlink:href="#DejaVuSans-4e" x="2149.267578"/>
     <use xlink:href="#DejaVuSans-75" x="2224.072266"/>
     <use xlink:href="#DejaVuSans-6d" x="2287.451172"/>
     <use xlink:href="#DejaVuSans-70" x="2384.863281"/>
     <use xlink:href="#DejaVuSans-79" x="2448.339844"/>
     <use xlink:href="#DejaVuSans-20" x="2507.519531"/>
     <use xlink:href="#DejaVuSans-4d" x="2539.306641"/>
     <use xlink:href="#DejaVuSans-65" x="2625.585938"/>
     <use xlink:href="#DejaVuSans-74" x="2687.109375"/>
     <use xlink:href="#DejaVuSans-68" x="2726.318359"/>
     <use xlink:href="#DejaVuSans-6f" x="2789.697266"/>
     <use xlink:href="#DejaVuSans-64" x="2850.878906"/>
     <use xlink:href="#DejaVuSans-73" x="2914.355469"/>
    </g>
   </g>
   <g id="legend_1">
    <g id="patch_7">
     <path d="M 116.4 113.9475 
L 249.5925 113.9475 
Q 251.9925 113.9475 251.9925 111.5475 
L 251.9925 77.52 
Q 251.9925 75.12 249.5925 75.12 
L 116.4 75.12 
Q 114 75.12 114 77.52 
L 114 111.5475 
Q 114 113.9475 116.4 113.9475 
z
" style="fill: #ffffff; opacity: 0.8; stroke: #cccccc; stroke-linejoin: miter"/>
    </g>
    <g id="line2d_33">
     <path d="M 118.8 84.838125 
L 130.8 84.838125 
L 142.8 84.838125 
" style="fill: none; stroke: #0000ff; stroke-width: 1.5; stroke-linecap: square"/>
     <g>
      <use xlink:href="#m532418ecfa" x="130.8" y="84.838125" style="fill: #0000ff; stroke: #0000ff"/>
     </g>
    </g>
    <g id="text_20">
     <!-- Custom Method -->
     <g transform="translate(152.4 89.038125) scale(0.12 -0.12)">
      <use xlink:href="#DejaVuSans-43"/>
      <use xlink:href="#DejaVuSans-75" x="69.824219"/>
      <use xlink:href="#DejaVuSans-73" x="133.203125"/>
      <use xlink:href="#DejaVuSans-74" x="185.302734"/>
      <use xlink:href="#DejaVuSans-6f" x="224.511719"/>
      <use xlink:href="#DejaVuSans-6d" x="285.693359"/>
      <use xlink:href="#DejaVuSans-20" x="383.105469"/>
      <use xlink:href="#DejaVuSans-4d" x="414.892578"/>
      <use xlink:href="#DejaVuSans-65" x="501.171875"/>
      <use xlink:href="#DejaVuSans-74" x="562.695312"/>
      <use xlink:href="#DejaVuSans-68" x="601.904297"/>
      <use xlink:href="#DejaVuSans-6f" x="665.283203"/>
      <use xlink:href="#DejaVuSans-64" x="726.464844"/>
     </g>
    </g>
    <g id="line2d_34">
     <path d="M 118.8 102.451875 
L 130.8 102.451875 
L 142.8 102.451875 
" style="fill: none; stroke: #ff0000; stroke-width: 1.5; stroke-linecap: square"/>
     <g>
      <use xlink:href="#m27f0034a5c" x="130.8" y="102.451875" style="fill: #ff0000; stroke: #ff0000; stroke-linejoin: miter"/>
     </g>
    </g>
    <g id="text_21">
     <!-- Numpy Method -->
     <g transform="translate(152.4 106.651875) scale(0.12 -0.12)">
      <use xlink:href="#DejaVuSans-4e"/>
      <use xlink:href="#DejaVuSans-75" x="74.804688"/>
      <use xlink:href="#DejaVuSans-6d" x="138.183594"/>
      <use xlink:href="#DejaVuSans-70" x="235.595703"/>
      <use xlink:href="#DejaVuSans-79" x="299.072266"/>
      <use xlink:href="#DejaVuSans-20" x="358.251953"/>
      <use xlink:href="#DejaVuSans-4d" x="390.039062"/>
      <use xlink:href="#DejaVuSans-65" x="476.318359"/>
      <use xlink:href="#DejaVuSans-74" x="537.841797"/>
      <use xlink:href="#DejaVuSans-68" x="577.050781"/>
      <use xlink:href="#DejaVuSans-6f" x="640.429688"/>
      <use xlink:href="#DejaVuSans-64" x="701.611328"/>
     </g>
    </g>
   </g>
  </g>
 </g>
 <defs>
  <clipPath id="p0616b678cf">
   <rect x="108" y="69.12" width="669.6" height="443.52"/>
  </clipPath>
 </defs>
</svg>
